<svg xmlns="http://www.w3.org/2000/svg" xmlns:xlink="http://www.w3.org/1999/xlink" width="153" height="153" viewBox="0 0 153 153"><defs><path id="4paqa" d="M933.5 3247.5a75 75 0 1 1 0 150 75 75 0 0 1 0-150z"/><path id="4paqb" d="M933.5 3260a62.5 62.5 0 1 1 0 125 62.5 62.5 0 0 1 0-125z"/><path id="4paqc" d="M926.7 3299.48a1.3 1.3 0 1 1 0 2.61 1.3 1.3 0 0 1 0-2.61zm2.92-6.35a1.3 1.3 0 1 1 0 2.61 1.3 1.3 0 0 1 0-2.61zm2.3 4.53a1.3 1.3 0 1 1 0 2.62 1.3 1.3 0 0 1 0-2.62zm4.93 3.13a1.3 1.3 0 1 1 0 2.61 1.3 1.3 0 0 1 0-2.61zm37.14 33.95c0 4.03-3.42 8.46-8.43 8.46h-1.51a7.3 7.3 0 0 1-7.23 6.65 7.23 7.23 0 0 1-7.23-7.05h-29a7.23 7.23 0 0 1-14.46.4h-.7a8.5 8.5 0 0 1-8.44-8.46v-2.32c0-6.04 2.72-9.47 7.43-9.47h5.62c.1-3.02 1.2-5.44 3.12-7.35 4.11-4.03 10.44-4.03 10.74-4.03h6.92v-5.44l-7.93-.6-3-.21c-1.01-.1-1.71-.8-1.92-1.71-.3-1.72-.5-5.34 2.11-10.48 2.61-5.14 5.62-7.15 7.13-7.86.9-.4 1.9-.1 2.5.6l1.92 2.32 12.74 15.42c.5.6.6 1.4.2 2.11-.3.6-1 1.01-1.7 1.01h-.1l-9.84-.7v5.23h5.92c9.44 0 14.46 9.17 15.56 11.39l7.63 1.71c1.1.3 2.21.6 3.11.8 7.43 1.82 8.84 2.33 8.84 9.58zm-31.32-30.02l-12.65-15.32c-.8.5-3.11 1.92-5.22 6.05-2.1 4.03-1.9 6.85-1.7 7.86zm-22.59-1.62l1.1.1c-.2-1.7-.1-4.63 1.91-8.66s4.32-5.84 5.73-6.65l-.7-.8c-1.11.4-3.82 2.11-6.23 6.85-2.41 4.73-2.1 7.95-1.8 9.16zm19.08 10.28v9.17h12.94c-1.7-2.82-6.02-8.97-12.94-9.17zm-20.58 29.22a5.2 5.2 0 0 0-5.22-5.24 5.2 5.2 0 0 0-5.22 5.24 5.2 5.2 0 0 0 5.22 5.24 5.2 5.2 0 0 0 5.22-5.24zm43.46 0c0-2.82-2.3-5.24-5.22-5.24a5.2 5.2 0 0 0-5.22 5.24 5.2 5.2 0 0 0 5.22 5.24 5.2 5.2 0 0 0 5.22-5.24zm10.04-7.86c0-5.84-.2-5.84-7.23-7.56-.9-.3-1.9-.5-3.1-.8l-7.94-1.82h-15.46c-.6 0-1-.4-1-1v-10.18H924.1c-.2 0-5.92 0-9.34 3.43-1.7 1.7-2.6 4.03-2.6 6.85 0 .6-.4 1-1.01 1h-6.63c-4.51 0-5.42 4.04-5.42 7.46v2.62a6.48 6.48 0 0 0 6.43 6.45h.9a7.13 7.13 0 0 1 7.03-5.85 7.12 7.12 0 0 1 6.92 5.34H950a7.23 7.23 0 0 1 6.92-5.34 7.3 7.3 0 0 1 7.03 5.85h1.6c3.82 0 6.43-3.33 6.53-6.45zm-38.14-11.18c0 .6-.4 1-1 1h-16.07c-.6 0-1-.4-1-1s.4-1.01 1-1.01h16.06c.5 0 1 .4 1 1z"/></defs><g><g opacity=".2" transform="translate(-857 -3246)"><use fill="#ff5000" xlink:href="#4paqa"/></g><g transform="translate(-857 -3246)"><use fill="#ff5000" xlink:href="#4paqb"/></g><g transform="translate(-857 -3246)"><use fill="#fff" xlink:href="#4paqc"/></g></g></svg>