<svg xmlns="http://www.w3.org/2000/svg" xmlns:xlink="http://www.w3.org/1999/xlink" width="153" height="153" viewBox="0 0 153 153"><defs><path id="2nk1a" d="M1204.5 3247.5a75 75 0 1 1 0 150 75 75 0 0 1 0-150z"/><path id="2nk1b" d="M1204.5 3260a62.5 62.5 0 1 1 0 125 62.5 62.5 0 0 1 0-125z"/><path id="2nk1c" d="M1199.06 3287.71c0 1 .8 1.9 1.9 1.9.6 0 1 .4 1 1s-.4 1-1 1c-2.1 0-3.9-1.8-3.9-3.9 0-2.1 1.7-3.9 3.9-3.9a1.9 1.9 0 1 0 0-3.8c-.6-.01-1-.41-1-1.01 0-.6.4-1 1-1 2.1 0 3.89 1.8 3.89 3.9 0 2.1-1.7 3.9-3.9 3.9-1.1 0-1.9.9-1.9 1.91zm7.69 0c0 1 .8 1.9 1.9 1.9.6 0 1 .4 1 1s-.4 1-1 1c-2.1 0-3.9-1.8-3.9-3.9 0-2.1 1.7-3.9 3.9-3.9a1.9 1.9 0 1 0 0-3.8c-.6-.01-1-.41-1-1.01 0-.6.4-1 1-1 2.1 0 3.89 1.8 3.89 3.9 0 2.1-1.7 3.9-3.9 3.9-1.1 0-1.9.9-1.9 1.91zm35.25 42.06v11.1c0 .61-.4 1.01-1 1.01h-4.1V3352c0 .6-.4 1-1 1H1174c-.6 0-1-.4-1-1v-11.11c0-.6.4-1 1-1h4.09v-9.11h-8.1c-.6 0-1-.4-1-1v-11.12c0-.6.4-1 1-1h5v-9.11h-2.5c-.6 0-1-.4-1-1v-11.12c0-.6.4-1 1-1h61.92c.6 0 1 .4 1 1v10.12h2.5c.6 0 1 .4 1 1v11.11c0 .6-.4 1-1 1h-5v9.11h8.1c.6 0 1 .4 1 1zm-68.5-23.23h59.91v-9.12h-59.92zm3.49 2v9.1h59.92v-9.1zm-6 20.22h59.93v-9.1H1171zm63.92 13.02h-59.92v9.11h59.92zm5.2-1.9v-9.11h-59.93v9.1h59.92z"/></defs><g><g opacity=".2" transform="translate(-1128 -3246)"><use fill="#ff5000" xlink:href="#2nk1a"/></g><g transform="translate(-1128 -3246)"><use fill="#ff5000" xlink:href="#2nk1b"/></g><g transform="translate(-1128 -3246)"><use fill="#fff" xlink:href="#2nk1c"/></g></g></svg>