<svg xmlns="http://www.w3.org/2000/svg" xmlns:xlink="http://www.w3.org/1999/xlink" width="153" height="153" viewBox="0 0 153 153"><defs><path id="2fiwa" d="M663.5 3247.5a75 75 0 1 1 0 150 75 75 0 0 1 0-150z"/><path id="2fiwb" d="M663.5 3260a62.5 62.5 0 1 1 0 125 62.5 62.5 0 0 1 0-125z"/><path id="2fiwc" d="M649.7 3286.7c0 1.6 1.33 2.9 2.95 2.9a1 1 0 0 1 0 2 4.93 4.93 0 0 1-4.94-4.9c0-2.7 2.21-4.9 4.94-4.9 1.62 0 2.94-1.3 2.94-2.9 0-1.6-1.32-2.9-2.94-2.9a1 1 0 0 1 0-2c2.72 0 4.94 2.2 4.94 4.9s-2.22 4.9-4.94 4.9a2.92 2.92 0 0 0-2.94 2.9zm10.28 0c0 1.6 1.32 2.9 2.95 2.9a1 1 0 0 1 0 2 4.93 4.93 0 0 1-4.94-4.9c0-2.7 2.21-4.9 4.94-4.9 1.62 0 2.94-1.3 2.94-2.9 0-1.6-1.32-2.9-2.94-2.9a1 1 0 0 1 0-2c2.72 0 4.94 2.2 4.94 4.9s-2.22 4.9-4.94 4.9a2.92 2.92 0 0 0-2.95 2.9zm29.94 3.98c5.36 7.39 8.08 17.73 8.08 30.72 0 13.18-2.72 23.57-8.08 30.86a4.14 4.14 0 0 1-5.06 1.34L620.24 3325a3.72 3.72 0 0 1-2.24-3.44c0-1.51.85-2.83 2.23-3.44l64.68-28.83a4.1 4.1 0 0 1 5 1.4zm-27.56 10.84l-8.68 3.87a4.75 4.75 0 0 0 6.08 1.93c2.23-1 3.3-3.51 2.6-5.8zm-34.26 15.27l2.05 4.9c.1.24.39.35.63.25l2.12-.9c.24-.1.36-.39.25-.63l-2.07-4.94zm-7.05 6.37l29 12.84a6.53 6.53 0 0 1 5.97-9.15 6.53 6.53 0 0 1 2.08 12.71l18.83 8.34a33.34 33.34 0 0 0 5.1-11.36 9.33 9.33 0 0 1-6.47 2.61 9.4 9.4 0 0 1 0-18.78 9.37 9.37 0 0 1 8.1 4.67c.05-1.2.09-2.4.09-3.66 0-16.56-4.97-23.81-6.8-26.36l-12.74 5.67a6.83 6.83 0 0 1-8.84 8.62 6.76 6.76 0 0 1-3.54-3.1l-18.93 8.44 2.1 4.98a2.49 2.49 0 0 1-1.32 3.25l-2.12.9a2.46 2.46 0 0 1-3.25-1.31l-2.04-4.86-5.23 2.33c-.65.29-1.04.89-1.04 1.6 0 .72.4 1.33 1.05 1.62zm54.51-.8a7.4 7.4 0 0 0 0 14.79 7.4 7.4 0 0 0 0-14.78zm-19.54 15.55a4.53 4.53 0 1 0-.02-9.06 4.53 4.53 0 0 0 .02 9.06zM696 3321.4c0-12.56-2.6-22.5-7.7-29.55a2.1 2.1 0 0 0-2.58-.74l-6.91 3.08c2.1 2.96 6.94 10.67 6.94 27.19 0 11.58-2.35 20.77-6.96 27.34l6.9 3.06c.94.44 1.99.15 2.62-.7 5.03-6.85 7.69-17.12 7.69-29.68zm-44.76-.43a6.68 6.68 0 1 1-6.67-6.68c3.68 0 6.67 3 6.67 6.68zm-2 0a4.68 4.68 0 1 0-9.35 0 4.68 4.68 0 0 0 9.35 0zm20.37-15.82a2.49 2.49 0 0 1 1.3-3.26l2.13-.9a2.48 2.48 0 0 1 3.25 1.32l3.28 7.74a2.47 2.47 0 0 1-1.31 3.25l-2.13.9a2.48 2.48 0 0 1-3.25-1.31zm1.84-.78l3.28 7.74a.47.47 0 0 0 .62.25l2.12-.9a.47.47 0 0 0 .26-.63l-3.28-7.74a.48.48 0 0 0-.63-.25l-2.12.9a.48.48 0 0 0-.25.63zm-16.5 14.36a2.49 2.49 0 0 1 1.3-3.26l7.73-3.28a2.46 2.46 0 0 1 3.25 1.31l.9 2.13a2.47 2.47 0 0 1-1.31 3.25l-7.73 3.29a2.47 2.47 0 0 1-3.24-1.32zm1.84-.79l.9 2.13c.1.24.38.36.62.25l7.73-3.28a.48.48 0 0 0 .25-.63l-.9-2.13a.47.47 0 0 0-.63-.25l-7.72 3.29a.48.48 0 0 0-.25.62z"/></defs><g><g opacity=".2" transform="translate(-587 -3246)"><use fill="#ff5000" xlink:href="#2fiwa"/></g><g transform="translate(-587 -3246)"><use fill="#ff5000" xlink:href="#2fiwb"/></g><g transform="translate(-587 -3246)"><use fill="#fff" xlink:href="#2fiwc"/></g></g></svg>