<svg xmlns="http://www.w3.org/2000/svg" xmlns:xlink="http://www.w3.org/1999/xlink" width="153" height="153" viewBox="0 0 153 153"><defs><path id="qqh8a" d="M382.5 3247.5a75 75 0 1 1 0 150 75 75 0 0 1 0-150z"/><path id="qqh8b" d="M382.5 3260a62.5 62.5 0 1 1 0 125 62.5 62.5 0 0 1 0-125z"/><path id="qqh8c" d="M353.1 3349.9v-6c0-12.7 8.28-23.9 20.26-27.7V3302c0-1.8 1.5-3.3 3.3-3.3h10.88c1.8 0 3.3 1.5 3.3 3.3v14.3A29.24 29.24 0 0 1 411 3344v6c0 .6-.4 1-1 1h-56c-.5 0-1-.4-.9-1.1zm55.9-4.7h-54v3.8h54zm-33.64-21.2c2.1-.7 4.3-1.1 6.69-1.1 2.4 0 4.69.5 6.79 1.2v-17.8h-13.48zm-4.7 19.2h22.37c-.4-5.8-5.3-10.5-11.18-10.5-6 0-10.78 4.7-11.18 10.5zm24.27.1h5.79c-.1-1.9-.4-3.8-1-5.5l-5.5 1.9c.4 1.1.6 2.3.7 3.5zm4.09-7.5c-1.2-2.6-3-4.9-5.2-6.7l-3.49 4.7c1.3 1.1 2.4 2.5 3.2 4zm-6.79-7.8c-2.7-1.7-5.79-2.8-9.18-3v5.8c2.1.2 3.99.9 5.69 1.9zm-20.37-.1l3.4 4.5c1.7-1 3.7-1.6 5.79-1.7v-5.7c-3.4.2-6.49 1.2-9.19 2.9zm-6.88 8.1l5.19 1.8c.9-1.6 2.1-3.1 3.5-4.2l-3.4-4.5a18.8 18.8 0 0 0-5.3 6.9zm-1.7 7.2h5.39c.1-1.3.3-2.5.7-3.6l-5.1-1.8c-.6 1.7-.9 3.5-1 5.4zm27.55-24.8v6.5a20.83 20.83 0 0 1 11.88 18.3h6.3a27.04 27.04 0 0 0-18.18-24.8zm-15.47-16.4v2.2h13.48v-2.2c0-.7-.6-1.3-1.3-1.3h-10.88c-.7 0-1.3.6-1.3 1.3zm-20.27 41.2h6.3c.2-8.1 4.98-15.1 11.97-18.3v-6.5a27 27 0 0 0-18.27 24.8zm19.77-53.5c0-2.1 1.7-3.9 3.9-3.9a1.9 1.9 0 1 0 0-3.8c-.6 0-1-.4-1-1s.4-1 1-1c2.09 0 3.89 1.8 3.89 3.9 0 2.1-1.7 3.9-3.9 3.9-1 0-1.9.9-1.9 1.9 0 1 .8 1.9 1.9 1.9.6 0 1 .4 1 1s-.4 1-1 1a3.9 3.9 0 0 1-3.89-3.9zm13.38-5.8c0-1-.8-1.9-1.9-1.9-.6 0-1-.4-1-1s.4-1 1-1c2.1 0 3.9 1.8 3.9 3.9 0 2.1-1.7 3.9-3.9 3.9-1 0-1.9.9-1.9 1.9 0 1 .8 1.9 1.9 1.9.6 0 1 .4 1 1s-.4 1-1 1c-2.1 0-3.9-1.8-3.9-3.9 0-2.1 1.7-3.9 3.9-3.9 1.1 0 2-.9 1.9-1.9z"/></defs><g><g opacity=".2" transform="translate(-306 -3246)"><use fill="#ff5000" xlink:href="#qqh8a"/></g><g transform="translate(-306 -3246)"><use fill="#ff5000" xlink:href="#qqh8b"/></g><g transform="translate(-306 -3246)"><use fill="#fff" xlink:href="#qqh8c"/></g></g></svg>