<svg xmlns="http://www.w3.org/2000/svg" xmlns:xlink="http://www.w3.org/1999/xlink" width="25" height="25" viewBox="0 0 25 25"><defs><path id="qvtta" d="M1393.5 116a11.5 11.5 0 1 1 0 23 11.5 11.5 0 0 1 0-23z"/><path id="qvttb" d="M1381 141v-27h25v27zm1-12.5a11.5 11.5 0 1 0 23 0 11.5 11.5 0 0 0-23 0z"/><path id="qvtte" d="M1397.78 124.53c.4-.4 1.05-.42 1.44-.03.4.4.38 1.04-.03 1.45l-4.88 4.88c-.36.36-.9.41-1.3.15a1.1 1.1 0 0 1-.2-.16l-4.88-4.88c-.4-.4-.42-1.05-.03-1.45.39-.39 1.04-.37 1.45.04l4.22 4.22z"/><filter id="qvttc" width="200%" height="200%" x="-50%" y="-50%"><feGaussianBlur in="SourceGraphic" result="FeGaussianBlur1217Out" stdDeviation="0.5 0.5"/></filter><mask id="qvttd"><use fill="#fff" xlink:href="#qvtta"/></mask></defs><g><g transform="translate(-1381 -115)"><use fill="#22a118" xlink:href="#qvtta"/><use fill-opacity=".14" stroke="#000" stroke-opacity=".14" stroke-width="0" filter="url(#qvttc)" mask="url(&quot;#qvttd&quot;)" xlink:href="#qvttb"/></g><g transform="translate(-1381 -115)"><use fill="#e6e8ee" xlink:href="#qvtte"/></g></g></svg>