<svg xmlns="http://www.w3.org/2000/svg" xmlns:xlink="http://www.w3.org/1999/xlink" width="80" height="68" viewBox="0 0 80 68"><defs><path id="382ga" d="M369.7 577.58a1.3 1.3 0 1 1 0 2.62 1.3 1.3 0 0 1 0-2.62zm2.91-6.35a1.3 1.3 0 1 1 0 2.62 1.3 1.3 0 0 1 0-2.62zm2.31 4.54a1.3 1.3 0 1 1 0 2.61 1.3 1.3 0 0 1 0-2.61zm4.92 3.12a1.3 1.3 0 1 1 0 2.62 1.3 1.3 0 0 1 0-2.62zm37.14 33.95c0 4.03-3.41 8.47-8.43 8.47h-1.5a7.3 7.3 0 0 1-7.23 6.65 7.23 7.23 0 0 1-7.23-7.06h-29a7.23 7.23 0 0 1-14.46.4h-.7a8.5 8.5 0 0 1-8.44-8.46v-2.31c0-6.05 2.71-9.47 7.43-9.47h5.62c.1-3.03 1.2-5.44 3.11-7.36 4.12-4.03 10.44-4.03 10.74-4.03h6.93v-5.44l-7.93-.6-3.01-.2c-1-.1-1.7-.81-1.9-1.72-.31-1.71-.51-5.34 2.1-10.48 2.6-5.13 5.62-7.15 7.13-7.85.9-.4 1.9-.1 2.5.6l1.91 2.32 12.75 15.41c.5.6.6 1.41.2 2.12-.3.6-1 1-1.7 1h-.1l-9.84-.7v5.24h5.92c9.44 0 14.45 9.17 15.56 11.38l7.63 1.72c1.1.3 2.2.6 3.11.8 7.43 1.82 8.83 2.32 8.83 9.57zm-31.32-30.02l-12.64-15.31c-.8.5-3.12 1.91-5.22 6.04-2.11 4.03-1.91 6.85-1.71 7.86zm-22.58-1.61l1.1.1c-.2-1.71-.1-4.64 1.91-8.67 2-4.03 4.32-5.84 5.72-6.65l-.7-.8c-1.1.4-3.82 2.11-6.22 6.85-2.41 4.74-2.11 7.96-1.81 9.17zm19.07 10.28v9.16h12.95c-1.7-2.82-6.02-8.96-12.95-9.16zm-20.58 29.21a5.2 5.2 0 0 0-5.22-5.24 5.2 5.2 0 0 0-5.22 5.24 5.2 5.2 0 0 0 5.22 5.24 5.2 5.2 0 0 0 5.22-5.24zm43.47 0c0-2.82-2.31-5.24-5.22-5.24a5.2 5.2 0 0 0-5.22 5.24 5.2 5.2 0 0 0 5.22 5.24 5.2 5.2 0 0 0 5.22-5.24zm10.04-7.86c0-5.84-.2-5.84-7.23-7.55-.9-.3-1.9-.5-3.11-.8l-7.93-1.82h-15.46c-.6 0-1-.4-1-1v-10.18h-13.26c-.2 0-5.92 0-9.33 3.42-1.7 1.71-2.61 4.03-2.61 6.85 0 .6-.4 1-1 1h-6.63c-4.52 0-5.42 4.04-5.42 7.46v2.62a6.48 6.48 0 0 0 6.42 6.45h.9a7.13 7.13 0 0 1 7.03-5.84 7.12 7.12 0 0 1 6.93 5.34h29.61a7.23 7.23 0 0 1 6.93-5.34 7.3 7.3 0 0 1 7.03 5.84h1.6c3.82 0 6.43-3.32 6.53-6.45zm-38.15-11.18c0 .6-.4 1-1 1h-16.06c-.6 0-1-.4-1-1s.4-1 1-1h16.06c.5 0 1 .4 1 1z"/></defs><g><g transform="translate(-338 -561)"><use fill="#2eb423" xlink:href="#382ga"/></g></g></svg>
