<svg xmlns="http://www.w3.org/2000/svg" xmlns:xlink="http://www.w3.org/1999/xlink" width="67" height="67" viewBox="0 0 67 67"><defs><path id="4756a" d="M824.25 562.31a31.97 31.97 0 0 1 9.36 22.65 31.98 31.98 0 0 1-54.56 22.66 31.98 31.98 0 0 1-9.36-22.66 31.98 31.98 0 0 1 31.96-32.03c8.82 0 16.81 3.58 22.6 9.38zm-22.53 20.3c.3 0 .6.05.86.16l6.67-6.34a11.26 11.26 0 0 0-4.05-2.33l.45-1.39a12.89 12.89 0 0 1 4.66 2.72l2.3-2.19a16.08 16.08 0 0 0-8.24-4.11l.25-1.44a17.47 17.47 0 0 1 9.05 4.55l2.24-2.13a20.51 20.51 0 0 0-12.16-5.66l.15-1.44c2.67.27 5.25 1.04 7.62 2.23 2.9 1.46 4.57 3 6.81 5.26l-14.36 13.62a2.44 2.44 0 1 1-4.67.64l-9.51-5.45.96-1.69 9.52 5.46c.4-.3.9-.47 1.45-.47zm-13.97-23.22l1.93 3.33-1.26.73-1.92-3.34a29.24 29.24 0 0 0-9.64 9.67l3.32 1.92-.72 1.26-3.33-1.93a29.01 29.01 0 0 0-3.5 12.48h6.41v2.91h-6.4c.22 4.5 1.46 8.74 3.5 12.47l3.32-1.92.73 1.26-3.33 1.92a29.25 29.25 0 0 0 9.64 9.67l1.92-3.34 1.26.72-1.93 3.34a28.83 28.83 0 0 0 12.45 3.5v-6.41h2.9v6.42c4.5-.23 8.72-1.47 12.45-3.51l-1.93-3.34 1.26-.72 1.92 3.34a29.25 29.25 0 0 0 9.64-9.67l-3.32-1.92.72-1.26 3.33 1.92a29.02 29.02 0 0 0 3.5-12.47h-6.41v-2.91h6.4a29.03 29.03 0 0 0-3.5-12.48l-3.32 1.93-.72-1.26 3.32-1.92a29.38 29.38 0 0 0-9.64-9.67l-1.92 3.34-1.26-.73 1.93-3.33a28.85 28.85 0 0 0-12.45-3.51v6.42h-2.9v-6.42c-4.5.22-8.72 1.47-12.45 3.5z"/></defs><g><g transform="translate(-768 -551)"><use fill="#2eb423" xlink:href="#4756a"/></g></g></svg>