<svg xmlns="http://www.w3.org/2000/svg" xmlns:xlink="http://www.w3.org/1999/xlink" width="64" height="86" viewBox="0 0 64 86"><defs><path id="xsp5a" d="M1284.5 569.23l1.5 15.3c0 .3-.2.6-.3.8-.1.2-.4.3-.7.3h-.5v40.34c0 .6-.4 1-1 1h-57c-.6 0-1-.4-1-1v-40.34h-.5c-.2 0-.5-.1-.7-.3-.2-.2-.3-.5-.3-.8l1.6-15.3c.1-.5.5-.9 1-.9h27.4v-5.53l-6.9-.5-2.7-.1c-.9-.1-1.6-.71-1.8-1.62-.3-1.5-.5-4.73 1.8-9.25 2.3-4.53 4.9-6.34 6.3-6.94.8-.4 1.7-.2 2.3.5l1.7 2.11 11.2 13.58c.5.6.5 1.31.2 2.01-.3.6-.9 1.01-1.6 1.01h-.1l-8.5-.6v5.33h27.6c.5 0 .9.4 1 .9zm-20.3-7.64l-10.9-13.18c-.9.4-2.8 1.71-4.5 5.13-1.7 3.42-1.7 5.73-1.5 6.74zm-19.6-1.41h.7c-.2-1.4-.1-4.02 1.7-7.54 1.7-3.42 3.7-5.14 5-5.84l-.5-.6c-.9.4-3.2 1.9-5.3 6.03-2.1 4.13-1.8 6.94-1.6 7.95zm38 10.16h-3.8v13.28h5.1zm-12.3 13.28v-13.28h-4.5v13.28zm-32.6 0v-13.28h-4.5v13.28zm2 0h4.5v-13.28h-4.5zm6.5 0h4.5v-13.28h-4.5zm6.5 0h4.5v-13.28h-4.5zm6.5 0h4.5v-13.28h-4.5zm13.1 0h4.5v-13.28h-4.5zm-46.1 0h5v-13.28h-3.7zm1.4 2v22.44h38.4v-22.43zm0 39.34h38.4v-14.89h-38.4zm54.9 0v-2.82H1268v2.82zm0-39.33H1268v34.5h14.5zm-12.2 21.53v-5.64c0-.6.4-1 1-1s1 .4 1 1v5.64c0 .6-.4 1-1 1a1 1 0 0 1-1-1zm-20-50.2a1.2 1.2 0 0 1 0 2.41 1.2 1.2 0 0 1-1.2-1.2c0-.67.54-1.2 1.2-1.2zm2.6-5.53a1.2 1.2 0 0 1 0 2.41 1.2 1.2 0 0 1-1.2-1.2c0-.67.54-1.21 1.2-1.21zm2 3.92a1.2 1.2 0 0 1 0 2.41 1.2 1.2 0 0 1-1.2-1.2c0-.67.54-1.2 1.2-1.2zm4.3 2.82a1.2 1.2 0 0 1 0 2.41 1.2 1.2 0 0 1-1.2-1.2c0-.67.54-1.21 1.2-1.21z"/></defs><g><g transform="translate(-1223 -542)"><use fill="#2eb423" xlink:href="#xsp5a"/></g></g></svg>