<svg xmlns="http://www.w3.org/2000/svg" xmlns:xlink="http://www.w3.org/1999/xlink" width="99" height="90" viewBox="0 0 99 90"><defs><path id="mumia" d="M1223.6 761.8a5.62 5.62 0 0 1-6.58.87l-6.45 6.44 38.8 38.7c.63.63.63 1.66 0 2.3l-5.7 5.69c-.64.63-1.67.63-2.3 0l-38.76-38.74-6.45 6.44c.43.83.67 1.74.67 2.69a5.5 5.5 0 0 1-1.66 3.95v.04l-.08.08a5.69 5.69 0 0 1-7.88-.08l-17.1-17.12a5.6 5.6 0 0 1 0-7.95 5.52 5.52 0 0 1 3.96-1.65c.95 0 1.86.23 2.69.67l20.86-20.84a5.76 5.76 0 0 1-.67-2.68 5.5 5.5 0 0 1 1.66-3.96l.08-.12a5.71 5.71 0 0 1 3.92-1.54c1.43 0 2.9.56 3.96 1.66l17.14 17.08a5.72 5.72 0 0 1 0 7.95zm-22.65-22.93l-.08.04c-.48.47-.71 1.1-.71 1.7h.04c0 .63.2 1.22.63 1.66l.04.08 17.14 17.07a2.3 2.3 0 0 0 1.7.72c.6 0 1.2-.24 1.63-.68l.08-.04a2.43 2.43 0 0 0 0-3.44l-17.1-17.07c-.48-.48-2.9-.48-3.37-.04zm-28.59 28.5a2.45 2.45 0 0 0 0 3.44l17.1 17.08a2.46 2.46 0 0 0 3.37.08l.08-.08c.48-.48.71-1.07.71-1.7 0-.63-.23-1.23-.7-1.7l-17.11-17.12a2.46 2.46 0 0 0-1.74-.71s-1.23.28-1.7.71zm21.7 13.68l13.1-13.09 7.4-7.39-14.8-14.83-20.55 20.52zm14.25-9.69l-3.44 3.44 37.65 37.56 3.4-3.4zm-14.8 39.6a5.4 5.4 0 0 1 2.37 1.43 5.49 5.49 0 0 1 1.66 3.95v4.04c0 .9-.7 1.62-1.62 1.62h-40.3a1.6 1.6 0 0 1-1.62-1.62v-4.04c0-1.54.63-2.96 1.66-3.95a5.63 5.63 0 0 1 2.37-1.42v-2.65a5.65 5.65 0 0 1 5.67-5.65h24.19a5.5 5.5 0 0 1 3.95 1.66 5.58 5.58 0 0 1 1.67 3.99zm-1.59 2.97h-32.26a2.4 2.4 0 0 0-1.7.71 2.46 2.46 0 0 0-.72 1.7v2.42h37.1v-2.42c0-.63-.28-1.26-.71-1.7a2.47 2.47 0 0 0-1.7-.7z"/></defs><g><g transform="translate(-1152 -733)"><use fill="#f6f7f7" xlink:href="#mumia"/></g></g></svg>