<svg xmlns="http://www.w3.org/2000/svg" xmlns:xlink="http://www.w3.org/1999/xlink" width="69" height="85" viewBox="0 0 69 85"><defs><path id="flw9a" d="M287 760.7v13.63h-4.26V821h-56.85v-46.68H221v-13.61h27.61c-4.9-1.97-12.22-5.75-13.63-11.17-.5-1.95-.47-4.95 2.56-8.08 3.34-3.45 6.36-3.46 8.3-2.86 4.2 1.3 6.92 6.71 8.59 11.77 1.7-5.09 4.45-10.5 8.65-11.77 1.94-.6 4.96-.57 8.26 2.87 3.01 3.14 3.04 6.14 2.53 8.1-1.36 5.3-8.3 9.07-13.2 11.14zm-27.57-6.03c4.07-1.86 8.06-4.39 8.62-6.6.08-.29.28-1.06-1.05-2.44-.3-.33-1.31-1.31-2-1.31a.6.6 0 0 0-.17.02c-1.8.55-3.94 5.18-5.4 10.33zm-10.07-.18c-1.43-5.06-3.51-9.6-5.29-10.15a.64.64 0 0 0-.18-.03c-.7 0-1.7 1-2.02 1.32-1.33 1.38-1.14 2.13-1.06 2.41.56 2.17 4.5 4.63 8.55 6.45zm-20.47 16.83V818h21.81v-43.67h-21.75v-3h21.75v-7.62H224v7.61zM279.73 818v-43.67h-20.76V818zM284 763.7h-25.02v7.61H284z"/></defs><g><g transform="translate(-219 -737)"><use fill="#f6f7f7" xlink:href="#flw9a"/></g></g></svg>