<svg xmlns="http://www.w3.org/2000/svg" xmlns:xlink="http://www.w3.org/1999/xlink" width="77" height="89" viewBox="0 0 77 89"><defs><path id="1rkpa" d="M596.92 768.4l-12.2 12a5.6 5.6 0 0 1-.88 7.15 6.03 6.03 0 0 1-8.42 0 5.8 5.8 0 0 1 0-8.29 5.83 5.83 0 0 1 7.26-.85l12.2-12zm-14.24 15.15c0-1.72-1.16-2.86-2.9-2.86-1.75 0-2.91 1.14-2.91 2.86 0 1.71 1.16 2.86 2.9 2.86 1.46 0 2.91-1.43 2.91-2.86zm34.28.29c0 20.57-16.85 37.15-37.47 37.15-20.63 0-37.48-16.58-37.48-37.15 0-8.86 2.9-16.87 8.13-23.15l-2.03-2-1.46 1.43-4.64-4.58 9-9.14 4.65 4.86-1.45 1.43 2.03 2c4.94-4 11.04-6.86 17.72-7.72v-3.43h-2.9v-8.57h17.43v8.57h-2.9v3.43a37.2 37.2 0 0 1 31.37 36.87zm-5.23-.3c0-17.42-14.23-31.43-31.95-31.43-17.73 0-31.96 14-31.96 31.44 0 17.43 14.23 31.43 31.96 31.43 17.43 0 31.95-14 31.95-31.43z"/></defs><g><g transform="translate(-541 -733)"><use fill="#f6f7f7" xlink:href="#1rkpa"/></g></g></svg>