<svg xmlns="http://www.w3.org/2000/svg" xmlns:xlink="http://www.w3.org/1999/xlink" width="26" height="25" viewBox="0 0 26 25"><defs><path id="hvmaa" d="M12.16 0a11.6 11.6 0 0 1 11.71 11.5A11.6 11.6 0 0 1 12.17 23 11.6 11.6 0 0 1 .45 11.5 11.6 11.6 0 0 1 12.16 0z"/><path id="hvmab" d="M8.9 7.52l3.1 3.05 3.1-3.05a.89.89 0 0 1 1.25 0c.34.34.34.88 0 1.22l-3.1 3.05 3.1 3.05c.34.33.34.88 0 1.22a.89.89 0 0 1-1.25 0L12 13l-3.1 3.05a.89.89 0 0 1-1.25 0 .85.85 0 0 1 0-1.22l3.1-3.05-3.1-3.05a.85.85 0 0 1 0-1.22.89.89 0 0 1 1.25 0z"/><clipPath id="hvmac"><use fill="#fff" xlink:href="#hvmaa"/></clipPath><clipPath id="hvmad"><use fill="#fff" xlink:href="#hvmab"/></clipPath></defs><g><g transform="translate(1 1)"><use fill="#fff" fill-opacity="0" stroke="#888" stroke-miterlimit="50" stroke-width="4" clip-path="url(&quot;#hvmac&quot;)" xlink:href="#hvmaa"/></g><g transform="translate(1 1)"><use fill="#fff" fill-opacity="0" stroke="#888" stroke-miterlimit="50" stroke-width="6" clip-path="url(&quot;#hvmad&quot;)" xlink:href="#hvmab"/></g></g></svg>