<svg xmlns="http://www.w3.org/2000/svg" xmlns:xlink="http://www.w3.org/1999/xlink" width="193" height="204" viewBox="0 0 193 204"><defs><path id="phmla" d="M1627.32 561.5l-.06.04c-.06.03-.17.05-.16.08l-.02-.08h0c-4.98 3.4-8.75 7.26-12.57 11.56a.34.34 0 0 1-.29.12c-.28-.03-.54-.38-.3-.65-.24.27.02.62.3.65-.29 0-.56-.37-.32-.64a81.86 81.86 0 0 1 13.15-11.6 8.39 8.39 0 0 1 .1-2.42c.04-.04.11-.06.16-.02.5.37 1.01.77 1.5 1.2.14-.02.24.09.25.23l.3.3c.1-.03.16-.07.27-.1.1-.05 0 0 0 0 .18.32.4.66.65 1.02-.3-.32-.6-.62-.92-.92-1.02.4-1.43.82-2.04 1.23-.01-.07-.14-.14-.15-.2.01.07.14.13.15.2zm-27.57 76.88c0 .02 0 .12.02.15l.06-.01c.18 0 .36.03.54.02.02 0 .04.09.06.1.12-.02.23-.09.35-.12.26-.06.51-.17.77-.26l.36-.15.14-.07a16.67 16.67 0 0 0 3.04-1.83l.11-.08.32-.27c.38-.32.74-.66 1.07-1.04l.28-.34a3.77 3.77 0 0 0 .32-.49v-.04h-.01a3.1 3.1 0 0 0-.57-.15h-.04l-.18-.03c-1.65-.14-3.37 0-5.02.12-.3.56-.57 1.12-.84 1.7-.2.44-.2.46-.4 1.02-.13.36-.24.73-.32 1.1l-.05.27-.02.24v.01l.01.15c0 .07 0 0 0 0zm0 .1zm.63 24.57l-.02.05-.01.02-.06.12.06-.12.01-.02.02-.05c-.04.09 0 0 0 0zm-.6 1.04a5.14 5.14 0 0 0 .46-.75l.1-.22v-.02-.05c.04-.1.04-.18.06-.27.01-.04.82-.07.87-.1 0-.1.79-.17.79-.26v-.03h-.79c-.01-.09-.43-.18-.46-.26 0-.02-.2 0-.2-.02-.02-.01-.12-.02-.15-.08a2.37 2.37 0 0 0-.7-.65c-.58-.4-1.07-.57-1.63-.79-1.9-.76-4.06-.86-6.08-.94-.46-.01-.46-.69 0-.7 1.04-.05 2.09-.07 3.13-.03a30.1 30.1 0 0 1 3.13.24c.37.05.75.13 1.13.23.86.24 1.67.64 2.27 1.3.61.7.82 1.45.76 2.21-.1 1.27-.92 2.54-1.81 3.47a18.5 18.5 0 0 1-6.69 4.22c-2 .78-4.8 1.5-6.77.26-1.59-1-1.84-2.83-1.57-4.55.44-2.72 2.08-5.33 3.63-7.55.8-1.13 2.6-.13 1.88 1.1a53.5 53.5 0 0 0-1.82 3.28 14.43 14.43 0 0 0-1.26 3.43l-.05.31a5.35 5.35 0 0 0-.03.79l.02.13a1.68 1.68 0 0 0 .12.45l.09.17.02.03c.05.06.1.12.17.17v.02l.04.01c.08.06.16.1.24.14l.03.02c.2.08.42-.07.63-.03l.02-.19h.03c.1 0 .23.22.34.22.27.01.53-.04.79-.06.12 0 .23.1.34.09.06-.01.12.03.18.02.3-.05.6-.08.88-.15.6-.15 1.2-.33 1.77-.55l.43-.16.07-.03h.04l.11-.06.25-.11.56-.27a13.68 13.68 0 0 0 .84-.44 20.6 20.6 0 0 0 1.8-1.14l.27-.2.23-.18c.43-.36.84-.74 1.21-1.16l.25-.28.03-.04.01-.03a.2.2 0 0 0-.02.04zm.68-1.31zm-3.5 3.73c-.26.16 0 0 0 0zm-2.84 1.48l-.18.08.18-.07.07-.03-.07.02zm-2.2.72zm-69.62-50.8l.03-.07.01-.03-.02.03-.02.07c.03-.1 0 0 0 0zm.2-.42a5.32 5.32 0 0 1 .44-.66l-.18.26c-.1.12-.17.26-.25.4l-.17.32-.01.03-.02.07-.09.3c0 .04.36.07.42.1l.02.02c-.01.08.45.16.45.25v.02c0 .08-.43.15-.4.22 0 .02-.24.01-.23.02 0 .02-.11 0-.1.03.04.07.02.13.06.2.01.01-.02.01 0 .03.06.07.1.13.18.18l.04.06.02.01c.16.12.33.22.51.31l.18.08a9.75 9.75 0 0 0 3.25.68 18.11 18.11 0 0 0 5.4-.48 10.46 10.46 0 0 0 3.62-1.52l.43-.37.22-.23.06-.07s0-.02.03-.05c.12-.15.2-.32.29-.5l.08-.26.04-.18v-.04c.02-.13.01-.26 0-.39v-.03-.03l-.06-.25a4.5 4.5 0 0 0-.94-1.66c-1.7-1.98-4.18-3.3-6.46-4.48-.29-.15-.08-.65.22-.52 1.98.82 3.95 1.73 5.7 2.98a7.7 7.7 0 0 1 2.64 2.84c.95 2.05-.32 3.9-2.04 5-2.08 1.33-4.66 1.88-7.08 2.12-2.25.23-4.8.19-6.84-.9-1.77-.95-2.3-2.78-1.53-4.6a9.1 9.1 0 0 1 2.09-2.8 30.09 30.09 0 0 1 4.55-3.54c1.26-.85 2.46 1.2 1.18 2.02a41.8 41.8 0 0 0-2.45 1.69c-.77.59-1.51 1.22-2.23 1.96a9.13 9.13 0 0 0-.78.96 5.7 5.7 0 0 0-.25.4zm106.96-42.83c.01-.05 0 0 0 0zm-.45-1.99c.62.63.69 1.13.46 1.99-.01.05 0 .09 0 .14.82-.04 1.68-.08 2.56-.1l.05-.06a9.65 9.65 0 0 0 1.92-5.85c-.07-2.93-2.29-5.52-3.72-7.6 3.04 3.28 5.11 7.74 3.17 12.07-.22.49-.43.97-.67 1.41h1.62c.4-.07.76-.15 1.12-.23-2.5-20.36-11.27-39.22-22.6-56.2a28.03 28.03 0 0 0-8.03-4.15c-.15-.04-.09-.28.07-.23 2.63.75 5.03 1.9 7.25 3.31l-2.07-3.02c-.28-.38.34-.72.61-.36 1.11 1.53 2.21 3.08 3.29 4.65 9.92 7.37 15.87 20.69 20.98 32.74 1.36 1.65 2.76 3.26 4.14 4.9-2.77-7.68-5.82-15.23-9.8-22.58a100.07 100.07 0 0 0-31.35-35.01c-2.48 1.99-5 3.94-7.56 5.82a129.22 129.22 0 0 1-8.78 5.78c-.86.52-1.74 1-2.61 1.5 5.54-2.35 10.87-5.33 16.63-6.93.13-.04.22.15.1.22a127.2 127.2 0 0 1-23.36 10.28c-.62.2-1.05-.78-.45-1.06 5.58-2.57 10.84-5.5 15.98-8.84 2.92-1.9 5.71-4 8.45-6.13.23-.18.7-.51 1.24-.9l-.4-.29-.08-.08c-10.53 6.02-21.78 10.8-32.43 16.64-.19.1-.37.1-.52.03a53 53 0 0 0-8.52 6.6c.64 3.38-.15 6.75-3.7 9.2a15.77 15.77 0 0 1-21.13-3.04.62.62 0 0 1-.06-.75c-19.52 11.64-39.4 27.28-62.11 31.73 9.26 5.07 19.01 9.55 28.98 12.97a82.28 82.28 0 0 0 12.93 3.29c-3.14-3.25-6.95-5.12-10.99-6.55-.48-.05-.95-.12-1.43-.16-.3-.02-.45-.25-.47-.48-6.87-2.2-14.15-3.63-19.67-8.75-.32-.3.02-.75.4-.67a175.08 175.08 0 0 1 22.99 6.35 12.3 12.3 0 0 1-1.62-3.2c-.53-1.58-1.28-5.14-.4-6.64 1.2-2.04 5.6-2.63 7.62-3.1 1.66-.38 2.33 2.05.7 2.55l-.25.07c4.3 3.05 5.35 8.6 3.53 13.89 2.28.9 4.56 1.84 6.82 2.82.63.27.18 1.3-.46 1.1a84.88 84.88 0 0 0-7.46-2.06c-.28.11-.6.16-.84.06l-1.3-.56c-1.8-.37-3.63-.67-5.47-.91a25.29 25.29 0 0 1 8.92 6.24c.02.03.02.06.02.1 1.01.16 2.02.32 3.03.44 4.92.6 10.45 1.39 12.9-3.28 5.54-10.53 20.03-6.47 21.26 4.73.08.64-.98.77-1.11.15-2.44-10.82-16.34-12.19-18.5-.45-.08.47-.55.88-1 1-20.4 5.1-45.17-6.82-61.3-18.46l-.08-.1c-.4.07-.78.16-1.18.22-.96.14-1.42-1.26-.41-1.51 12.24-3.06 23.26-7.95 34.06-14.43 10.54-6.32 20.5-13.98 31.86-18.84 1.22-.51 2.27 1.11 1.07 1.82l-.53.31c.14 0 .3.05.43.18 9.7 8.97 29.37 1.86 17.96-11.65-.53-.63-.57-1.72.28-2.14 7.8-3.9 15.83-7.36 23.88-10.73 7.18-3 15.7-7.06 23.69-6.47.18.01.22.25.04.31-15.42 5.35-29.97 12.02-44.86 18.63a19.06 19.06 0 0 1 2.9 6.4 53.17 53.17 0 0 1 8.34-6.43c-.19-.25-.2-.65.15-.88 11.98-7.87 25.92-12.32 38.35-19.4.3-.17.63.24.37.47-1.23 1.05-2.5 2.05-3.75 3.07 23.6 13.36 39.71 41.12 46.76 67.68a26.44 26.44 0 0 1 2.94 7.33c.27-.19.7-.17.77.2 1.2 7.56-.24 15.27-2.65 22.6-.26 8.47-1.8 17.1-2.2 25.14-.02.67-.59 1.43-1.35 1.34-4.73-.56-9.43.1-14.18.06-3.46-.03 1.9 7.78 1.78 7.62 2.15 2.77 5.85 3.97 9.08 4.78.73.18 1.15.98.96 1.69-2.34 8.65-4.49 17.34-7.6 25.76-.3.78-1.1 1.15-1.86.75-3.94-2.07-8.55-2.46-12.65-4.12-3.02-1.23.63 9.66 1.7 10.85 2.9 3.2 7.68 4 11.74 3.92.7-.02 1.25.7 1.06 1.39-1.76 6.14-3.38 12.32-5.07 18.48-.17.61-.89 1.1-1.52.86a447.96 447.96 0 0 0-34.09-11.01c1.43.39 6.33 1.73 0 0l-.36-.1c-7.92-2.17-16.07-3.47-23.95-5.8-9.85-2.9-13.11-11.5-16-20.41-4.44 4.38-7.27 9.76-10.2 15.3-.2.38-.64.41-1 .26-7.09-3.1-14.51-5.2-21.9-7.41-6.06-.2-12.44-2.22-17.43-3.97-9.77-3.43-19.02-8.67-28.75-12.36-3.09-.54-6.31-.81-9.76-.73-1.09.03-1.67-1-1.5-1.96l.11-.6-.7-.15c-.45-.09-.35-.86.1-.8.26.02.5.07.75.1 2.17-12.13 4.65-24.19 5.74-36.49.1-1.1 1.73-1.14 1.75 0 .14 12.46-2.3 24.59-4.42 36.81 11.7.13 22.6 3.78 32.32 10.06.34-.25.8-.35 1.3-.1.18.1.38.18.57.28l-.82-1.26c-1.97-.86-3.9-1.75-5.76-2.62-5.4-2.5-10.6-5.4-15.64-8.55-.13-.1-.28-.19-.42-.28l.01 2.8c.02.43-.31.64-.65.63-.34 0-.68-.2-.65-.63v-3.64a43.26 43.26 0 0 1-3.58-2.57c.13.1.26.18.39.24-.47-.33-.92-.67-1.36-1.03a.56.56 0 0 1-.22-.46c-.17-.1-.3-.3-.24-.53.4-1.61 1-2.84 1.78-3.76l.07-.28c.88-2.18 1.34-4.57 1.84-6.85.88-4.05 1.18-8.23 1.76-12.34.03-.24.42-.18.42.06v11.01c.09 2.1.16 4.21.23 6.31 9.77-.65 27.27 15.92 31.4 20.3.7.73-.4 1.82-1.11 1.1-6.23-6.23-12.75-12.23-20.21-16.98-2.52-1.6-6.62-3.94-10.07-3.74.1 2.99.15 5.98.18 8.97 6.5 4.35 13.5 8 20.69 11.1l-1.12-1.72c-.05-.05.04-.1.08-.05l1.28 1.88c2.38 1.02 4.78 1.98 7.19 2.9a92.77 92.77 0 0 0 8.6 2.72c3.32.5 6.68.87 10.02 1.48.42.07.3.68-.09.7-8.33.34-16.74-2.63-24.52-6.04l.87 1.3c6.59 3.3 13.45 5.92 20.38 8.37a22.63 22.63 0 0 0 12.92-4.28c.22-.17.44.18.28.36-2.67 3.09-6.12 4.57-9.89 5.09 2.94 1.02 5.89 2.04 8.82 3.1 2.38.85 4.76 1.63 7.18 2.38 2.76.86 3.74-4.02 4.36-5.38a32.88 32.88 0 0 1 8.32-11.32 1.32 1.32 0 0 1 2.17.57c2.97 8.73 5.36 17.38 14.85 20.5 12.17 4 25.04 5.92 37.32 9.76 3.55 1.11 7.08 2.32 10.6 3.54 3.58 1.24 8.75 5.23 10.17.26l2.7-9.43c1.17-4.04-.67-3.1-3.89-3.78-9.14-1.96-12.76-10.83-9.11-18.82.27-.6 1.11-.72 1.64-.43 4 2.24 8.7 2.51 12.88 4.24 1.61-4.63 2.98-9.32 4.25-14.07.7-2.6 1.34-5.2 2-7.8.47-1.78-2.95-2.36-4.15-2.91-5.85-2.67-8.32-8.58-7.84-14.66.06-.7.6-1.48 1.4-1.4 4.7.5 9.38-.13 14.08-.01 1.5.04 1.77-7.35 1.93-10.42-.28 1.06-.6 2.1-1.02 3.1-.18.43-.89.27-.73-.2.71-1.96 1.2-4.04 1.46-6.15a90.67 90.67 0 0 1-2.13 4.88c-.3.6-1.07.54-1.48.15-.15.3-.3.63-.47.94-.15.29-.64.24-.71-.1-1.39-6.58-2.6-13.2-3.87-19.8-.05-.27.35-.38.41-.11.8 3.58 1.58 7.16 2.36 10.75.39 1.8.77 3.59 1.13 5.4.6 2.96.73 2.52 1.98-.82 1.58-4.24 1.79-8.96 1.7-13.62a21.53 21.53 0 0 0-7.41-10.8c-.07-.05 0-.17.08-.11a21.7 21.7 0 0 1 7.28 9.09c-.05-1.82-.14-3.62-.18-5.36 0-.27.42-.27.43 0 .1 2.2.23 4.41.29 6.6.53 1.4.94 2.86 1.24 4.35.3-1.01.6-2.02.85-3.03a71.1 71.1 0 0 0-.52-12.9c-3.19.14-6.4.29-9.62.42-1 .46-2.03.81-3.1 1.09.68 4.34 1.54 8.65 2.38 12.97l.14.71c.44 1.56.74 3.16.9 4.75.2.44.24.82.1 1.14.05.63.09 1.26.1 1.88 0 .38-.56.37-.6 0-.27-2.87-.75-5.72-1.27-8.55-3-8.8-11.74-11.25-20.42-7.37-.29.13-.55-.3-.25-.43 5.34-2.55 11.02-3.37 16.06.25a13.5 13.5 0 0 1 4.16 5.08c-.64-3.44-1.25-6.88-1.6-10.36-2.42.58-4.98.68-7.59.2-.51-.1-.4-.87.09-.93-8.15.27-16.38.43-24.58.3-.94.25-1.88.49-2.81.76-.56.16-.88-.41-.74-.83-.83-.02-1.66-.07-2.5-.1-11.41 1.76-23.83 1.33-33.97-2.51-.64-.25-.74-.9-.45-1.32-2.97-.6-5.92-1.28-8.83-2.06-1.5-.41-.83-2.5.63-2.27 16.05 2.4 31.93 4.43 48.16 5.12l2.78.1c1.28-.27 2.54-.55 3.82-.9.62-.16.87.77.26.97l-.17.05 2.02.07c2.38-.43 4.78-.8 7.18-1.17a7.3 7.3 0 0 1-2.2-.58c-.54-.26-.51-1.11 0-1.38 1.86-.98 4.56-1.22 7.34-1.21a49.55 49.55 0 0 1 1.25.02c1.6.04 3.19.13 4.62.2.9.03 1.72.05 2.46.03l1.03-.03c.15-.75.34-1.52.07-1.88-.09-.11-.03-.23.05-.3h.02c.09-.06.21-.07.3.01zm-117.45 13.97l.14.08-.14-.08zm.25.17l-.02-.02c-.02 0-.05 0-.07-.02-.05-.03-.1 0-.16-.03-.07-.03-.24 0-.3-.02-.14-.04-.28.12-.42.1h0c-.07-.02-.15.34-.22.34-.4 0-.78-.43-1.18-.45-.57-.03-1.13-.23-1.7-.21-.73.03-1.45-.2-2.19-.19-.26 0-.44-.23-.47-.48-.04-.2.01-.4.22-.5.46-.2.88-.46 1.32-.68-.44.22-.86.48-1.33.68-.2.1-.25.3-.22.5-.06-.2 0-.44.22-.54.51-.22.98-.5 1.47-.73.5-.24 1.1-.33 1.64-.44h.14l.03-.02a9.3 9.3 0 0 1 2.29-.17h.09c1.32.1 2.66.53 3.38 1.71a3.26 3.26 0 0 1 .48 1.8c-.03 1.87-1.4 3.85-2.43 5.17a18.83 18.83 0 0 1-6.46 5.37c-1.09.53-2.38 1.03-3.62.92a3.6 3.6 0 0 1-3.25-2.56 4.8 4.8 0 0 1-.23-1.67c0-.57.09-1.14.17-1.69.23-1.5.72-3.07 1.45-4.42.72-1.35 0 0 0 0 .8-1.5 2.84-.76 3.06.64.02.2.02.41-.03.63-.24 1.06-.62 2.06-.85 3.12l-.12.6-.02.18c-.04.34-.06.68-.05 1.03v.06l.02.1.02.12c.02.05.04.02.05.07l.03-.12v-.02h.01c.1 0 .19-.3.29-.3.22 0 .43.2.64.15.12-.04.24.07.36.03.04-.02.1.03.15.01 1.16-.5 2.22-1.15 3.22-1.9l.14-.1.4-.31.83-.7a19.87 19.87 0 0 0 2.1-2.15l.04-.06.06-.07v-.02l.2-.26a26.12 26.12 0 0 0 .19-.27 7.76 7.76 0 0 0 .5-.87l.07-.17c.07-.19.11-.37.16-.56l-.02-.1v.02c0-.08-.05-.16-.05-.24v-.02c0-.05.04-.1.03-.15-.01-.02.03-.02.02-.03l-.07-.09-.04-.04.03.04zm-.56-.28c-.06-.02-.12.04-.17.1.05-.06.11-.12.17-.1zm46.4 18.2l-.06-.05.06.05zm-.27-.26a2.4 2.4 0 0 0 .27.25l.1.1.03.02c.07.04.32.52.41.6h.01c.15.06.3.5.44.5h.02c.1 0 .2-.36.31-.36.11 0 .16-.18.2-.18.01-.01.07-.12.21-.16.22-.04.43-.16.63-.24l.04-.04.32-.17c.47-.23.91-.53 1.33-.84l.02-.01.21-.19a11.33 11.33 0 0 0 .84-.78c.2-.2.39-.4.57-.62.24-.26.45-.54.48-.58a16.24 16.24 0 0 0 2.01-3.64c.1-.24.16-.5.24-.76.19-.7.2-.84.22-1.34a3 3 0 0 0-.47-1.94c-.39-.5-.58-.61-1.23-.9a7.03 7.03 0 0 0-1.9-.39c-2.44-.15-4.91.4-7.24 1.05-1.02.28-1.37-1.18-.43-1.55 3.18-1.23 7.14-2.59 10.54-1.4 2.3.82 3.5 2.87 3.55 5.25.09 4.7-3.58 10.08-7.9 11.85-2.89 1.19-5.74-.27-7.06-2.97a15.34 15.34 0 0 1-1.32-5.02c-.06-.57-.1-1.15-.14-1.72-.02-.33-.07-.7-.09-1.07-.02-.36 0-.73.08-1.04 0 0-.2.7 0 0 .19-.7 1-1.18 1.72-1.52-.24.11 0 0 0 0l.68-.3a6.83 6.83 0 0 1 1.39-.4c1.4-.25 2.84-.14 4.29-.28 1.37-.12 1.69 2.2.32 2.42-2.03.33-3.96.2-5.75 1.13.13 1.77.38 3.53.95 5.21.19.56.42 1.03.77 1.59.25.4.11.19.33.44zm-45.62-16.49zm-.08.17a7.14 7.14 0 0 1 .06-.13l-.06.13zm134.97-19.85a130.04 130.04 0 0 1 1.63 7.9c.06.4-.07.69-.26.92-.32.4-.83.58-1.26.37-.44-.22 0 0 0 0l-.01-.04v.04c.16.77.3 1.54.4 2.31.03 0 .06-.13.1-.13.07 0 .13.23.19.2-.2.2-.04.04 0 0-.05.18-.11-.23-.2 1.03.22 1.25.26 3.77.17 5.74l.13-.56a41.98 41.98 0 0 0 1.22-10.26 23.14 23.14 0 0 0-2.1-7.52l-.03-.08v.02l.02.06zm-17.75-2.67c1 1.83 2.36 3.5 3.64 5.16h.04c.27.05.16.47-.11.41-3.83-.67-7.5-.11-10.87 1.84-.26.15-.5-.25-.23-.4a16.05 16.05 0 0 1 10.77-1.9c-2.1-2.74-4.48-5.71-5.04-9.1v-.02c.08.29.21.61.43.98.35 1.06.8 2.07 1.37 3.03.57.95 0 0 0 0zm18.54 13.95c.24-.77.24-.23 0 0-.23.22 0 0 0 0zm-20.37-20.6zm-155.22 79.72l.03.02-.03-.02zm21.78 17.45a88.47 88.47 0 0 0-11.58-5.32c3.92 1.78 7.77 3.66 11.58 5.32 0 0 3.85 2.07 0 0zm-20.43-23c-.5 1.31-1.05 2.6-1.7 3.85.71.55 1.46 1.08 2.2 1.6.85-.84 1.45-2.67 1.87-3.97l.08-2.74c-.9.19-1.73.6-2.45 1.26 0 0 .49-1.3 0 0zm3.02-16.88c-.23 5.33-.89 10.7-2.6 15.72.63-.38 1.3-.63 2.04-.78.09-2.9.2-5.8.32-8.7 0-.03.03-.02.05-.04.05-2.09.1-4.16.19-6.2.22-5.33 0 0 0 0zm0 0zm36.69 46.5a123.4 123.4 0 0 1-9.85-3.57c.02.26-.04.5-.15.72a62.67 62.67 0 0 0 10 2.86s3.32 1.07 0 0zm130-64.3a28.6 28.6 0 0 0-.66-3.74c0 2.36-.12 4.7-.47 7 .38-1.09.78-2.17 1.13-3.26 0 0 .13 1.26 0 0zm-140.85-42.48c.01 5.2 2.26 8.53 6.74 10.85 1.86-4.68 1-9.47-2.83-12.42-1.35.43-2.66.91-3.91 1.57 0 0-.02-5.2 0 0zm-3.72 10.84c2.1.1 4.16.3 6.22.54a13.72 13.72 0 0 1-2.04-1.78 166.46 166.46 0 0 0-18.91-5.78c-7.4-1.77 3.81 3.65 4.84 4.04 3.06 1.15 6.3 1.9 9.44 2.83l.45.15s-2.1-.1 0 0zm100.46-69.41c1.73-1.24 3.11-2.28-.43-.24l.43.24s-1.74 1.24 0 0zm37.67 80.94c0 .07-.03.12-.06.16a16.4 16.4 0 0 0 3.08-2.28c-.97-.14-2.03-.19-3.12-.17.03.76.09 1.53.1 2.29 0 0 0-.07 0 0zm-.77-2.27a64 64 0 0 0-4.4.35c-.53.33-1.2.42-2.05.22a47.4 47.4 0 0 1-3 .26c-1.79.08-4.25.51-6.73.79l-7.76 1.36c7.63.17 15.27.25 22.9.41.55-.25 1.07-.57 1.6-.88-.15.02-.3-.05-.32-.24-.06-.76-.16-1.51-.24-2.27 0 0 1.46-.05 0 0zm8.33.15c.48 1.16.87 2.33 1.23 3.5l.38.02c-.15-1.63-.41-3.26-.84-4.92-.1-.41.18-.69.5-.75-1.8-5.35-3.54-10.66-5.4-15.92-1.26-1.55-2.58-3.09-3.89-4.63a222.8 222.8 0 0 0 4.35 9.82c.31.64-.64 1.2-.95.56-1.91-3.94-3.75-8.46-5.7-13.15-2.82-3.46-5.4-7.02-7.04-10.95-.14-.35.48-.61.62-.26a40.51 40.51 0 0 0 5.37 8.7c-4.42-10.47-9.6-21.38-17.58-28.3 10.95 16.2 19.79 34.74 21.2 54.29 1.28-.36 2.1-.8 1.7-1.37-.07-.08.06-.18.13-.1l.5.6c.03.05.03.09 0 .13-.26.55-.85.97-1.62 1.31 1.12.13 2.2.34 3.19.7a18.5 18.5 0 0 0 3.13-4.67c.14-.31.68-.08.55.23a19.5 19.5 0 0 1-2.89 4.8c.3.14.6.25.88.43.23.14.08.56-.19.45-.36-.14-.77-.23-1.17-.33a19.39 19.39 0 0 1-3.49 3.1c2.2.06 4.42.1 6.62.17a48.23 48.23 0 0 0-.57-3.04c-.13-.56.73-.99.98-.42-.04-.07-.47-1.1 0 0zm-15.17-3.63zm-3.86 2.22c-1.4-.06-2.96-.15-4.53-.2 1.57.05 3.12.14 4.53.2zm-25.57-9.66c-.11-6.07 5.39-10.37 10.7-11.84.66-.19 1.13.18 1.33.67 4-.63 7.1 3.07 7.59 6.99.8 6.6-4.42 10.84-10.53 11.68-4.97.68-9-2.44-9.1-7.5 0 0 .12 6.06 0 0zm2.46-1.22v.02c-.91 3.92 1.92 6.6 5.69 6.58 4.91-.03 9.65-3.35 9.83-8.45.12-3.4-2.25-7.5-5.85-7.56-.02.44-.27.86-.81 1.02-4.19 1.23-7.85 3.98-8.86 8.4.05-.25.87-3.78 0 0zm-6.84-45.6c1.26-.91 2.58 1.02 1.6 2.07-2.63 2.85-3.63 6.01-2.76 9.82.66 2.83 2.8 6.17 5.94 6.5 4.75.49 6.9-5.75 5.96-9.4-.7-2.72-3.47-6.96-6.51-7.4-.55-.08-.36-.87.12-.9 4.3-.39 7.67 4.95 8.7 8.43 1.46 4.85-1.93 11.24-7.2 11.86-4.58.54-7.77-3.27-9.36-7.1-2-4.83-.74-10.77 3.51-13.88zm-26.27 44.14c-10.3-2.48-2.94-14.12 4.81-16.35a8.16 8.16 0 0 0-.38-.64c-.32-.47.42-1.04.78-.6.26.3.5.64.73.98l.28-.04c.9-.11 1.78-.1 2.64.1 1.1.24 1.18 2.1 0 2.3-.53.08-1.03.18-1.52.28 2.8 6.67 2.02 16.22-7.34 13.97zm1.44-2.07c6.66 1.74 6.23-6.32 4.5-11.58-2.43.65-4.54 1.7-6.53 3.75-3.17 3.27-2.45 6.66 2.03 7.83 0 0-6.66-1.73 0 0zm-33.96-16.83c2.6 4.77 2.33 11.2-3.57 13.35-6.65 2.43-11.68-3.22-12.97-9.24-.14-.68.1-1.3.68-1.67 4.37-2.8 9.73-4.73 14.95-3.91l.11.02c-.36-.66-.59-1.09 0 0 .75.18.95.84.8 1.45zm-5.02 11.01c4.78-1.06 4.84-6.13 3.3-9.82-4.22.38-8.01 1.19-11.7 3.25 1.1 3.88 3.87 7.57 8.4 6.57zm-65.78 34.08c3.27-8.26 3.62-18.28 1.22-26.82-.08-.3.35-.4.45-.12 3.3 8.67 3.2 16.8 1.85 25.65 8.7 0 16.55 5.55 18.07 14.57 1.65 9.7-7.6 12.16-15.03 9.13-1.75-.71-1.11-3.49.8-2.92 6.55 1.94 12.52.65 10.5-7.35-1.84-7.33-9.32-10.67-16.27-10.06h-.01c-1 .08-1.95-1.13-1.58-2.08zm144.89 5.89c4.11-.6 8.96.47 9.63 5.27.8 5.68-5.55 9.9-10 11.7-3.81 1.56-8 .43-9.03-3.82-1.1-4.48 1.63-9.46 5.3-11.85 1-.64 2 .79 1.23 1.6-2.09 2.23-3.9 4.94-4.16 8.06-.3 3.54 2.2 4.8 5.37 3.96 3.9-1.03 8.08-4.16 9.2-8.15 1.24-4.41-4.18-6.04-7.45-6.07-.39 0-.5-.64-.1-.7zm-11.83 39.4c.51-1 1.1-1.92 1.75-2.83.84-1.16 2.62-.17 1.94 1.13l-.33.63a12.28 12.28 0 0 1 4.73-1.11c1.16.01 2.35.38 2.76 1.57.32.92-.2 2.02-.75 2.73a13.76 13.76 0 0 1-2.79 2.64c-1.82 1.35-4.27 2.79-6.63 2.42-1.3-.2-1.99-1.37-2.09-2.58-.12-1.57.73-3.25 1.41-4.6 0 0-.5 1 0 0zm2.75 28.7zm-1.21.98zm-5 3.92zm-.86.4zm-3.16.92h-.12.12zm-25.4-41.96c1.44-.76 2.71 1.4 1.27 2.19-2.86 1.58-5.66 4-4.8 7.59.64 2.69 3.42 4.71 6.07 5.04 4.07.5 7.4-3.77 6.6-7.61-.79-3.8-5.05-6.78-8.62-7.52-.49-.1-.38-.93.12-.88 4.74.47 9.46 3.75 10.65 8.5 1.22 4.85-3.13 9.59-7.76 10.03-3.81.36-7.83-2.51-9.2-5.96v-.01c-2-5 1.4-9.1 5.67-11.37zm-7.45-21.49c-.06-.05-.18-.25-.28-.4.1.15.22.35.28.4zm-.4-.6l-.05-.02.04.03zm-1.4-10.86zm-9.96-17.7c2.82 5.06 2.63 10.8-3.33 13.14-5.68 2.23-12.65-.54-16.2-5.12-.6-.8.65-1.6 1.33-1.01 3.55 3.09 8.39 5.27 13.17 4.52 5.94-.93 5.85-6.6 4.19-11.17-.18-.5.6-.8.84-.35.26.45 0 0 0 0zm-23.79 42.04c-.04-.02-.19-.04-.3-.06l.3.06zm-20.12-23.06zm9.19-8.54zm-3.83-2.48zm3.88 3.74c-.07.17 0 .02 0 0zm-11.39 49.83c-.64.4-1.42-.57-.82-1.06 3.18-2.63 7.2-4.31 11.15-2.32 4.4 2.22 4.33 8.12 3.43 12.19-.14.58-.82 1.18-1.46 1.1-3.19-.43-6.9-1.3-8.84-4.15-1.57-2.32-1.36-4.94-.3-7.32-1.13.4-2.2.97-3.1 1.52zm6.48-2.13c-.03.13-.05.26-.11.4-.95 1.91-1.75 4.19-.22 6.02 1.18 1.4 3.15 2 5 2.38.53-2.84.51-6.17-2.04-7.97a4.78 4.78 0 0 0-2.63-.83zm103.6 47.92h-.01c-4.99-.2-.12 0 0 0-.5-.02-.5-.8 0-.78 4.93.14 9.65-.9 14-3.19-.23-1.37-.71-2.7-1.22-3.71-.08-.15.13-.26.21-.13.56.9 1.17 2.2 1.54 3.56l.07-.03c.28-.16.53.26.25.43l-.2.1c.5 2.17.34 4.42-1.6 5.5-.32.17-.7-.28-.4-.54 1.33-1.11 1.62-2.86 1.42-4.62a25.67 25.67 0 0 1-14.07 3.41zm-44.3-10.98c-.56-.2-.3-1.1.25-.9 14.7 5.29 30.04 10.56 45.88 9.54.14 0 .14.2 0 .22-15.86 1.25-31.3-3.78-46.12-8.86-14.82-5.07 0 0 0 0zm-77.07-94.57c.37.16.21.78-.18.62a60.91 60.91 0 0 0-12.9-3.61c-.1-.02-.13-.08-.18-.12l-.22 1.29c-.35 2.14.17 5.78-1.63 7.28-.62.52-1.53.87-2.14.17-.78-.88.23-2.26-.13-3.28-.28-.8.98-1.33 1.37-.59l.13-.98c.55-3.8 1.57-7.52 2.32-11.28.18-.87 1.6-.48 1.36.31-.14 1.4-.35 2.8-.57 4.18 0 .8.05 1.57.08 2.3 4.36.8 8.6 2 12.69 3.7 4.09 1.73 0 0 0 0zm-3.96-22.45c5.23-1.47 9.46-4.51 12.9-8.69.17-.22.54.07.39.3a23.98 23.98 0 0 1-12.91 9.76c-.88.28-1.27-1.13-.38-1.37.9-.25 0 0 0 0z"/></defs><g><g opacity=".5" transform="translate(-1459 -492)"><use fill="#fff" xlink:href="#phmla"/></g></g></svg>