<svg xmlns="http://www.w3.org/2000/svg" xmlns:xlink="http://www.w3.org/1999/xlink" width="201" height="176" viewBox="0 0 201 176"><defs><path id="j1s7a" d="M1534.62 348.7c.2-.2.47-.5.57-.52l.06-.05c.18.16.37.23.56.27a39.34 39.34 0 0 0 1.85-.7l-.1.05c-.22.09-.44.2-.67.27-.38.33-.74.45-1.08.38-.4.14-.81.28-1.22.4-.02 0-.04-.01-.03-.03l.02-.01.05-.05zm5.63-2.14a35.36 35.36 0 0 1-.01 0h.01l.02-.01.02-.01.11-.06-.06.03-.09.05zm-16.55-9.9c2 .06 4.12.46 6.23.72h.02c.53.06 1.06.13 1.58.16.9-.98 1.92-2.05 2.97-2.84-3.05-.08-6.09-.6-9.16-.3-.35.02-.35-.55 0-.6.66-.1 1.33-.25 2-.37-.26-.04-.4-.4-.14-.56 1.58-1 3.23-1.16 5.02-1.53.24-.05.4.18.34.36 2.17-.3 4.4-.35 5.58.46a63.27 63.27 0 0 1 3.38-1.76 72 72 0 0 1-8.36-.43c-.4-.06-.32-.6-.03-.72.85-.37 1.7-.7 2.57-1 .41-.13.6.49.2.65l-1.25.52c2.6.32 5.21.4 7.83.52 1.74-.83 3.53-1.65 5.34-2.52-2.01-.03-4.02-.09-6.04-.14-1.26-.03-3.67.73-4.01-1.06-.03-.14 0-.29.13-.37.4-.25.84-.22 1.25-.5.24-.17.56.2.33.4-.36.3-.34.3-.79.45.62.37 1.29.51 2 .4l2.13.1c1.92.1 3.83.23 5.74.33 1.86-.93 3.63-2 5.36-3.14-4.61-.18-9.22.37-13.86.42.25 0 0 0 0 0 4.64-.05 9.24-.6 13.86-.42-4.62-.17-9.22.37-13.86.42-.18 0-.32-.15-.33-.31 0-.06.01-.12.05-.17a164.32 164.32 0 0 1-20.02 11.16c.82 1.03 1.67 2.04 2.53 3.04 2.5-.07 5-.34 7.5-.62-2.12-.26-4.26-.62-6.25-.67.05-.01.1-.05.16-.09.06-.03 0 0 0 0zm-.52.16c.07.04.26-.08.36-.08-.11.03-.27.13-.36.08-.09-.05 0 0 0 0zm50.4-47.8c5.6-8.59 8.75-19.57 15.8-27.12 1.57-1.7 4-3.4 6.41-5.24a69.1 69.1 0 0 0 2.67-3.26c.04-.05.1-.04.13 0 .03.03.05.08.01.13-.63.85-1.3 1.67-1.96 2.48 1.27-1 2.52-2.03 3.6-3.13.26-1.27.17-2.61-.42-4.07-5.75-3.32-11.93-5.8-17.79-8.93l-3.01-.54a14.73 14.73 0 0 1-3.49 7.83c-3.96 4.75-11.23 9.48-8.5 16.62.26.68-.75 1.12-1.12.53-2.78-4.39-.27-8.65 2.56-12.33 1.69-2.2 3.8-4.06 5.67-6.1 2.24-2.47 2.77-5.36 3.49-8.5a.7.7 0 0 1 .5-.52 219.2 219.2 0 0 1-20.31-8.74c-4.3 2.4-9.23 2.5-13.82 4.06-4.05 1.37-6.07 5.08-7.77 8.7a63.68 63.68 0 0 0-3.11 7.63c1.42-2.74 3.45-5.2 5.48-7.55.2-.23.55.1.35.33-2.49 2.8-4.98 5.74-6.4 9.17a27.6 27.6 0 0 0-.87 5.5c.94 2.52 2.3 4.87 4.13 6.83-.09-.44-.15-.9-.17-1.34l.01-.05a11.86 11.86 0 0 1-1.22-6.86c.82-8.17 10.01-2.7 13.9-.64 3.89 2.07 15.07 2.84 13.6 8.97 2.9 3.59-9.32 6-11.56 5.97-5.53-.11-10.93-2.12-13.83-6.04.08.33.18.66.28.99.7.64 1.45 1.25 2.27 1.77.12.08.02.27-.1.2-.7-.43-1.35-.92-1.98-1.44 2.18 5.79 8.75 9.87 14.4 11.37 3.86 1.03 7.9.23 10.03-3.35.28-.48 0-.8-.56-1.05-1.23.7-2.68 1.13-4.22 1.32-1.85 1.35-4.41 1.26-6.6.06-.25-.13-.05-.5.2-.38 1.81.94 3.87 1.18 5.52.4-5.25.34-11.4-1.79-14.49-4.7-.23-.22.03-.53.3-.42 4.1 1.72 8.28 2.2 12.52 2.45-.4-.11-.8-.26-1.23-.44-.11-.04-.02-.21.1-.17 5.1 2.07 8.7-.69 11.4-4.58.15-.23.46-.1.43.17a7.9 7.9 0 0 1-2.72 5.46l.32.03c.2.01.42.18.34.41-4.47 12.88-24.2 2.82-26.82-7.52a19.18 19.18 0 0 1-4.26-6.24c.2 8.44 8.06 14.82 14.95 18.4 8.01 4.15 20.62 1.06 18.63-9.94-.11-.67.8-1 1.04-.33 2.48 7.5-3.91 12.66-10.77 13.56-8.3 1.1-17.22-6.22-21.9-12.34-2.96-3.86-3.66-8.42-3.1-13.02-.03-.15-.08-.3-.1-.45-.03-.14.09-.22.2-.22.85-5.89 3.68-11.82 6.42-16.5 3.92-6.65 12.53-6.65 19.23-8.94-1.75-.87-3.39-1.71-5.1-2.61a84.86 84.86 0 0 0-14.4-5.97l1.09-1.9c6.55 2.31 12.56 4.99 18.73 8.19-1.15-.6-14.88-7.72 0 0l.08.04c15.65 8.12 32.43 13.35 49.53 17.33 1.41.33 3.18.76 5.05 1.31.14-.13.29-.25.47-.38.24-.18.57.21.34.41l-.16.17c1.12.34 2.25.73 3.37 1.17.33-.07.66-.16.97-.27.05-.02.08.05.04.08-.23.12-.47.23-.71.32 1.63.65 3.2 1.43 4.54 2.34.9.6 1.7 1.26 2.35 2a6.85 6.85 0 0 1 1.82 3.75c6.6-5.59 21.5-.27 20.81 9.21-.25 3.5-1.83 7.04-2.82 10.37-.38 1.27-.8 2.52-1.26 3.77a82.8 82.8 0 0 1-3.15 7.29 105.26 105.26 0 0 1-7.34 12.87c.14.55.26 1.1.35 1.66.03.15-.14.2-.25.15a.16.16 0 0 1-.08-.1c-.12-.38-.27-.74-.4-1.11a172.68 172.68 0 0 1-12.62 16.32c-15.07 17.5-32.93 32.4-50.2 47.64-5.28 4.65-9.68 9.15-17 6.31a30.75 30.75 0 0 1-4.48-2.19c-4.6-2.72-9.03-6.99-8.25-12.11-10.69-5.98-18.58-15.85-25.38-25.82-7.31-10.73-13.05-22.24-18.47-34.18l1.3-2.25c3.93 9.96 9.17 20.1 15.02 29.67 1.48 1.8 2.82 3.6 4.39 5.3l.31.34a15.88 15.88 0 0 0 4.07 3.1l.57.26c.12.1.23.17.34.23-3.87-1.5-6.5-4.96-9.11-8.2l.91 1.51c2.4 3.78 4.96 7.47 7.73 11a.4.4 0 0 1 .16-.14c9.17-4.92 18.2-10.35 26.57-16.61 10.66-7.98 20.23-17.31 27.58-28.61zm-50.51-44.45l.09.02c.08.01 0 .11-.07.1-.22-.02-.5-.09-.73-.13l-.64-.08c-2.48-.3-4.97-.6-7.44-.95-.12-.02-.07-.18.04-.17a664.26 664.26 0 0 1 7.7 1.02l1.01.14c.03 0 .04.03.04.05zm-8.71 13.09c-.97 1.67-1.54 3.61-2.8 5.14.16.02.36.17.34.38-.3 2.76-2.4 4.43-4.22 6.06l1.12-1.95c.78-1.35 2.18-2.42 2.53-4.16-.1.13-.26.23-.35.38l.43-.74c.14-.72.07-.35 0 0l2.95-5.11c-.97 1.67-1.6 3.59-2.85 5.12 1.26-1.53 1.88-3.45 2.85-5.12.96-1.68 0 0 0 0zm-5.57 61.73zm108.72-5.62c-15.07 17.5-32.93 32.4-50.2 47.65-3.1 2.72-5.88 5.38-9.14 6.56 3.26-1.18 6.05-3.84 9.13-6.56l.17-.15c17.23-15.19 35.02-30.05 50.04-47.5zm-82.24-26.97a20.04 20.04 0 0 1-1.25 18.23c-2.77 4.49-7.47 7.47-12.23 9.88a.61.61 0 0 1-.29.3c-.42.21-.83.36-1.23.46-1.13.54-2.25 1.07-3.35 1.57-.43.2-.86-.4-.42-.65l1.6-.9c-3.33-.8-5.76-5.55-7.57-11.48-.7-.9-1.39-1.8-1.98-2.74-.11-.18.16-.34.27-.17.42.63.9 1.27 1.42 1.91-1.15-4.03-2.03-8.5-2.72-12.61l-.31-.54c-.14-.2-.02-.4.15-.48-.88-5.42-1.42-10.06-1.81-11.9-.08-.36 0-.8.35-.98 11.14-5.94 24.22-1.54 29.37 10.1 0 0-2.57-5.82 0 0zm-17.87 26.57c1.04.75 2.18.96 3.43.4a.61.61 0 0 1 .53 0 56.37 56.37 0 0 0 4-2.68 36.31 36.31 0 0 1-7.96 2.28s-1.05-.75 0 0zm-1.7-2.56c.2.46.38.93.51 1.41.13.15.25.32.38.45.84-.38 1.66-.8 2.46-1.24-.19-.17-.25-.52.03-.72l1.32-1.01c0-.33.35-.59 1.03-.79 3.17-2.44 6.29-4.95 9.48-7.37 3.45-2.62-.63-.25-1.83.53-1.2.78-2.28 1.7-3.4 2.6-.15.21-.3.32-.45.36-.46.36-.92.7-1.4 1.03-.25.17-.54-.01-.61-.25a17.78 17.78 0 0 1-7.51 5s-.2-.46 0 0zm13.19-6.43s.83-.7 0 0zm-18.54-8.41c.84 3.99 1.86 7.97 3.1 11.17.27.35.52.7.77 1.06a60.7 60.7 0 0 0-3.87-12.23s-.84-4 0 0zm-2.38-14c.42 2.86 1 6.76 1.76 10.84.7 1.3 1.34 2.63 1.89 4 .04-.27.22-.5.47-.6 3.43-1.3 7.27.52 8.73 3.85.3.7-.76 1.12-1.16.54l-.33-.45c-1.8 2.25-5.95-.78-7.45-2.68a61.94 61.94 0 0 1 3.1 11.95c.08.12.17.24.24.37 6.22-2.94 10.44-8.23 11.2-14.77-.07-.74-.17-1.48-.27-2.2-.04-.23.23-.3.39-.2 0-.74-.04-1.5-.14-2.27-1.25-9.85-10.54-11.95-18.43-8.37 0 0-.43-2.86 0 0zm5.55 15.28c1.3 1.39 3.63 3.16 5 1.93-1.35-1.44-2.98-2.32-5-1.93 0 0-1.3-1.38 0 0zm20.76-7.72c-1.46-5.58-5.73-9.94-10.85-12.33a18.4 18.4 0 0 0-8.06-1.49c-1.02.01-8.24 1.18-8.03 2.27.13.66.3 1.8.52 3.26 7.43-3.45 15.45-2.85 18.88 4.63 1.11 1 2.21 2.04 3.19 3.15 1.93 2.21 3.34 4.72 3.27 7.9 0 .15-.24.15-.24 0 0-2.89-1.25-5.2-2.98-7.24a32.64 32.64 0 0 0-2.83-2.87c.22.58.41 1.2.58 1.86 1.4 5.52-.08 11.37-3.4 15.8 4.23-4.28 6.1-9.18 3.94-15.28-.07-.2.23-.29.31-.1 1.96 4.42 1.6 8.61-.8 12.74a7 7 0 0 1-.53.75c1.97-1.47 3.85-2.57 6.35-3.02.32-.05.5.31.24.5l-1.82 1.43.36-.25c.28-.18.63.23.38.46-4.4 4.01-8.89 7.75-14.14 10.6 1.18-.34 2.34-.69 3.5-1.1 2.28-.79 7.42-2.38 7.46-5.5 0-.25.4-.35.47-.08.1.46.09.89 0 1.3 4.04-4.42 6.17-9.94 4.23-17.39zm-4.47-1.16c-.27-3.28-2.68-5.38-5.33-7-.03-.03 0-.08.03-.06 2.67 1.63 5.1 3.77 5.36 7.06 0 .04-.06.04-.06 0zm-14.71 3.88c1.07-2.24 3.12-3.18 5.55-2.66 1.13.25 2.02.55 1.99 1.81-.02.73-.42.86-.86 1a.36.36 0 0 1-.2.27c-2.06 1.02-4.09 1.4-6.24.38-.3-.14-.38-.52-.24-.8zm1.39.01c1.17.42 2.31.36 3.46.02 0-.13.05-.28.18-.41.2-.2.38-.36.64-.46.28-.11.42-.1.48-.2-1.84-.77-3.63-.58-4.76 1.05 0 0-1.17-.42 0 0zm.27-6.88c.06.5.1 1.18-.14 1.62a.67.67 0 0 1-.43.31 4.69 4.69 0 0 1-2.54 3.25c-.57.27-1.27 0-1.31-.7a6.72 6.72 0 0 1 .34-3.02c.43-1.03 1.22-1.86 1.98-2.66.25-.26.71-.38 1.04-.17.53.34.98.72 1.06 1.37 0 0-.06-.5 0 0zm-1.72.95c-.26.3-.5.62-.68.96-.16.29-.23.6-.28.91.47-.49.75-1.09.97-1.76a.66.66 0 0 1-.01-.11s.25-.3 0 0zm28.6-45.35c-.43-.12-.81-.59-.66-1.06 2.47-7.6 11.57-8.06 18.25-6.54 3.88.88 11.53 4.57 9.51 9.29.84 3.04-3.84 4.37-6.54 4.5-2.34.12-4.31-.9-6.16-2.22-2.82-2.02-4.88-3.65-8.65-3.57-2 .05-3.68.17-5.6-.36.04.01.06.02 0 0l-.15-.04zm1.5-1.85c-.43.78 4.06.54 4.18.53 1.54-.09 2.94.1 4.43.51 2.04.56 3.8 2.3 5.4 3.58 1.95 1.58 7.78 2.91 9.8.6-.36-.18-.6-.6-.38-1.03 4.43-8.27-14.18-9.45-18.5-8.16a8.21 8.21 0 0 0-4.93 3.97s.43-.78 0 0zm-.89 8.2l-.13-.13c-.43-.43-.24-1.03.28-1.26l.34-.14c5.09-1.98 9.96.6 13.7 4.23.37.36.28.78 0 1.03l.88-.13c.33-.07.62.4.27.58-5.21 2.83-11.5-.38-15.34-4.18zm13.3 3.82c-.04-.01-.07-.02-.1-.05-3.64-2.67-6.95-5.4-11.43-4.14 3.27 2.98 7.17 4.52 11.53 4.2zm-1.96 7.9c.25.73.03 1.67-.02 2.43a.8.8 0 0 1-1.6.05c-.1-.75-.4-1.67-.21-2.4v-.02c.23-.9 1.53-.95 1.83-.05zm-8.42.97c.24-.28.38-.58.54-.9.17-.36.11-.74.23-1.1.13-.39.42-.69.86-.7.49-.02.96.38.96.89 0 .63-.36 1.2-.76 1.67-.36.43-.85.66-1.37.86-.43.17-.73-.4-.46-.72.28-.32 0 0 0 0zm-5.47-2.56v-.06c.08-.37.03-.12 0 0 .1-.5.24-.97.28-1.48.02-.27-.03-.57.03-.83.06-.25.2-.49.3-.72.25-.62 1.09-.37 1.3.12.26.66.22 1.13.03 1.8a5.4 5.4 0 0 1-.83 1.76c-.42.56-1.22-.01-1.11-.59zm21.8-17.01c.59-.57 1.74.14 1.23.87a10.37 10.37 0 0 1-2.88 2.83c-1.3.85-2.42-1.35-.92-1.96l.03-.02c.95-.4 1.81-1 2.54-1.72zm-6.08-.48c-.44-.4-.33-1.11-.37-1.64-.03-.39.56-.6.74-.23l.07.14c.27-.6.42-1.3.72-1.97.51-1.14 2.4-.42 2.05.78-.18.6-.42 1.16-.7 1.72a3.07 3.07 0 0 1-1 1.3h-.01c-.48.29-1.08.3-1.5-.1zm-5.05-3.69c.12.2.23.4.28.63.1.47.18.94.3 1.4.12.5-.54 1.08-.94.6-.45-.54-1.07-1.07-1.23-1.78-.13-.54-.07-1.34.57-1.52a.82.82 0 0 1 1 .64l.02.03c0 .01 0 0 0 0zm13.69 69.06l-1.14.86c2.97.06 5.93-.04 8.9-.13.28 0 .28.4.01.43-3.93.58-7.8 1.27-11.55 2.48 3.4-.42 6.83-.46 10.29-.5.05 0 .06.07 0 .08-4.44.27-8.88.48-13.24 1.48-.37.09-.52-.41-.18-.57a41.11 41.11 0 0 1 10.01-2.74c-1.72.08-3.44.13-5.16.1-.32 0-.47-.42-.2-.6l2-1.3c.26-.16.5.23.26.41-.25.18 0 0 0 0zm11.37-2.16h.01c.14.04.1.24-.05.22-3.6-.7-7.05-.66-10.56.4-.27.08-.48-.32-.21-.46.9-.46 1.76-.97 2.68-1.4.26-.12.5.25.24.38-.36.18-.71.38-1.07.58 2.86-.54 5.74-.39 8.61.21-2.36-2.2-5.4-2.74-8.54-2.13-.1.02-.2 0-.26-.1-.22-.3-.26-.29-.23-.6.02-.08.08-.13.15-.16.3-.12.85-.21 1.04-.3.2-.1.38.18.19.3-.5.27-.93.37.06.24a10.6 10.6 0 0 1 3.12.12 8.66 8.66 0 0 1 4.82 2.7zm2.61-6.46c-3.65.05-7.16 1.2-10.79 1.27-.24 0-.24-.33-.01-.37 3.55-.53 7.2-1.1 10.8-.94.03 0 .03.04 0 .04zm-3.2-5.8c2.55-.63 5.1-1.1 7.78-1.05.35 0 .41.47.1.6-3.34 1.37-6.99 2.44-10.1 4.32 2-.1 4.5-.2 5.55 1.02.18.2-.01.48-.27.38-2.08-.84-4.95-.22-7.14-.25-.58 0-.73-.68-.32-1.01 2.87-2.34 6.52-3.27 10.02-4.36-2.54.22-5 .83-7.49 1.5-.37.1-.57-.37-.27-.59a19.64 19.64 0 0 1 4.91-2.54c-.89.24-1.77.48-2.67.7-.47.13-.67-.53-.22-.71a35.77 35.77 0 0 1 7.26-2c.19-.03.27.17.24.32.56-.1 1.12-.2 1.69-.27.3-.04.36.43.09.52l-.08.02c-3.09 1.01-6.25 1.83-9.08 3.4zm14.77-11.88c-3.59.07-7.11.32-10.58 1.29-.27.07-.39-.32-.13-.41.9-.33 1.81-.55 2.73-.8.13-.04.21.1.17.2l.9-.14c2.28-.3 4.6-.29 6.9-.27h.01c.08 0 .09.12 0 .13zm1.31-2.1c-3.15-.33-6.18.46-9.32.5-.45 0-.47-.67-.03-.7 3.14-.17 6.32-.84 9.44-.16.24.05.14.38-.09.36-.22-.03 0 0 0 0zm5.38-6.49a25.85 25.85 0 0 1-6.12 3.16c.73-.08 1.44-.1 2.1-.05.29.02.41.43.1.52-2.78.78-5.66 1.15-8.42 2.02-.59.18-.81-.65-.29-.89 3.6-1.6 7.55-2.5 10.95-4.52-4.2.6-8.18 1.98-12.3 2.98-.32.07-.58-.37-.26-.54 2.1-1.1 4.2-2.14 6.43-2.96.22-.08.32.26.1.35a40.73 40.73 0 0 0-3.92 1.83 67.01 67.01 0 0 1 11.42-2.55c.38-.04.47.46.2.65-.25.2 0 0 0 0zm-27.98 54.01zm-46.72 12.18c.17-.04.35-.15.55-.27-.78-.16-1.55-.34-2.32-.52l-.02.3c-.06-.02-.09.3-.11.3h-.02s.05-.66.17-.66c2.3-.04 4.58-.4 6.88-.37.02.02.03.04-.01.05-1.3.03-2.58.57-3.88.62-.22.01-.46.15-.69.28 1.64.36 3.27.67 4.93.9-1.83-.25-3.64-.56-5.38-.62h-.1c-.04 0 0 0 0 0zm5.48.63zm-5.79-.65l.3.02c-.1.03-.2.04-.3-.02zm6.47-1.3l-.45.02.45-.09zm78.6-89.06c-.45-.05-.5-.72-.03-.72l1.7.02a82.29 82.29 0 0 0-4.88-1.19 8.18 8.18 0 0 1-.84 5.25c.94-.53 1.92-.96 2.94-1.36 1.23-.48 2.5-.87 3.75-1.3.77-.27.72-.52.4-.82-1.02.14-2.06.21-3.04.12 0 0 .44.04 0 0zm13.04 10.85c2.23-4.23-.5-7.16-4.83-9.23-4.57 3.66-7.15 8.85-9.81 14 3.65-1.16 6.78-3.37 9.84-5.63.23-.17.45.2.23.37-3.23 2.6-6.54 5.15-10.56 6.41-.04.02-.08.01-.12.02a53.02 53.02 0 0 1-4.66 7.68c-1.8 2.37-4 4.36-5.76 6.82a56.2 56.2 0 0 0-3.98 6.75c.16-.17.34-.34.55-.53.3-.27.78.16.47.44-2.82 2.63 1.78-.07 2.33-.39 1.35-.8 2.65-1.72 3.94-2.62 2.93-2.05 5.8-4.15 8.92-5.9.27-.15.52.25.26.4-5.83 3.36-10.79 8.08-16.92 10.95-.26.12-.64-.05-.55-.4l.01-.03c-2.42 4.77-4.6 9.74-7.81 14.04-.5.67-1.03 1.3-1.57 1.93.03 0 .05-.02.08-.03 1.06-.43 2.08-.9 3.08-1.44 1.35-.7 2.62-1.51 3.9-2.32 2.89-1.83 5.69-3.74 8.77-5.25.07-.03.15.08.07.12-4.08 2.03-7.71 4.77-11.61 7.1-.57.33-3.2 1.98-4.84 2.48a73.58 73.58 0 0 1-6.4 6.23c5.2-.1 10.03-4.04 14.47-6.29.13-.06.25.12.12.19-4.25 2.22-9.8 7-15.02 6.48-1.68 1.48-3.39 2.94-5.05 4.44-2.7 2.44-5.44 4.82-8.28 7.08l.16.2c.04.04-.04.09-.07.04l-.17-.17-1.87 1.45c5.2-1.18 9.9-3.66 14.9-5.4.06-.02.08.06.03.08-5.1 1.79-9.88 4.36-15.2 5.52-.55.41-1.1.83-1.67 1.23.42.06.84.11 1.26.19.08.02.05.14-.03.13-.48-.08-.96-.12-1.44-.17-.77.55-1.54 1.08-2.34 1.6-.8.53-1.61 1-2.44 1.47l.58.01c.12 0 .13.15.04.2 8.74-2.94 17.4-6.07 26.1-9.15 8.89-7.8 17.35-16.06 24.7-25.38a106.1 106.1 0 0 0 18.22-34.73.94.94 0 0 1-.04-.98c-.11.21-2.15 4.1 0 0v-.01zm-74.7 73.07c.24.01.26.38.02.36l-1.74-.07c-1.9.84-3.81 1.66-5.7 2.56l-.36.19.06.3c.01.1-.16.11-.17 0-.02-.08-.06-.13-.08-.2-.53.27-1.05.55-1.54.85h.28c.17-.02.18.24.01.25l-.75.04c-3.78 2.4-6.44 5.65-8.38 9.96.94.89 1.9 1.75 2.9 2.59 1.79 1.5 3.7 2.85 5.69 4.08.56.35 1.15.34 1.73.13 1.43-.54 2.83-2.36 3.86-3.25 4.05-3.44 8.17-6.8 12.3-10.14l7.01-5.68c-8.47 1.25-16.07 5.27-24.1 7.98-.1.03-.15-.11-.05-.14 8.11-2.73 15.8-6.79 24.35-8a741.4 741.4 0 0 0 10.01-8.24c-.27.06-.55.14-.82.25.29-.13.6-.23.9-.32a370.9 370.9 0 0 0 6.32-5.42c-9.9 3.55-19.78 7.18-29.77 10.5-.96.46-1.92.91-2.9 1.35l.92.07s-.23-.02 0 0zm9.76 36.66c3.17-.55 5.94-3.61 8.22-5.63l10.08-8.9c12.77-11.24 25.48-22.54 37.12-34.95 1.36-1.44 2.7-2.92 4.01-4.4-.13-1.35-.77-2.4-1.66-3.58-.2-.27.16-.65.44-.48a4.07 4.07 0 0 1 1.9 3.29c2.78-3.19 5.48-6.46 8.03-9.84a7.21 7.21 0 0 0-1.89-1.9c-.25-.17-.05-.57.22-.41.85.5 1.5 1.17 1.9 2 1.57-2.1 3.08-4.22 4.52-6.4-.42-.87-.9-1.74-1.37-2.6-.25-.44.37-.83.65-.41.5.7.88 1.47 1.2 2.26 1.52-2.31 2.96-4.67 4.3-7.09-.58-.77-1.22-1.5-1.94-2.16-.22-.2.1-.53.3-.33.71.66 1.3 1.4 1.8 2.2 1.66-3 3.19-6.08 4.54-9.25 1.5-3.52 2.52-7.18 3.66-10.83.97-3.1 2.05-6.3.24-9.33-3.27-5.47-14.3-8.01-18.51-2.78a9.45 9.45 0 0 1-1 2.76.93.93 0 0 1-1 .51 94.06 94.06 0 0 1-1.52 4.75 16.83 16.83 0 0 1 6.37-.93c.2 0 .22.3.02.3-2.2-.05-4.34.28-6.43.93-.03.02-.05 0-.07 0a101.16 101.16 0 0 1-10.47 21.3c2.5-.73 5.11-.81 7.72-.65.32.02.34.5.02.5a27.7 27.7 0 0 0-8.33 1.03 142.93 142.93 0 0 1-16.89 20.82c3.46-.84 7.01-1.02 10.28.74.08.04.01.18-.08.13-3.49-1.79-7-1.23-10.6-.45-1.4 1.43-2.8 2.85-4.24 4.24 3.56.9 7.19 1.45 10.82 1.9.18.03.15.34-.03.33-3.71-.3-7.37-.77-10.99-1.65a.27.27 0 0 1-.2-.18c-4.21 4.07-8.61 8-13.1 11.86h.12c.07 0 .06.1 0 .08l-.18-.03c-10.48 9.02-21.46 17.62-31.81 26.52 5.32 1.86 9.69 5.3 14.6 7.99.03.01.01.05-.01.04-5.03-2.62-9.48-6.03-14.93-7.74a460 460 0 0 0-3.42 2.98c-.07.06-.14.11-.22.15-.05 6.87 11.5 14.38 17.8 13.3zm-26.27-33.95c.24-.04.32.38.08.42-.57.1-1.12.23-1.68.35 2.13.08 4.26.38 6.4.49.9-.65 1.85-1.26 2.85-1.83-2.35-1.12-8.23.48-10.1 1.02l2.45-.45s-.24.04 0 0zm.73 4.92c-2.38.38-4.75.83-7.15 1.12.48.19.95.36 1.45.5.43.13 1.53.47 2.37.6l-.18-.15c-.2-.2.03-.54.28-.4.47.24 1 .25 1.42.57.06.04.1.1.12.16a18.8 18.8 0 0 1 1.7-2.4s2.38-.38 0 0zm-2.06 3.05c-.71.3-1.87-.03-2.58-.12-.65-.08-1.3-.24-1.95-.43a79.85 79.85 0 0 0 3.24 3.35c.38-1.02.82-1.93 1.29-2.8 0 0 .71-.3 0 0zm20.7-12.55l2.8-.93-1.03.02c-.58.32-1.18.61-1.77.9 0 0-.93.31 0 0zm-9.78-4.49zm2.43-1c-2.3 1.17.75.85 1.67.84 1.73-.04 3.44-.12 5.17-.16 1.76-.05 3.5 0 5.23.14 1.63-1.09 3.2-2.27 4.74-3.48-2.13-.6-5.15.1-7.05.2-1.66.1-3.32.2-4.99.24-.46.03-.48-.67-.03-.71 2-.2 4.02-.13 6.02-.15 1.8-.01 4.39-.47 6.27.25 2.1-1.66 4.13-3.39 6.12-5.14 5.27-4.64 11.12-9.14 15.53-14.63 3.91-4.87 6.37-10.84 9.2-16.37 2.78-5.43 6.3-9.64 10.18-14.25 1.81-2.15 3.25-5.05 4.67-8.08a24.2 24.2 0 0 1-5.08 2.71c1.13-.15 2.27-.27 3.43-.31.26-.01.28.39.01.4-2.51.2-4.96.66-7.38 1.29-2.07.64-4.17 1.23-6.2 1.94-.45.16-.9.32-1.34.5-.48.17-.7-.57-.24-.76 3.45-1.39 7.07-2.24 10.59-3.45 1.23-.42 2.4-.94 3.57-1.52.19-.09 2.15-.82 1.45-.78-2.65.17-5.29 1-7.83 1.7-.48.14-.66-.52-.23-.7 2-.88 3.9-1.95 5.86-2.9.28-.14.55.25.26.42-.93.55-1.86 1.1-2.8 1.63 1.93-.45 3.86-.8 5.87-.93.17-.02.28.08.32.2 2.55-5.42 5.12-11.16 9.8-13.78-.86-.35-1.77-.66-2.68-.96l.31.22c.21.14.2.43-.05.52-2.96 1.15-6.26 2-8.83 3.92.98-.11 1.96-.1 3-.16.27-.02.45.3.33.54a10.67 10.67 0 0 1-5 4.81c1.29.46 2.56.93 3.9 1.2.37.06.23.58-.12.54l-.3-.05c-3.1.48-5.94 1.72-8.84 2.88-.31.12-.56-.28-.42-.52-.53.55-1.07 1.08-1.59 1.6-.24.24-.61-.1-.38-.35 1.7-1.82 3.67-3.71 4.89-5.83 0 0 1.22-1.04 0 0-1.23 1.05-2.49 2.02-3.63 2.92a40.85 40.85 0 0 0-4.71 4.3 57.11 57.11 0 0 0-3.21 4.17c-.04.07-.11.08-.18.07-.61.9-1.22 1.85-1.81 2.86 2.95-1.26 6-2.29 8.99-3.45.22-.08.33.27.11.35-1.5.61-3 1.19-4.49 1.79 2.86-.9 5.74-1.71 8.79-1.53.17 0 .2.28 0 .28-4.69-.08-8.94 2.12-13.4 3.21a.29.29 0 0 1-.32-.1c-2.48 4.3-4.67 8.76-7.04 13.12 3.99-.95 7.83-2.26 11.97-2.3.1 0 .12.15.03.19-1.74.73-3.51 1.36-5.27 2.04-1.27.5-2.51 1.07-3.73 1.7-.14.07-.27.11-.4.16l.1-.02c2.05-.33 5.38-1.1 7.28.22.08.05.01.19-.07.13-2.1-1.33-6.17-.16-8.37.32-.23.04-.42-.27-.19-.4a30.14 30.14 0 0 1 4.52-2.06c1.04-.4 2.08-.76 3.12-1.14.35-.12 2.28-.95 2.1-.95-2.3 0-4.66.84-6.85 1.48l-2.45.69c-.62.2-1.24.36-1.9.46a.2.2 0 0 1-.15-.05c-.79 1.44-1.6 2.87-2.44 4.28-5.52 9.2-12.94 17.45-21.36 24.67 3.09-1.36 6.44-1.89 9.67-2.81.16-.05.24.2.08.24-1.65.54-3.32.93-5 1.35-1.2.3-3.05 1.16-3.97 1.22 4-.28 7.97-1.06 11.81-2.17.12-.03.18.16.06.2a60.4 60.4 0 0 1-12.75 2.42c-.14.01-.2-.1-.18-.21-1.06.9-2.13 1.8-3.22 2.67 2.27-.64 4.53-1.3 6.76-2.09.4-.14.6.49.2.64a82.8 82.8 0 0 1-5.34 1.88c3.13.65 6.55.42 9.68.43.14 0 .15.2 0 .21-3.77.28-7.69.9-11.42-.19-.25-.07-.35-.33-.3-.55-2.7 2.14-5.47 4.19-8.31 6.13a.3.3 0 0 1 .04 0c.25.03.41.36.14.5zm54.19-62.8a54.36 54.36 0 0 0 0 0zm2.17-1.09c.18-.09.34-.02.45.1a31.27 31.27 0 0 1 5.46-1.46c-1.24-.28-2.45-.67-3.68-1.02a.44.44 0 0 1-.04-.85 10.01 10.01 0 0 0 5.34-4.2c-1.13.1-2.19.15-3.3.44-.74.93-1.59 1.8-2.49 2.63-.76 1.97-2.27 3.75-3.89 5.42.71-.36 1.43-.72 2.15-1.06 0 0-.18.08 0 0zm-19.52-21.73c.06.1.1.21.1.35a16 16 0 0 1-.11 1.66l2.8.5c-.08-.2.12-.45.35-.33l1.18.6c1.66.3 3.31.61 4.96.98 1.78.39 5.05.86 6.22 2.52.03.04-.04.09-.07.05-1.43-1.95-5.63-2.28-7.8-2.74-.94-.2-1.88-.4-2.83-.57 2.72 1.35 5.59 2.56 8.4 3.89a.24.24 0 0 1 .25-.03c2.83 1.3 6.94 3.65 10 1.9.15-.08.3.14.14.24-1.66 1.14-3.6 1.01-5.51.44.87.51 1.72 1.06 2.54 1.64.05-.05.16-.08.2 0l.1.21.64.46c.12.09-.02.28-.15.2l-.25-.13c.5 1.13.67 2.2.61 3.23 2.2-2.4 3.54-5.08 2.76-8.22-2.05-.42-3.81-.73-4.96-1a166.54 166.54 0 0 1-19.57-5.85s-.05-.1 0 0zm-41.84 24.44c1.7 2.78 5.29 4.15 8.24 4.98 2 .57 12.66 1.26 14.88-1.82-.3-.18-.5-.55-.3-.96.24-.53.38-1.02.44-1.47l-.09-.23c-.06-.13.01-.29.13-.34-.1-4.08-7.76-4.65-10.89-5.93-3.57-1.47-6.99-4.47-11.01-4.4-4.43.07-2.7 8.04-1.4 10.17 0 0-1.7-2.78 0 0zm20.62 9.16c-1.44-.08-2.8-.05-3.1-.06-2.46-.08-4.86-.29-7.28-.7-1.53-.27-3.23-.61-4.56-1.45 1.4 1 3.09 1.66 4.7 2.19a20 20 0 0 0 9.7.76c.2-.22.37-.47.54-.74l.35.02v.03c-.11.2-.23.4-.36.57.24-.05.47-.09.7-.15.33-.08.64-.2.94-.32a18 18 0 0 0-1.28-.13c.26.01.48.03 0 0l-.35-.02zm2.8-.43a8.44 8.44 0 0 0 2.84-2.93c2.1-3.55-.96.32-1.61.8a10.15 10.15 0 0 1-4.06 1.98c.94.04 1.89.09 2.83.15 0 0-1.16.71 0 0zm-30.66 67.01h.03-.03zm-16.33-12.12zm15.07 10.15l.01-.02-.01-.03.6-.02a5.39 5.39 0 0 1-.46.07h-.12-.02c-.01 0 0 0 0 0zm15.87 25.1a15.8 15.8 0 0 1-5.72-6.7c-.07-.17.16-.32.24-.16 2.63 5.13 7.22 7.7 12.4 9.7.1.03.05.18-.04.18-.9-.03-1.79 0-2.69 0-.05 0-.05-.08 0-.09.5 0 1.53-.2 2-.09-.68-.17-1.37-.4-2-.67a26.53 26.53 0 0 1-4.19-2.17c-1.33-.86 0 0 0 0zm-3.36-7.76c4.2 2.67 8.73 5.34 13.84 5.37.12 0 .14.19 0 .2-5.07.06-9.89-2.47-14.04-5.2-.21-.15-.03-.51.2-.37.22.14 0 0 0 0zm5.46-5.31c4.62.34 9.5 1.12 13.24 4.04.09.06-.02.21-.11.15-4-2.77-8.57-2.88-13.18-3.7-.27-.06-.23-.52.05-.5.28.03 0 0 0 0zm18.86.27c.04.07-.07.13-.11.07-3.29-4.53-9.47-2.34-14.02-4.31-.33-.15-.11-.73.23-.6h.04c4.6 1.72 10.86.12 13.86 4.84zm-7.63-8.61c4.35.1 10.83-.5 13.22 4.08.05.07-.06.14-.1.07-2.58-4.34-8.83-3.4-13.1-3.65-.32-.03-.35-.51-.02-.5.32 0 0 0 0 0zm4.97-3.78c4.15.65 8.17 1.74 11.7 4.1.06.05 0 .16-.07.12-3.6-2.24-7.62-3.1-11.74-3.73-.32-.05-.2-.54.1-.49.32.05 0 0 0 0zm14.38-1.82c.14.09.03.3-.13.23-2.58-1.2-5.39-1.53-8.04-2.5-.27-.1-.18-.53.1-.44l.09.03c2.66.88 5.54 1.22 7.98 2.68zm-2.5-6.62c4.45-.24 8.8-.25 13.1 1.16.17.06.11.35-.08.3-4.27-1.3-8.6-1.16-13-.81-.41.03-.44-.63-.02-.65.41-.03 0 0 0 0zm15.88-1.77c.12.07.02.26-.1.19-4-2.37-8.55-2.39-13.05-2.3-.28 0-.3-.42-.02-.44h.09c4.45-.24 9.2.14 13.08 2.55zm-6.9-8.6c3.61.13 11.24-1 11.83 4.18.02.15-.2.14-.21.01-.84-4.78-8.14-3.37-11.6-3.65-.34-.02-.38-.55-.03-.54.35.02 0 0 0 0zm18.84-16.4a9.45 9.45 0 0 1 7.33 2.01c.04.03 0 .07-.04.05a9.79 9.79 0 0 0-7.28-1.81c-.15.02-.16-.22 0-.24.14-.02 0 0 0 0zm1.94-4.44c2.74-.84 5.52-.96 8.07.51.12.07.03.26-.1.19-2.51-1.4-5.2-1.24-7.86-.37-.21.07-.32-.26-.1-.33.2-.06 0 0 0 0zm1.94-5.21c3.16-.91 6.35-1.38 9.5-.14.08.03.02.16-.06.14-3.1-1-6.25-.44-9.28.51-.33.1-.5-.42-.16-.51.33-.1 0 0 0 0zm10.34-12.6a11.03 11.03 0 0 1 6.57-.89c.21.04.13.35-.07.32-2.18-.34-4.33.04-6.3 1a.24.24 0 0 1-.2-.44c.3-.14 0 0 0 0zm-.61-1.51c-.44.18-.78-.54-.36-.76a15.39 15.39 0 0 1 8.1-1.7c.4.03.45.64.02.66h-.11a23 23 0 0 0-7.65 1.8zm7.65-1.8c-.13 0-.07 0 0 0zm-4.52-4.85a44.15 44.15 0 0 1 7.98-1.63c.34-.03.35.47.03.52a52.58 52.58 0 0 0-7.78 1.81c-.46.13-.68-.57-.23-.7.46-.13 0 0 0 0zm5.28-11.84h.02c.45-.2.1-.05 0 0 1.9-.8 3.9-1.01 5.93-.77.36.05.27.57-.05.6-1.92.16-3.77.54-5.61 1.08-.6.17-.85-.68-.3-.91zm3.37-2.98c1.76-1.27 4.27-2.2 6.18-.68.23.18-.04.52-.29.4-1.79-.93-3.88.08-5.36 1.12-.52.37-1.05-.46-.53-.84.5-.37 0 0 0 0zm10.15 9.74c1.33.28 2.3 1.14 2.47 2.52.04.35-.53.44-.61.1-.27-1-1.09-1.53-2.06-1.74-.57-.12-.37-1 .2-.88zm-3.27 7.63c.85.88 1.61 1.84 2.3 2.85.12.2-.18.4-.32.2a19.6 19.6 0 0 0-2.26-2.75c-.19-.2.1-.5.28-.3zm-.44 7.9l.04.03a3.3 3.3 0 0 1 1.5 2.28c.03.13-.2.17-.23.04a2.95 2.95 0 0 0-1.52-1.95c-.26-.14-.03-.56.21-.4zm-27.27 39.2c-.41.14-.94-.26-.68-.76.24-.44.78-.97 1.28-.5.39.35.41.96.45 1.44.05.54-.82.7-.95.16a7.39 7.39 0 0 0-.1-.35c-.03-.1 0 0 0 0zm-70.46 27.52c-1.2.5-2.42.97-3.68 1.38-.1.03-.15-.13-.05-.17 1.41-.44 2.79-.96 4.14-1.52 3.88-2.98 8.62-4.84 13.21-6.37.05-.02.07.05.02.07-4.56 2.07-8.88 4.6-13.49 6.54-.53.42-1.05.85-1.56 1.3a25.64 25.64 0 0 1 1.41-1.23zm8.23-4.06c1.42-.73 2.84-1.47 4.3-2.13.53-.27.32-.21-.65.17-.95.33-1.88.7-2.8 1.06-3 1.19-5.93 2.66-8.52 4.58 2.62-1.1 5.14-2.38 7.67-3.68zm-4.5 3.67s-.33.17 0 0zm4.14-2.44a35.65 35.65 0 0 1-3.18 1.96l-.88.44c1.4-.71 2.75-1.5 4.06-2.4zm-6.17 3.37l-.72.3.72-.3zm8.11-4.76c-.01 0 0 0 0 0zm-10.68 5.75c.2.04 0 0 0 0-.35-.06 0 0 0 0zm-.57-.27l.04-.03a.25.25 0 0 1-.04.03zm15.47-9.13c-6.63 2.5-13.05 5.5-19.93 7.26-.23.05-.34-.3-.11-.35 6.89-1.73 13.32-4.7 19.96-7.15.16-.06.24.19.08.24-.16.06 0 0 0 0zm15.44-10.75c-11.45 3.9-22.6 8.63-34.2 12.05-.04 0-.06-.06-.02-.07 11.6-3.41 22.76-8.13 34.2-12.02.03-.01.04.03.02.04-.03 0 0 0 0 0zm-22.92 5.15a53.3 53.3 0 0 1-2.42.82c.8-.28 1.6-.6 2.4-.88.04-.02.06.05.02.06zm-5.22 1.57c-.03 0-.03-.05 0-.06 1.73-.73 3.43-1.56 5.17-2.28.03-.01.04.03.02.04-1.62.67-3.2 1.44-4.8 2.14.2-.1.58-.11.87-.15-.41.1-.81.24-1.24.3h-.02zm1.26-.31l.46-.12-.29.1h-.02c-.04 0-.1 0-.15.02zm.46-.12zm28.84-18.6c-.08.04-.17-.08-.08-.13 5.8-3.09 11.8-5.74 17.75-8.51.02 0 .03.01.02.02-5.93 2.8-11.92 5.5-17.69 8.62-5.77 3.12 0 0 0 0zm36.36-30.16c-5.82 3.46-11.25 7.73-17.64 10.13-.24.1-.35-.28-.12-.37 6.33-2.56 11.8-6.5 17.68-9.88.08-.05.17.08.08.12-.08.05 0 0 0 0zm-8.3 2.31c-2.12 1.43-5.4 3.9-8.18 3.46-.23-.04-.19-.4.04-.4 3.53-.11 6.76-2.56 9.58-4.45 3.24-2.17 6.3-4.6 9.44-6.91.07-.06.15.07.08.13-3.63 2.76-7.18 5.62-10.96 8.17-3.8 2.56 0 0 0 0zm4.2-10.32l.03-.03c.77-.44.17-.1 0 0 1.48-.86 2.85-1.93 4.2-2.98 2.76-2.15 5.4-4.36 8.49-6.04.12-.07.23.11.11.18-5.74 3.32-10.02 8.87-16.28 11.3-.27.11-.52-.22-.39-.46.46-.85.9-1.38 1.66-1.98.25-.2.6.22.35.42-2.18 1.9.88.14 1.82-.41zm2.44-4.69c-3.73 2.17-.07.04 0 0-.33.2-4.46 2.31-3.34.47.1-.17.35-.04.27.14-.3.69 2.05-.6 2.4-.78 1.44-.75 2.83-1.6 4.22-2.43 2.48-1.5 4.9-3.09 7.35-4.64.08-.05.16.07.08.13-3.62 2.43-7.2 4.92-10.98 7.11zm-82.26 56.1c-.1-.1-.16-.17-.2-.24-2.16-.57-4.01-2.03-5.47-3.92-.08-.1.09-.2.16-.1a10.38 10.38 0 0 0 5.19 3.82l-.14-.32c-.04-.1.1-.14.14-.05.08.18.16.32.24.44 1.03.27 2.14.32 3.3.1.1-.01.14.13.05.15-1.13.21-2.2.18-3.21-.05.36.48.63.65.2 1.5a.07.07 0 0 1-.08.04 9.94 9.94 0 0 1-.83-.24 1.3 1.3 0 0 1-.62-.23s.7.2.64.22c.38 0 .6-.38.63-1.12.04-.76 0 0 0 0zm1.75-.83c-6-3.1-10.18-8-14.3-13.21-.05-.07.06-.13.11-.07 4.16 5.17 8.26 10.06 14.23 13.2.05.03.01.11-.04.08-.05-.02 0 0 0 0zm-12.29-19.1c0 .03-.03.05-.04.02-2.88-5.54-3.88-11.93-5.91-17.8-.07-.2.23-.29.3-.1 2.27 5.85 3.36 12.04 5.65 17.89 2.29 5.85 0 0 0 0zm42.94-28.79c-8.3 3.7-14.6-4.31-18.04-10.93-.15-.28.27-.55.42-.27 3.36 6.4 9.37 14.4 17.53 10.92.18-.08.27.2.09.28-.18.08 0 0 0 0zm-24.27-16.04c5.48 8.88 13.6 21.06 25.67 16.48.12-.05.17.13.06.18-12.2 5.06-20.72-7.23-26.25-16.33-.21-.35.31-.68.52-.33.22.34 0 0 0 0zm47.8 11.41c.07-.1.24-.02.18.1-1.95 3.48-4.07 6.86-6.02 10.35-.1.2-.42.03-.3-.16 1.99-3.47 4.15-6.83 6.15-10.29 1.99-3.46 0 0 0 0zM1564 294.32c.07-.08.2.03.12.12a24.43 24.43 0 0 1-6.3 5.3c-.1.06-.21-.1-.1-.17a24.3 24.3 0 0 0 6.28-5.25zm-23.13 17.4c4.37-2.33 8.75-4.63 12.7-7.66.08-.07.18.08.09.14-3.94 3.03-8.3 5.39-12.7 7.67-.1.05-.2-.1-.1-.15.1-.05 0 0 0 0zm2.9-.08c.07-.04.14.07.07.11-5.5 3.2-11.07 6.25-17.02 8.55-.08.03-.11-.1-.04-.12 5.94-2.3 11.5-5.35 16.99-8.54 5.48-3.19 0 0 0 0zm-2.04 2.3l-1.38 1.5c-.01 0-.03-.01-.02-.02l1.38-1.5c.01 0 .03.01.02.02zm5.49-19.48c.83 1.33 1.47 2.82 1.3 4.35-.31 2.73-2.25 4.67-4.18 6.45-.1.09-.26-.05-.16-.15 1.63-1.53 3.2-3.14 3.88-5.32.53-1.7-.1-3.4-.97-4.91l-.26.85c-.02.08-.14.05-.12-.03.08-.34.19-.66.29-.99-.38-.63-.8-1.23-1.19-1.78-.1-.15.13-.3.24-.15.35.47.72.98 1.06 1.52.54-1.6 1.27-3.1 2.23-4.5.07-.1.24-.01.17.09-1 1.42-1.75 2.95-2.3 4.57-.54 1.63 0 0 0 0zm23.87-22.02c3.34-4.1 2.7-9.82 5.9-13.96.07-.1.24.02.17.12-2.98 4.26-2.62 9.87-6 13.91-.04.06-.12-.02-.07-.07.04-.05 0 0 0 0zm-51.75-16.13a12.52 12.52 0 0 0 1.71 9.23c.07.09-.08.18-.14.09a12.29 12.29 0 0 1-1.93-9.4c.04-.24.4-.16.36.08-.04.23 0 0 0 0zm6.22-6.77c.01.93 0 .06 0 0 0 .21-.32.22-.33.02l-.18-2.89c-.02-.29.45-.3.45-.01a1986.17 1986.17 0 0 0 .06 2.88zm12.37 32.24a119.7 119.7 0 0 0-8.94-9.78c-.26-.26.11-.66.38-.42a71.5 71.5 0 0 1 9.2 9.8c.3.38-.34.77-.64.4zm17.8 5.52c2.68-1.41 5.16-3.09 7.72-4.67.3-.18.55.24.28.43-2.4 1.8-5.1 3.25-7.8 4.55-.21.1-.41-.2-.2-.31.21-.12 0 0 0 0zm24.16-24.75c3.65-3.1 6.6-6.99 10.54-9.75.28-.2.55.24.28.44-3.83 2.88-6.54 6.98-10.4 9.81-.3.21-.7-.26-.42-.5.28-.23 0 0 0 0zm-2.4-9.9c2.41-1.77 4.91-3.68 7.8-4.59.12-.03.18.15.06.19-2.94 1-5.07 3.13-7.72 4.62-.15.08-.28-.12-.15-.22.14-.1 0 0 0 0zm-79.25-42.99a171 171 0 0 1-13.4-3.9v.02c1.16.52 2.33 1.1 3.48 1.7.09.05.02.18-.07.14a59.92 59.92 0 0 0-3.55-1.54c-2.44 6.07-7.34 11.6-13 15.4.05.03.1.07.14.13 5.22-2.22 10.3-5.46 11.94-11.1.1-.36.69-.23.59.15-1.64 6.25-7.62 10.44-13.67 12.36a115.1 115.1 0 0 0-4.71 3.77c6.92 1.4 12.46-6.2 16.02-11.18.09-.13.31.03.23.16-3.4 5.28-8.8 13.17-15.91 12.18 1.79 3.12 3.56 6.24 5.28 9.39 14.18-6.73 33.53-8.24 41.16 8.32 2.1 4.55 2.4 8.52 1.43 11.9l-3.38 5.85a20.49 20.49 0 0 1-3.56 3.06 17.27 17.27 0 0 1-4.75 3.5c2.35-.56 4.53-1.43 6.13-2.78l-1.12 1.95c-3.45 2.02-8.35 2.74-12.4 3-1.33.15-2.67.2-4.02.15a.6.6 0 0 1-.54-.38c-1.1.09-2.18.14-3.24.13l1.48 3.89c.1-.04.23-.02.28.1.47 1.11.97 2.2 1.5 3.28a18.36 18.36 0 0 0-2.9-6.4c-.18-.26.02-.72.36-.7 3.43.3 6.81.47 10.17 1.3.13.03.08.22-.06.2-3.03-.43-6.12-.45-9.19-.56 1.33 1.92 2.3 4 2.75 6.31.1.49-.4.78-.73.67a59.86 59.86 0 0 0 2 3.67c.13.21-.2.42-.33.2a56.35 56.35 0 0 1-2.6-4.8 382.8 382.8 0 0 0 4.82 11.88l-1.3 2.24-1.35-3.06c-6.1-14.06-10.4-28.7-17.28-42.44a356.88 356.88 0 0 0-12.23-22.04l-.4.11c-.13.04-.19-.16-.06-.2l.33-.14c-4.97-8.4-10.05-16.74-14.7-25.32-.31-.58-.14-1.48.6-1.64 7.05-1.57 14.23-.9 21.38.69a76.69 76.69 0 0 1 15.04 3.72c.26-.64.5-1.27.72-1.92.1-.3.54-.2.48.12-.11.7-.28 1.39-.46 2.08 1.5.56 2.98 1.18 4.43 1.85 2.92.9 5.82 1.73 8.66 2.4 9.71 2.3 19.56 3.95 29.25 6.35 3.32.83 6.55 1.81 9.71 2.91l-1.1 1.9c-12.45-4.06-25.6-6.08-38.35-9.03 0 0 4.35 1 0 0zm-12.5 58.06l1.42 3.87c6.38-.76 12.74-1.98 18.4-5.1a16 16 0 0 0 4.61-7.14c.18-.55 1.04-.37.89.21a16.07 16.07 0 0 1-1.89 4.42 13.14 13.14 0 0 0 3.95-6.8l-.36.78c-.02.05-.1 0-.07-.05.23-.5.42-1 .58-1.49.53-3 .13-6.27-1.01-9.52-3.09-5.7-10.1-9.93-16.3-10.32-.54-.03-.6-.84-.03-.86 5.38-.2 11 2.83 14.55 7.22a18.05 18.05 0 0 0-12.22-8.94c.43.14.86.3 1.3.47.15.07.03.29-.12.23-7.73-3.05-14.54.15-21.34 3.74-.28.15-.55-.26-.27-.42 3.59-2.07 7.37-3.82 11.28-4.54-5.95.5-12.05 2.32-17.21 4.39 5.24 9.63 10.06 19.47 13.84 29.85zm-21.04-42.6l.52.9c.98-.8 1.98-1.59 3-2.34-.06 0-.1.02-.16.03h-.15a31.13 31.13 0 0 1-3.2 1.4s-.18-.3 0 0zm18.99-19.43c-7.51-2.83-15.24-4.15-23.28-5.4-.21-.03-.3-.18-.32-.35-3.21-.2-6.42-.1-9.59.48 4.52 8.2 9.3 16.23 13.98 24.32 8.12-3.76 15.2-10.95 19.2-19.05 0 0 7.52 2.83 0 0zm22.19 24.9c2.4.77 4.78 1.5 7.19 2.08-.54-.27-1.09-.55-1.63-.87-7.54-4.37-14.73-10.07-21.77-15.2-.56-.42.1-1.34.7-.98 5.07 3.05 9.81 6.71 14.6 10.2 4.6 3.34 9.07 6.89 14.04 7.8.7.06 1.41.1 2.13.1.08 0 .12.07.1.13 1.97.03 4.04-.38 6.23-1.42-.16-.07-.28-.26-.17-.43 11.11-16.71-26.46-16.97-35.12-17.46-.8-.05-.86-1.16-.05-1.26 9.37-1.1 48.92 2 35.8 18.92l.32-.16c.11-.06.21.1.1.17-4.82 2.95-9.42 3-14.17.97a86.43 86.43 0 0 1-8.37-2.27c-.2-.07-.13-.38.07-.32zm7.05-6.3c2.45.67 4.8 1.77 7.18 2.66a68.59 68.59 0 0 0 3.82 1.32c.6.13 1.2.28 1.8.43-.19-.05-.8-.82-1.13-1.21-.13.05-.28.04-.37-.12l-.3-.42-.48-.28c-2.88-1.74-5.13-3.23-8.4-4.36-3.86-1.32-7.95-1.8-11.93-2.6-.47-.1-.4-.85.08-.83 4.67.12 9.41.95 13.76 2.71a24.6 24.6 0 0 1 4 1.96c-.4-.35-.8-.69-1.21-1.01-.29-.22.06-.7.35-.5 1.4.95 2.63 2.1 3.63 3.43 1.26.83 2.66 1.6 2.63.95-.02-.36.49-.36.54-.02.22 1.6-.87 1.5-1.95 1.06.39.31.77.65 1.13.99l.04.01.05.07.55.52c.18.17.02.45-.22.41l-1.02-.18c-.83-.02-1.96-.26-2.14-.3l-.5-.15a55 55 0 0 0-9.16-.8c-.57 0-.6-.88-.03-.89 1.4 0 2.8.06 4.18.17a39.28 39.28 0 0 1-5.22-2.18c-1.59-.83-.08-.05 0 0-.45-.24-.18-.98.32-.84zm-.84-1.47h-.04c-.14.04-.05.02 0 0-1.36.27-2.73.4-4.12.27-.74-.07-1.5-.21-1.94-.87-.18-.28.18-.51.41-.34 1.4 1.02 4.03.7 5.61.48.26-.04.34.4.08.46zm-11.58 4.65c-6.12-6.53-.11-.11 0 0-.18-.19.08-.47.28-.3a44.46 44.46 0 0 0 4.63 3.62c-1.56-.49-.6-.2 0 0 5.94 4 13.07 6.5 20.07 4.2.16-.06.24.19.08.24-8.85 3.22-18.89-1.16-25.06-7.76zm1.83 3.22c6 3.14 11.92 6.46 18.92 5.88.16-.01.17.25 0 .26-7.05.68-13.07-2.53-19.12-5.76-.25-.13-.05-.51.2-.38z"/></defs><g><g opacity=".5" transform="translate(-1446 -196)"><use fill="#fff" xlink:href="#j1s7a"/></g></g></svg>