<svg xmlns="http://www.w3.org/2000/svg" xmlns:xlink="http://www.w3.org/1999/xlink" width="324" height="281" viewBox="0 0 324 281"><defs><path id="f3cha" d="M124.93 222.65l.18.2.06.07c.07.1.12.2.15.3a.82.82 0 0 1 .03.37c-.11.72-1.12 1.26-1.82.7a26.3 26.3 0 0 1-2.65-2.42c-3.03-1.7-6.91-1.04-10.53-1.25-2.82-.17-5.47-.84-7.45-3.54-1.98-2.7 0 0 0 0-1.67-2.3-1.36-4.23-.09-5.67a7.65 7.65 0 0 1 3.1-2.03v-.06c.02-.09.13-.16.21-.1l.1.07.31-.1c.03-.55.43-1.01 1.17-.9.6.1 1.14.3 1.69.47.82-.04 1.59.16 2.29.33.43.11.28 1.04-.17.96 4.7 2.56 7.59 7.2 11.37 11.05.68.49 1.37.8 2 1.5l.05.05s.01 0 0 0zM-70.61 338.03a20.22 20.22 0 0 0 3.83 5.43c-3.2-5.03-4.87-11.37-3.96-17.27l.05.01a24.25 24.25 0 0 0 1.14 11.28c.75 2.2 1.77 4.3 3 6.2a23.79 23.79 0 0 0 18.54 7c-3.7-.16-6.75-1.76-9.64-3.95-3.59-2.02-6.2-5.78-8.35-9.96 0-.03.04-.05.05-.02 1.8 3.48 3.94 6.56 6.66 8.64-.03-.03-.03-.07 0-.1.02-.04.07-.05.1-.02.56.46 1.13.9 1.7 1.33 1.81.96 3.85 1.5 6.22 1.46a.12.12 0 0 1-.05-.08c-.22-1.7-.42-3.42-.62-5.12a2.5 2.5 0 0 1-2.09-.15c-.19.74-.42 1.48-.7 2.2-.05.1-.18.04-.18-.05.05-.92.05-1.83.03-2.74-.35-.3-.66-.65-.93-1a4.16 4.16 0 0 1-.56-1.01c.1 1.77 0 3.54-.32 5.37-.03.15-.25.22-.34.07a37.9 37.9 0 0 1-1.05-1.99l.26 2.31c.01.1-.12.18-.19.11-2.2-2.19-3.25-5.27-4.03-8.45l-.02.02c-.21.2-.57.14-.77-.03-1.06-.87-2.33-2.2-2.07-3.71.16-.93.7-1.58 1.4-2.08l-.02-.01a.64.64 0 0 1-.1-.86c-.12-.38-.23-.76-.36-1.12-.02-.08.09-.12.12-.05l.33 1.05c.22-.2.55-.28.87-.04.43.33.9.73 1.33 1.18-.1-1.92.04-3.84.47-5.74.02-.13.24-.17.28-.02 1.41 5.27 1.82 10.68 2.36 16.08.55.9 1.35 2.17 1.38 2a26.5 26.5 0 0 0-.2-7.49c-.03-.16.24-.19.27-.02.1.58.18 1.15.25 1.72.15-.58.5-1.11 1-1.6-.12-.52-.22-1.03-.36-1.54-.03-.08.09-.12.1-.04.15.48.26.97.37 1.46.25-.24.52-.47.83-.68.05-.27.28-.51.6-.45.16.02.31.07.47.1 0-.1.16-.1.16 0v.05c.2.06.4.13.58.21-.22-1.73-.45-3.45-.72-5.17-.02-.13.17-.14.2-.02.28 1.77.53 3.54.76 5.31.8.4 1.48 1 1.92 1.75.04-.1.2-.1.2.02.01.14 0 .29.02.43.11.26.2.54.25.84.1.66.04 1.43-.21 2.1a44.4 44.4 0 0 1-.69 6.81c0 .03-.02.05-.04.07.67-.02 1.36-.07 2.08-.2.11 0 .13.16.02.18-2.9.52-5.38.17-7.54-.77 3.84 2.6 8.2 4.17 12.89 2.37 3.56-1.37 6.7-3.47 9.83-5.62-.13.15-1.75 1.96 0 0h.01a14.32 14.32 0 0 0 3.44-6.66v-.02c.48-2.24.04-.18 0 0 3.5-16.5-22.4-38.02-32.53-26.2-.56.65-1.43.18-1.62-.45-5.07 2.12-7.63 6.72-8.41 11.9-.07.47-.13.94-.17 1.42-.42 4.8.59 9.95 2.47 14.02zm0 .03l-.38-.86a29.06 29.06 0 0 1 0-.01c-.05-.1-.07-.13 0 0a20.16 20.16 0 0 0 4.22 6.28h-.01a20.14 20.14 0 0 1-3.83-5.41zm21.4-6.8c.11 2.1.16 4.2.2 6.29v.04c0 .3.03 2.02 0 0a27.74 27.74 0 0 0 0-.04c-.04-2.08-.09-4.2-.2-6.28zm-.09-.6c0-.04.06-.02.07.02.12 2.27.18 4.59.22 6.86.02 1.44.2 3.05.1 4.54-.02.32-.05.63-.1.93.46-2.87 1.14-6.75 1.46-8.42l.14.02s.07-.42 0 0l-.28 1.68c-.34 2.03-.85 4.95-1.22 7.23-.01.09-.14-.08-.14-.18-.1-4.23-.06-8.45-.25-12.67a.04.04 0 0 1 0-.01l.02-.02s-.02 0-.02.02zm15.83-84.67c-.38 2.4-1.08 4.72-1.75 7.05l-.01.02c.2.21.37.44.43.7a.94.94 0 0 1 .25.46l.01.12c0 .14-.03.28-.11.43a.65.65 0 0 0-.07.18l-.01.15c0 .13 0 .26.02.42.51-1.27 1.05-2.66 1.58-3.92.07-.18.4-.35.36-.16-.56 2.97-1.23 6.71-1.52 8.4l-.29-.05c.28-1.68.3-4.65 1.11-6.66-1.1 2.75-2.29 6.03-3.46 8.75-.08.2-.35.08-.33-.1.06-.73.15-1.43.26-2.13.11-.7.24-1.39.39-2.07a4.1 4.1 0 0 1-1.93-.63 61.7 61.7 0 0 1-2.53 4.44c-.1.16-.33.05-.27-.13 1.08-3 2.06-6.03 3.06-9.06.19-.58.3-.97.36-1.22.4-1.76-2.06 3.62-2.41 4.53-1.79 4.64-3.14 9.4-4.58 14.15 4.33-1.8 8.38-5.17 11.54-9.17 2.54-3.2 4.5-6.8 5.62-10.33a18.7 18.7 0 0 0 .92-7.58c-.26-2.35 0 0 0 0a10.83 10.83 0 0 0-1.37-4.3 9.48 9.48 0 0 0-3.22-3.26c-.73-.45-.45-1.38.15-1.67-5.73-9.39-19.89-7.38-28.1-1.95-10.22 6.76-12.91 21.8-5.6 31.88a23.1 23.1 0 0 0 3.49 3.88 64.06 64.06 0 0 1-2.99-7.56c-1.37-4.33-2.11-8.84-1.54-13.3.01-.1.1-.14.19-.13.08.02.16.09.14.2-.57 4.71.39 9.44 1.95 13.9a94.94 94.94 0 0 0 2.4 6.1c.35.76.64 1.08.9 1.1.24.03.46-.24.64-.66-3.07-4.26-3.55-12.13-4.44-16.06-.01-.05.03-.08.07-.08a.1.1 0 0 1 .09.04.1.1 0 0 0-.1-.04s-.03 0 0 0c.05 0 .1.01.11.07.87 3.86 1.38 11.6 4.35 15.86.37-1.04.57-2.68.67-3.44.01-.08.07-.1.14-.07.06 0 .13.05.12.13a15.9 15.9 0 0 1-.73 3.7 6.35 6.35 0 0 0 4.27 2.67h-.01l.15.02a139.5 139.5 0 0 1 1.32-8.36l.25-1.43a44.74 44.74 0 0 1-2.36 6.58c-.02.05-.03-.31-.04-.36-.13-.61-.2-1.23-.3-1.84.28 1.58.5 1.72 1.1.19l.02-.08c.78-2 1.51-4.62 1.93-6.35v-.01l.01-.04c-.11.55-.47 1.08-.63 1.63.06-.26.08-.52.1-.77-.42 1.72-.96 3.52-1.85 4.58-.15.18-.5.03-.47-.2.05-.21.08-.43.12-.65l.01-.09-.01.1c-.16.07-.32.14-.5.17-.16.02 0 0 0 0 .05.4.07.87.13 1.27-.07-.45-.16-.9-.21-1.36-.16.02-.32.03-.49 0a2.42 2.42 0 0 1-.78-.25l-.27 1.95c-.04.23-.4.22-.4-.02-.03-.81-.04-1.62-.06-2.44-.4-.37-.75-.83-1.03-1.28-.19-.3-.03-.64.23-.82.23-.15.5-.32.77-.46l-.02-1.54-.03-.01c-.56-.26-.4-.92.01-1.2-.03-1.52-.07-3.05-.15-4.57a3.58 3.58 0 0 1-.63-.1 2.75 2.75 0 0 1-1.59-.96c-1.15-1.5-.24-3.21.94-4.42.92-.92 1.84-1.23 2.72-1.09a4.6 4.6 0 0 1 2.52 1.56c.27 0 .54.2.54.52 0 0 0 .33 0 0 0-.28-.2-.46-.42-.5.23.04.43.22.43.5-.04 1.85-1.07 3.73-2.9 4.32-.4.12-.83.18-1.26.18.08 1.48.14 2.95.17 4.43h-.05l-.02-.85.02.85H-58.08l.04.01.07.01c1.54.37 3.14 1.76 3.38 3.36.35-.69.54-1.4.69-2.13.13-.66.22-1.31.36-1.97l.2-.82c.88-3.02 1.81-6.07 3.14-8.93.04-.07.11.19.1.3a.1.1 0 0 1-.01.03c-.04.08 0 0 0 0-1.02 2.36-1.54 4.48-2.3 7.81l.09.02-.44 2.52-.1-.02.1.02v.05l-.02.08c0 .08-.04.18-.05.26v.02l-.39 2.16a403.1 403.1 0 0 0 0 .03c-.4 2.27-.82 4.76-1.12 7.01-.57 4.33.27 1.28.84-1.43a72.72 72.72 0 0 0 .57-3.1 173.18 173.18 0 0 0 .49-3.13c.02-.15.23-.1.21.03-.25 1.9-.5 3.78-.87 5.63-.37 1.86-.88 3.7-1.64 5.47-.06.14-.23.17-.3.08-.02.02-.06.13-.09.13l-.03.15s-.02.11 0 0l.05-.36-.11-.02.05.01s.02 0 0 0h-.05a.31.31 0 0 1-.1-.06h.01c-.04 0-.09 0-.09.02l-.09-.02.05.01-.1-.01a5.9 5.9 0 0 1-4.1-2.46c-.11.28-.24.56-.38.84-.03.09-.05.17-.09.25a14.75 14.75 0 0 0 6.44 2.68 14.77 14.77 0 0 1 3.96.04 58.72 58.72 0 0 1 .25-1.79c-.14.22-.27.43-.42.64-.05.08-.14.08-.2.05-.08-.04-.13-.11-.12-.2.41-3.33 1-6.62 1.63-9.92-.12 0-.24 0-.36-.04l-1.27 9.96-1.4-13.65c.06.18 0 0 0 0 .44 1.38 1.02 3.03 2.45 3.62-1.43-.6-2.02-2.25-2.45-3.62a.66.66 0 0 1 .04-.51.9.9 0 0 1 .36-.39 5.5 5.5 0 0 1 3.65-.69l.24-1.2.05.01-.2 1.2a5.13 5.13 0 0 1 3.35 1.9s-.05-.08 0 0a.42.42 0 0 1 .09.27c-.01.27-.27.51-.56.32-.21-.15-.43-.28-.64-.41.01.15 0 .31-.08.48-.5 1.11-1.65 2.79-3.08 2.77-.35 2.03-.68 4.05-.96 6.08 0 .04-.16.91-.24 1.64l-.03.51c-.02.46.05.7.3.34.12-.76.26-1.51.42-2.25a34.65 34.65 0 0 1 2.05-6.58c.05-.13.25-.03.2.1a36.08 36.08 0 0 0-2.3 7.98c.27-.56.51-1.13.72-1.72.65-1.82 1.25-3.66 1.98-5.45.09-.2.4-.05.31.15-1.06 2.69-1.73 5.5-3.15 8l-.2 1.34c-.04.43-.06.76-.06 1.01l.93-.15c.9-1.55 2.16-4.78 2.31-5.34 1.26-4.46 2-9.07 3.8-13.36.07-.2.38-.06.3.14-2.43 5.96-2.62 12.92-5.94 18.45.87-.2 1.73-.48 2.59-.8 1.54-6.67 3.5-13.22 5.18-19.84 0-.04.08-.03.07.01-1.1 4.48-2.33 8.91-3.45 13.38-.49 1.94-1 3.92-1.55 5.82.41-1.42.81-2.85 1.24-4.27 1.72-5.7 3.5-11.42 6.81-16.43.1-.16.31.02.26.17-.68 2-1.34 4-2 6.02.35-.72.75-1.4 1.14-2.12.17-.32.52-.38.85-.33l.2.05c.98-2.12 1.91-4.27 2.85-6.4.07-.16.3-.08.28.08-.37 2.35-1.05 4.6-1.7 6.88.64-2.27 1.33-4.53 1.7-6.88 0 0 .38-2.41 0 0zm-16.73 23.67c-.01.09.05.16.11.2a.2.2 0 0 1-.11-.2zm175.31-46.8l-.17-.19.17.19c.02.02.05.05 0 0zm-158.9 121.16c-3.13 2.14-6.28 4.25-9.84 5.62 3.56-1.37 6.71-3.48 9.84-5.62zm-19.14-82.34zm-.29-2.51v0zm-22.95-117.88l-.82 1.21a.3.3 0 0 1 .06.23c-.02.16-.16.36-.4.6.25-.24.38-.44.4-.6-.02.24-.32.59-.9 1.04l-.1.13-.8 1.21a167.19 167.19 0 0 1-2.2 3.2c-.43.6-.86 1.19-1.3 1.77 2.92-3.08 5.62-6.37 8.65-9.36.37-.36 1.1.01.82.53-.35.58-.66 1.19-.99 1.79 2.18-2.37 4.12-4.93 6.15-7.44.38-.46 1.13.03.87.56a40.36 40.36 0 0 1-2.9 5.07c4.03-2.6 7.09-6.52 11.73-8.17.37-.13.68.24.54.58-.3.75-.57 1.5-.85 2.24 1.8-.67 3.59-1.25 5.37-1.74h.02a61.89 61.89 0 0 1 5.18-3.05c.25-.12.5.2.38.42-.19.37-.35.76-.52 1.15l5.11-2.3a30.5 30.5 0 0 1 9.39-2.74c.41-.04.7.58.3.8-.67.36-1.34.7-2.02 1.02 3.8-1.14 7.69-1.88 11.74-1.55.13.02.18.22.07.28-3.86 2.1-10.52 2.19-12.44 6.72-.04.1-.17.03-.13-.06 1.71-4.16 6.82-4.3 10.44-5.93-.7-.85-1.57-1.05-2.63-.6-1.6.23-3.19.57-4.75 1.04-1.62.5-3.24 1.02-4.83 1.62l-4.21 1.65c.3.22.28.77-.17.76-.72-.02-1.4.01-2.05.1l-2.06.76a.96.96 0 0 1-.44.16c-.6.21-1.21.43-1.82.63l-.07.01-.96.62c-.3.21-.83-.15-.6-.51l.1-.17c-.94.46-1.88.9-2.85 1.31-.35.15-.68-.2-.64-.54.01-.1-.12-.15-.36-.14a99 99 0 0 1-6.1 4.25c17.8-5.77 37.5-6.26 55.87-5.36 14.45.72 28.75 3.08 42.28 8.38 13.85 5.41 27.87 10.5 41.28 16.95 12 5.76 24.62 12.41 33.73 22.32 7.5 8.15 12.59 18.94 15.02 29.67 2.53 11.16 2.17 21.25-.24 31.87a62.96 62.96 0 0 1 4.05 11.66c.14.56-.68.9-.86.32-1.19-3.68-2.07-7.39-3.43-10.97-.48 2-1.02 4.03-1.63 6.09-1.3 4.4-2.39 8.96-3.46 13.57.12.01.22.08.24.23.61 5.18 3.07 10.04 2.56 15.33-.06.64-1.12.6-1.13-.05-.04-4.87-1.57-9.5-1.94-14.33-.69 2.96-1.39 5.93-2.15 8.87 1.02 3.06 2.02 6.13 3.61 8.94.4.7-.6 1.21-.96.5a45.77 45.77 0 0 1-2.98-8.16 91.52 91.52 0 0 1-5.62 15.94.6.6 0 0 1 0 .47c-3.5 8.82-7.33 17.85-14.4 24.4-6.72 6.22-15.19 10.14-21.9 16.43-11.75 10.99-27.79 20.68-44.39 20.78-5.03.03-10.03-.97-15.07-.63a77.4 77.4 0 0 0-14.39 2.48c-1.91.5-3.8 1-5.69 1.42l.9 1.5c.25.4-.3.76-.6.41-.47-.53-.9-1.1-1.3-1.69-2.2.45-4.43.76-6.75.76-4.57 0-9.12-.46-13.7-.45-17.84.03-38.26 7.8-54.6-2.86-.18-.1 0-.4.19-.3l.39.19c-3.05-1.71-5.49-4.27-8.8-5.55-4.25-1.64-8.86-2.12-13.19-3.57-6.37-2.15-12.96-4.45-17.53-9.62-9.91-11.2-16.57-26.1-19.73-40.64-2.6-11.9-4.72-24.92-4-37.5-.37 1.37-.8 2.73-1.3 4.06-.2.57-1 .16-.83-.4 0 0 .96-9.1-.15-5.9-.2.57-.38 1.15-.56 1.73l-.01 1c.18.09.32.27.3.5-.06 1.1-.18 2.2-.33 3.27.05 14.47 1.9 29.16 6.2 42.68a96.14 96.14 0 0 0 3.62 8.67c.13.26-.03.45-.25.5a93.6 93.6 0 0 0 1.8 4.03c12.38 25.8 39.9 40.34 67.11 45.91 14.6 3 29.51 3.7 44.39 3.23 14.15-.44 28.64-.93 42.62-3.33 25.69-4.42 51.1-14.9 71.04-31.9 22-18.8 36.39-46.61 41.22-75.04 4.68-27.54 1.74-61.36-19.58-81.66a91.09 91.09 0 0 0-4.67-4.12c.16.4.33.78.52 1.16.06.13-.14.23-.21.11-.3-.54-.56-1.1-.78-1.65-7.97-6.53-16.91-11.78-26.17-16.33a417.27 417.27 0 0 0-35.96-15.88l10.15 1.78c4.48 1.84 8.92 3.77 13.34 5.77 11.25 5.1 22.96 10.5 33.33 17.6l-.07-.38c-10.03-5.6-18.15-14.24-28.28-19.78l1.57.28c.89.49 1.78.97 2.65 1.5-.39-.4-.76-.82-1.13-1.24l.38.07c.6.66 1.23 1.29 1.91 1.88 3.15 1.96 6.2 4.1 9.2 6.3l1.06.63c-2.25-2.41-4.24-5-5.97-7.72l.4.07a54.97 54.97 0 0 0 6.46 8.1c.04.04.05.09.05.13a45.97 45.97 0 0 1 7.24 5.26c.1.09.06.2 0 .27 1.38.99 2.78 1.96 4.2 2.9-.34-2.05-.56-4.12-.92-6.15-.14-.1-.27-.23-.4-.33-.17-.13.04-.37.2-.24l.11.09c-.5-2.65-1.28-5.23-2.96-7.58l.44.08c1.7 2.43 2.56 5.15 3.13 7.98 1.4 1.1 2.72 2.28 4 3.5-.18-1.35-.41-2.7-.78-4.02-.04-.12.15-.19.18-.07.41 1.44.68 2.9.88 4.38 2.33 2.27 4.5 4.7 6.64 7.17-.53-3.45-1.26-6.86-3.11-9.76-.14-.21.17-.43.31-.22 2.19 3.19 3 7.04 3.6 10.9 2.98 3.47 5.93 6.96 9.23 10.12.29.28-.1.75-.41.48a81.86 81.86 0 0 1-8.61-9.2c.2 1.4.38 2.78.61 4.13v.02a71.8 71.8 0 0 1 5.25 5.61c15.85 19.02 19.32 46.94 16.3 71.1 2.7-6.26 6.59-12 7.63-18.9.05-.29.5-.2.46.09-1.08 8.67-6.7 15.6-8.83 23.94-4.26 25.85-15.84 52.65-34.56 71.27-17.47 17.37-39.97 29.52-63.7 35.93-12.2 3.3-24.46 4.88-37.03 5.74-14.39.99-28.86 1.79-43.27.89-26.78-1.67-56.46-9.68-76.57-28.5-12.79-11.97-19.7-28.5-23.25-45.47-.78-2.94-1.46-5.9-2.06-8.84-.98-4.85-2.01-10.1-2.2-15.28l-.1.31c-.15.35-.52.37-.78.22-.27-.16 0 0 0 0l3.46-19.88c-.05 1.04-.12 2.09-.16 3.14.13-.3.23-.62.36-.93.17-.4.66-.28.82.04.48.94.85 1.96 1.02 3a53.84 53.84 0 0 0 1.35-6.18c.17-1.03.35-2.06.56-3.08.78-4.4 1.63-8.8 3.18-13 .1-.27.48-.08.4.19a75.96 75.96 0 0 0-1.94 6.25c.53-1.67 1.1-3.25 1.44-4.52-.2.77-.4 1.53-.58 2.3 3.03-8.39 7.38-16.23 9.86-24.83 1.23-4.27 2.35-8.59 4.08-12.65-.37-3.55.82-7.3 2.78-10.87l-1.13 1.3c-.31.38-.93-.01-.71-.45 2.62-5.32 6.5-9.57 10.2-14.17 3.23-4.03-1.84.86-2.6 1.61a40.3 40.3 0 0 0-4.48 5.23 85.02 85.02 0 0 0-5.92 10c-1.1 5.6-1.86 11.56-3.84 16.98.1 0 .22.06.22.17-.07 3.88-1.86 7.9-3.34 11.42-2.13 5.04-4.44 10-6.7 14.98-.28.65-1.25.18-.98-.46 1.52-3.7 3.14-7.33 4.72-10.96l-1.64 2.88-.13.52c-.04.13-.15.18-.26.19-.8 1.42-1.6 2.85-2.34 4.32-.07.12-.26.03-.2-.1.73-1.47 1.5-2.92 2.29-4.36a.22.22 0 0 1-.02-.14c1.3-4.43 2.57-8.84 3.3-13.4.02-.17.28-.13.26.04a95.95 95.95 0 0 1-2.58 11.75c.98-1.77 1.95-3.53 2.87-5.32 1.28-3.04 2.51-6.1 3.61-9.25a27.07 27.07 0 0 1-2.29 4.12c-.24.35-.86-.04-.63-.4 4.35-6.76 5.6-14.87 7.47-22.57-2.63 5.12-5.01 10.37-7.9 15.37-.2.38-.84.23-.75-.24.9-4.5 2.57-9.33 5-13.4l.26-.69a.2.2 0 0 1-.1-.13 131.21 131.21 0 0 0-8.45 19.72l1.55-8.87c9.16-21.93 23.65-41.2 41.38-56.96 8.4-10.92 23.6-16.47 36.28-19.85 2.6-.7 5.23-1.32 7.86-1.9-11.64.13-23.73 1.67-32.73 8.75 0 0-.02-.01 0-.02 6.03-4.96 13.75-7.17 21.4-8.17 4.38-.57 8.77-.88 13.18-.95a167 167 0 0 1 15.28-2.41l8.4 1.47c-4.32.21-8.65.6-12.98 1.21.07.15.04.37-.17.36l-1.92-.07c-11.14 1.73-22.35 4.3-32.71 8.78-1.6.69-3.2 1.43-4.78 2.22a69.4 69.4 0 0 0-4.66 2.57 49.73 49.73 0 0 1-4.73 7.12c-1.3 1.66-2.64 3.31-3.82 5.06-.55.75-1.04 1.54-1.51 2.34.06.05.11.13.13.2.01.09 0 .18-.08.27l-.98 1.19a5.33 5.33 0 0 0-.78 2.81 37.17 37.17 0 0 0 4.97-4.3v-.01c.01-.04.03-.08.06-.1l.04-.05-.04.05c.02-.03.01-.06.05-.1a83.75 83.75 0 0 0 7.74-9.65c.69-.99 1.33-1.8 1.96-2.56h.01c.53-1.63.74-1.42 1.07-1.92.22-.33.66-.34.7-.12.02.06.02.12-.03.2l-.83 1.26.83-1.26c.05-.08.05-.14.04-.2.03.07.02.15-.05.26zm-2.57 3.82l.06-.1c.26-.36.5-.74.76-1.12v-.01.01l-.82 1.22zm91.8 190.5l.12.03c.2.05.4.1.46.13-.34.61-.34 1.31-.36 2-.02.71.3 1.34.64 1.88-.07 2.41-.09 4.82.08 7.24v0c-.84-.72-1.58-1.61-2.37-2.37l.08-.53c.06-.25.13-.6.21-1.08l1.26-7.27c-.04 0-.08-.02-.11-.03zm-1.46 8.73l-.26-.24.26.24zM-92.7 159.81v-.02.02zM14.07 329.36c-.27 1.59-.32 2.82-.67 4.96.35-2.14.4-3.37.67-4.96-.01-.2-.05-.26-.1-.21.05-.05.09 0 .1.2.08 1.11 0 0 0 0zm.24-.26c.01.2.01.57-.02 1.19-.06 1.38-.34 2.73-.42 4.12l-.45-.13.9-5.18zm-67.87-69.08zm-1.03-.23zm-.4 1.88zm.26-14.73zm-2.28-1.5zm2.3 15.58a.32.32 0 0 0 0 0zm4.5-15.04c.04-.08.12.13.1.24.02-.1-.06-.32-.1-.24zm-2.02 12.64c0-.08-.05-.13-.1-.14.05 0 .1.06.1.13 0 0-.02.14 0 0zm-7.35 8.3c.4-1.16.62-2.33.76-3.7 0-.07-.03-.1-.07-.13.04.03.07.06.07.13a16 16 0 0 1-.76 3.7zm6.76-9.99l-.01.04v-.04l.04-.2zm-8.5 9.43c.34.77.63 1.1.88 1.12-.25-.03-.54-.35-.88-1.12zm92.45-27.23c.04.1.03.22-.01.32.03-.1.04-.2 0-.29.04.1.03.2 0 .3-.04.1-.1.2-.2.25-.86.57-2.03 1.22-3.07.82-.65 2.35-1.32 4.7-1.64 7.14-.01.1-.16.07-.15-.02.34-2.45 1.03-4.81 1.7-7.17l-.26-.13a3.5 3.5 0 0 1-1.18-1.74 150.6 150.6 0 0 1-4.71 8.54c-.12.2-.47.12-.42-.14a41.8 41.8 0 0 1 1.97-6.6c.78-2.08 1.72-4.26 1.88-6.5-.56-.63-.9-.22-1.03 1.2-1.85 4.05-3.34 8.2-5.87 11.88-.12.16-.38.02-.35-.17.47-2.33 1.17-4.56 1.82-6.84.32-1.13.7-4.78.85-5.14-.84 1.91-1.63 3.84-2.47 5.76l-.03.45c-.02.23-.2.43-.42.55a58.85 58.85 0 0 1-2.4 4.87.16.16 0 0 1-.3-.1c.14-1.6.55-3.17 1-4.73a5.48 5.48 0 0 1-1.94-.6 123.6 123.6 0 0 0-1.2 4.1c-.05.17-.3.13-.26-.04.28-1.49.58-2.97.89-4.44a3.82 3.82 0 0 1-1.33-2.47c-.28.8-.54 1.61-.83 2.41-.02.07-.12.04-.12-.02-.36-4.45-.25-8.87.13-13.28-.24.4-.57.78-.9 1.1-.21.22-.56.28-.82.1a86.85 86.85 0 0 1-2.3 6.23c.12 2.03.07 4.04-.4 6.06a17.7 17.7 0 0 0 8.08 6.93c11.86 4.89 26.87-4.01 25.15-17.73-1.18-9.37-9.15-17-17.76-20.2-3.9-1.44-8.73-2.56-12.74-.85-.19.08-3.9 1.66 0 0-5.34 2.27-6.51 7.42-6.92 12.7-.05.75-.85 1.04-1.34.77a50.38 50.38 0 0 0 2.52 12.19c-.34-2.12-.28-4.3.24-6.44.01-.03.06-.03.05 0a16.75 16.75 0 0 0-.2 6.7c.75 2.05 1.67 4.01 2.8 5.78a16.93 16.93 0 0 0 .48-3.87c0-.59-.04-1.17-.07-1.75l-.31.75c-.07.15-.25.08-.28-.05-1.8-8.02-1.41-16.35.44-24.32.01-.05.08-.03.07.01-1.55 7.33-2.22 15.43-.56 22.8.07.3.3.06.58-.4l-.24-2.7c-.01-.06.08-.06.1 0l.24 2.52a32.11 32.11 0 0 0 1.33-2.84c.29-.82.56-1.65.83-2.47-.83-.8-1.75-1.88-1.75-3.1 0-.63.14-1.24.34-1.83-.15-.36.03-.7.33-.85l.29-.65c.11-.26.56-.11.47.17l-.14.51.1.06c.5.41 1.12.92 1.64 1.47l.04-.11a199.8 199.8 0 0 0 2.47-10.35c.02-.12.2-.09.18.03l-.35 2.06a.6.6 0 0 1 .4-.39c1.27-.37 3.05-.42 4.2.36 1.3.87 1.35 2.55 1.25 3.96-.03.53-.45 1.03-1.04.89-1.48-.38-3.08-1.03-4.07-2.25a2.7 2.7 0 0 1-.64-1.4.74.74 0 0 1 .05-.4.71.71 0 0 1-.2-.5 182.1 182.1 0 0 0-1.39 9.37v.02c.25.64.12 1.25-.19 1.8a66.48 66.48 0 0 0-.31 9.54c.13 2.65.57 2.36 1.05 1.22l-.02-.5c-.35-.34-.43-.92.12-1.29l.1-.05.12-.45c.1-.3.34-.4.56-.35l.36-1.16a65.42 65.42 0 0 1 3.19-7.73c.03-.08.15-.04.14.04-.61 2.95-1.16 5.97-1.77 8.97a4 4 0 0 1 .71.08c.7-1.88 1.45-3.74 2.27-5.58.06-.14.27-.1.29.05.21 2.29-.16 4.39-.7 6.46.25-1.07.43-2.14.48-3.24.15-3.33-1.35.38-2.09 2.38.39.12.75.32 1.03.6.2.19.35.38.49.6l.08-.34-.08.34c.59.86.76 1.89.77 2.94a135.8 135.8 0 0 1 2.9-6.68c.1-.18.36-.08.34.11a31.66 31.66 0 0 1-1.3 6.9c-.19.64-2.31 7.71-.4 3.92 2-3.92 3.4-8.1 5.61-11.9.13-.22.43-.12.41.13-.31 4.79-2.69 8.58-3.62 13.2.27-1.32 2.42-3.85 3.14-5.18.3-.54.57-1.1.85-1.63-.65.2-1.13-.84-.5-1.17l.42-.22-.08-.28a.24.24 0 0 1 .02-.2c.1-.16.38-.18.47.05l.07.2c.18-.1.37-.17.56-.25a82.1 82.1 0 0 0 1.61-3.46c.06-.14.28-.03.22.12-.45 1.1-.94 2.2-1.44 3.25.48-.14.95-.17 1.42-.08.03 0 .03.12.06.13l.27-1.24.06.01-.02.13-.15.72-.08.4c1.2.33 1.83 1.35 2.26 2.43 0 0-.05-.1 0 0zm-2-3.68l-.03.13.03-.13zM8.48 165.4l-.1-.03.1.03zm.01 0zm-.68-1.7zm-29.26 46.95a4.8 4.8 0 0 0-.35.72l-.08.37c0 .1 0 0 0 0v.03l.03.18v.03l.03.05.09.14.01.02.2.15v.01h.02c.09.06.17.1.26.14a3.08 3.08 0 0 0 .85.17h.08c.19 0 .38-.02.56-.04l.24-.04.11-.04-.11.04.11-.04a2.86 2.86 0 0 0 .54-.24l.1-.08c.02-.02.03-.06.05-.07 0 0-.02.02 0 0 .01-.02-.02-.02 0-.03.01-.04 0-.08.02-.12v-.02c0-.02-.06-.06-.06-.08v-.02c.02-.07.07-.13.06-.21-.02-.05.05-.08.03-.13l-.1-.22c-.04-.07-.1-.19-.13-.22a5.26 5.26 0 0 0-.24-.35c-.46-.58-.82-.97-1.24-1.45l-.31.35-.07.08s.16-.2 0 0l-.55.69-.15.23zm9.27-38.2a1.34 1.34 0 0 1 0-.02l.1.57c-.03-.21-.07-.43-.08-.64.04.34.1.7.16 1.08l.02.34v-.03.04c-.1-.48-.16-.89-.2-1.35 0 0 .02.11 0 0zm.15-3.1c-.04.16-.07.34-.1.54a13.5 13.5 0 0 0-.06 2.24v.38c-.14-1.13-.09-2.34.08-3.18l.07.01zm-6.74 42.87zm27.85-46.1a73.7 73.7 0 0 1 1.14-5.96c0-.05-.03-.1-.08-.1.04 0 .09.04.09.1v.02c-.44 1.9-.85 3.91-1.15 5.94zm-.25 2.1zm74.56 85.76c-2.43-3.9-2.56-8.57-1.76-13.1a51.53 51.53 0 0 1 2.12-7.81c.04-.12.21-.04.17.08v.02A52.65 52.65 0 0 0 82 240.5c-.44 2.53-.59 5.1-.2 7.55.21 1.33.45 2.7 1.03 3.92.16.33.32.52.47.61a24 24 0 0 1 .4-5.5c.34-1.83.86-3.61 1.5-5.36a3.13 3.13 0 0 1 .27-1.23 2 2 0 0 1 .46-.63c.74-1.77 1.58-3.5 2.47-5.17.07-.12.27-.03.2.1a70.36 70.36 0 0 0-2.27 4.75 3.97 3.97 0 0 1 1.94-.49c.18-.6.35-1.2.5-1.8.04-.13.25-.1.22.04-.15.6-.33 1.17-.49 1.76h.39c.1.01.11.2 0 .2-.15 0-.3.03-.46.05l-.05.19c.04.04.1.08.13.15.28.6.48 1.37.54 2.1a103.8 103.8 0 0 0 1.45-5c.04-.16.27-.12.24.03a90.97 90.97 0 0 1-1.68 6.02l-.01.2c-.05.3-.16.57-.3.8-.82 2.64-1.65 5.27-2.3 7.94 1.37.08 2.76.55 3.42 1.58 1.18 1.86-.32 3.63-1.78 4.78a.5.5 0 0 1-.5.08c-.23-.1-.47-.2-.7-.32-.5 2.06-1.06 4.1-1.66 6.15 1.96 1.56 4.2 2.8 6.57 3.56a80.84 80.84 0 0 1 1.86-8.08c.72-2.56 1.53-5.09 2.39-7.6l-.19-.13c-1.17-1.17-2.26-3-1.86-4.74a4.3 4.3 0 0 1 .31-.88c-.47-.32-.43-1.23.3-1.43 1.35-.35 2.88-.16 3.64.99l1.18-3.3c.04-.1.2-.03.16.07l-1.21 3.45c.08.16.15.32.2.5.54 1.9-.51 3.85-1.64 5.31a.64.64 0 0 1-.65.25c-.49 1.46-.96 2.93-1.4 4.4-.19.65-.38 1.4-.57 2.19.44-.39 1-.68 1.5-.92.19-.08.37.2.2.31-.58.39-1.37.85-1.6 1.55l-.02.05c.49.02.93-.13 1.44-.13.64 0 1.14.27 1.62.67a.6.6 0 0 1 .18.27c1.69-4.14 3.36-8.3 4.96-12.49.03-.1.18-.03.14.08a440.39 440.39 0 0 1-3.54 9.09 1580.52 1580.52 0 0 1-2.42 5.97c-.25.9-.14.53-.71 1.79-.06.12-.25.03-.2-.1l.8-1.96.08-.27.05-.04.36-.9c-.18.3-.38.62-.64.81-.5.36-1.34.4-1.9.55-.2.05-.41-.09-.49-.26a9.45 9.45 0 0 1-.45-1.2c-.47 2.23-.85 4.35-1.04 5.28.04-.2.35-.15.32.05-.1.62-.11.91-.16 1.1 1.46.39 2.96.6 4.5.58 6.83-.08 12.13-5.38 14.89-11.27 4.53-9.67 3.38-21.34-7.15-26.52-8.64-4.24-16.62-2.41-23.45 3.7a23.53 23.53 0 0 0-3.96 9.71c.16-1.08.7-4.71 0 0l-.05.28c-.89 5.92.54 12.13 4.76 16.91-4.22-4.78-5.65-10.98-4.75-16.91-.9 5.93.53 12.13 4.75 16.91.65.73 1.36 1.43 2.1 2.08a34.4 34.4 0 0 1 .71-7.95l.15-.75.15-1.2v-.01-.01c0 .02 0 .1 0 0 .02-.14.1-.25.18-.28l.03-.08V253c-.49 0-.98-.03-1.47-.11h-.01c-.08-.02-.27.63-.41.9 0 .02-.02.04-.03.05-.09.12-.27.24-.34.13zm0-.07c.05.07.13.08.2.05-.07.02-.15.02-.2-.05zm.53-20.74zm1.7 20.03c0-.03 0-.06.02-.1l-.03.1zm15.71-26.24c2.64.73 5.13 1.9 7.22 3.5 9.78 7.44 10.2 19.89 3.64 29.78-.18.28-.37.55-.57.83-1.37 2.07-4.55 6.87 0 0-3.33 4.72-8.33 9.19-14.5 8.7a26.6 26.6 0 0 1-5.19-.94c-.04.03-.22.02-.27.05-.16.14-.68-.01-.64-.22v-.04c-2.43-.94-7.25-3.35-9.84-6.7a22.71 22.71 0 0 0 0 0c-6.21-7.98-6.51-18.75-1-26.85a.94.94 0 0 1-.52-1.4s-4.2 6.48 0 0c4.1-6.32 11.95-8.47 19.2-7.28l.52.1c7.37 1.38 0 0 0 0 .29.05.56.13.84.2a23.6 23.6 0 0 1 1.11.27zm-4.25 42.8c5.18.41 9.54-2.66 12.79-6.45-3.25 3.79-7.61 6.86-12.8 6.44zm3.15-43.08zm13.45-10.38zm.05-.13v.03a.7.7 0 0 1-.08.16l-.03.04a.77.77 0 0 1-.23.2.47.47 0 0 1-.4.02c-.03-.01-.06 0-.09-.02-2.5-1.02-4.91-2.02-7.43-2.84.08.15-.08.36-.24.27-.36-.2-.68-.43-1.02-.64l-.39-.1c-.49 2.67 1.88 5.16 4.52 5.55 2.42.36 4.77-.02 7.2-.03.98-.01 1.9-.04 2.76.1-3-3.53-5.84-7.1-10.68-8.67.7.72 1.37 1.36 2.12 1.99 1.21 1.01 2.43 2.27 3.8 2.51h.01c.03 0 .01.23.04.25.02 0 0 .22.02.23.06 0 .07.28.1.34 0 .02-.02.22 0 .24.01.05.03.09.03.14v.22a.12.12 0 0 0-.01 0zm-147.15-24.24c.1-.1.24-.02.24.08 0-.1-.14-.18-.24-.08zm0-.02a.14.14 0 0 1 .06-.04c.1-.1.28-.28 0 0 .1-.04.24.09.16.2l-.01.01v.01a3.6 3.6 0 0 0-1.16 1.9s.07-.2 0 0c-.07.19-.35-.02-.31-.21.84-4.31 1.51-8.01 2.37-12.8l.38-2.13.17.03c-.56 3.36-1.02 6.22-1.54 9.26-.26 1.52-.54 3.15-.83 4.66v.03l-.03.11c-.07.49.32-.61.75-1.03zm-97.16 156.45c.43.41 9.68 9.26 0 0l-.01-.01a112.57 112.57 0 0 1-23.42-32.17l1.02-5.86.3.66c-.08-.48-.12-.96-.16-1.45l.58-3.32c-.1 3.34.36 6.64 2.03 9.89v.01a108.9 108.9 0 0 0 8.65 14.27c-1.52-4.42-1.63-9.03-1.71-13.71 0-.21.3-.24.31-.04.14 5.04.33 10 2.13 14.76a100.4 100.4 0 0 0 6.45 7.9c7.97 8.8 17.35 16.41 27.71 22.22 11.77 6.6 24.64 10.88 37.01 16.17 13.76 5.88 27.88 11.66 43 12.5 3.68.22 7.37.24 11.08.12-3.95-5-6.71-12.19-5.77-18.6.07-.45.73-.31.7.13-.45 6.38 2.64 12.66 5.92 17.95.11.18.1.36.02.5a173.76 173.76 0 0 0 19.1-1.92c.76-4.22 1.1-8.43.78-12.74-.03-.42.6-.47.66-.06.6 4.25.42 8.43-.29 12.61 5.06-.82 10.08-1.81 15-2.94 27.34-6.26 55.56-15.97 78.02-33.2 39.4-30.2 67.96-82 59.02-132.67-4.81-27.28-19.55-50.72-39.58-68.8l7.13 1.26a131.9 131.9 0 0 1 15.64 18.22c13.8 19.43 22.18 42.64 22.25 66.58.08 24-6.77 47.74-18.65 68.52-12 20.98-28.43 39.7-48.4 53.46-22.15 15.28-48.93 24.55-75.08 30.31-14.96 3.3-30.44 5.55-45.82 5.02-13.87-.48-27.14-4.9-39.83-10.21-23.18-9.7-47.26-17.64-65.79-35.36zm114.1 24.34c-.1-.31.37-.5.48-.18 1.84 5.25 3.82 10.45 5.69 15.69.2.57-.68.9-.9.32-1.92-5.21-3.59-10.53-5.27-15.83zm-76.4-243.6c-8.64 5.65-16.96 11.81-24.5 18.83-3.1 2.89-6.05 5.9-8.85 9.01l.95-5.44c9.38-9.4 20-17.46 31.35-24.44.06-.15.14-.31.26-.46 3.79-4.56 8.87-7.95 14.52-10.6l6.76 1.2c-2.7.94-5.38 1.98-7.93 3.24.18.34.15.76-.3 1.02a344.18 344.18 0 0 0-9.4 5.77c-.43.45-.85.91-1.25 1.4-.47.56-1.08.65-1.61.46 0 0 8.63-5.65 0 0zm73.35 260.52c-2.84-4.92-7.16-11.24-6.85-17.14.01-.32.54-.3.56.02.24 5.9 4.5 11.49 7.04 16.63-.05-.1-.11-.23 0 0l.04.08c.23.45-.54.85-.8.41zm8.9.44c.28.77.47 1.3 0 0zm3.6-1.32c.22.68-.83 1.07-1.05.38a39.66 39.66 0 0 1-2.07-15.44c.03-.34.6-.32.6.02.1 5.1.91 10.19 2.51 15.04zm3.02-2.64c.09.77-1.1.88-1.2.12-.47-4.24-1.5-8.43-1.64-12.7-.02-.43.61-.5.68-.06.6 4.23 1.64 8.4 2.16 12.64 0 0-.1-.76 0 0zm4.77.06c-.01.55-.87.65-.87.08-.04-4.18-.7-8.3-.17-12.48.05-.4.61-.27.6.1-.23 4.07.5 8.1.44 12.15 0-.09 0-.16 0 0zm11.9-.9c-.25.73-1.3.29-1.24-.4.37-3.95.62-8.2 1.42-12.08.11-.56 1.03-.57 1.03.04.06 4 .1 8.62-1.21 12.43 0 0 .26-.74 0 0zm8.54-8.55a28.8 28.8 0 0 0 1-8.8c-.02-.34.46-.37.51-.05.48 3.04.34 6.06-.46 9.03-.17.66-1.22.49-1.05-.18 0 0-.73 2.9 0 0zm5.15.22c-.27.65-1.28.18-.99-.46 1.11-2.47 1.65-5 1.48-7.7-.03-.54.77-.62.82-.09.3 2.87-.17 5.6-1.3 8.23.05-.1.23-.54 0 0v.02zm4.48-1c-.2.89-1.51.65-1.4-.25.3-2.14.73-4.25 1.18-6.37.17-.8 1.38-.6 1.27.22-.3 2.15-.6 4.28-1.05 6.4 0 0 .2-.89 0 0zm3.88 1.05v.01c-.48.7-1.72-.1-1.27-.8a10.95 10.95 0 0 0 1.87-5.86c0-.92 1.43-1.08 1.45-.14.07 2.51-.65 4.72-2.05 6.8zm106.62-92.1l.01.06c.1.9-1.22 1-1.38.13-.55-3.04-.71-6.2.07-9.22.15-.57 1.12-.63 1.11.04-.03 3.01-.14 6 .2 9zm4.63-6.58c.01 1.1-1.7 1.28-1.72.17-.1-5.8.66-11.57.1-17.35-.08-.66.86-.71.98-.1 1.15 5.59.57 11.24.63 16.89 0-.1 0-.15 0 0v.4zm-24.83 4.1c.04-.26.43-.18.41.08-.26 3.25-.05 6.52.1 9.78.03.48-.73.55-.75.07-.12-3.33-.18-6.62.24-9.93 0 0-.03.27 0 0zm2.47-19.89c-.25-.54.59-.82.84-.31 1.9 3.83 3.33 7.93 2.95 12.26-.05.6-1.05.55-1.06-.04-.07-4.2-1-8.08-2.73-11.91 0 0 .24.54 0 0zm5.87-.02c-.11.66-1.12.48-1.03-.18.56-4.3-1.39-8.34-1.62-12.56 0-.29.39-.31.44-.04.87 4.23 2.93 8.34 2.2 12.78 0 0 .11-.67 0 0zm3.8-18.12c-.44-2.98-1.02-5.9-2.4-8.62-.17-.3.36-.57.52-.28 1.55 2.75 2.27 5.74 2.84 8.81.12.61-.87.72-.96.1 0 0 .43 2.98 0 0zm-232.94 15.28c5.82 2.8 11.78 7.77 14.54 13.74 5.58 12.1-.18 25.03-12.04 30.58-11.27 5.29-25.53 2.36-30.4-10.3-3.88-10.1.21-23.36 8.83-30.18h-.05c-1.25-.03-1.44-1.98-.19-1.93 6.54.22 12.79-5.04 19.3-1.9 6.52 3.12 0 0 0 0zm11 10.59c-3.81-4.54-10.35-10.95-16.86-9.78-3.98.72-7.5 2.57-11.46 2.96-6.98 7.59-13.76 17.69-9.66 28.4.88 2.3 2.07 4.32 3.5 6.06a13.54 13.54 0 0 1-1.1-6.9 21.49 21.49 0 0 1-1.4-4.08c-.02 1.62.05 3.24.2 4.85.04.24-.35.28-.38.03-.2-2.16-.25-4.36-.15-6.55-.16-1.1-.25-2.22-.22-3.37-.27.66-.55 1.31-.86 1.95-.08.15-.3.04-.24-.11a80 80 0 0 1 1.1-2.92c.03-.23.07-.51.13-.82.08-.62.18-1.23.31-1.86.01-.06.1-.04.1.02-.05.6-.12 1.28-.24 1.94l.97-2.4c.07-.16.33-.08.29.09-.66 2.89-.98 5.85-1.02 8.82.13.52.27 1.04.45 1.55.3.84.64 1.64 1.02 2.43l.06-.45c.01-.06.06-.1.11-.1.24-2.26.95-4.53 1.38-6.76.04-.16.3-.12.27.05-.38 2.28-1.2 4.8-1.3 7.23l1.01 2.2c.07-.56.12-1.12.18-1.44.3-1.68.57-3.37.86-5.06.03-.22.4-.22.4.02.06 1.73-.07 3.41-.2 5.14-.08 1.17-.2 2.36-.11 3.53l.05.09c.16.2.33.4.49.62l.06-.17.45-1.48c.27-1.7.57-3.38.87-5.07.05-.3.5-.22.46.08-.14 1.5-.38 2.97-.74 4.4-.1.67-.21 1.33-.3 2l-.05.3c.31-.97.6-1.94.79-2.94a84.03 84.03 0 0 0 .9-5.3c.07-.3.53-.22.49.09a86.22 86.22 0 0 1-.55 3.52 58.6 58.6 0 0 0-.2 3.7c.06-.11.25-.14.3.01.08.24.18.48.27.7.45-.68 1-1.52 1.18-1.87.1-.24.51-.13.44.14-.13.53.09-.26.5-.46.2-.09.36.23.18.32-.42.23-.54.75-.9 1.04-.13.1-.33 0-.35-.16-.04-.43.07.34-.29.9-.15.25-.3.5-.47.75.07.15.16.29.24.43 2.3 1.32 4.66 2.5 7.11 3.53.09.04.02.17-.06.13-2.38-1-4.68-2.14-6.92-3.42a9.79 9.79 0 0 0 5.87 4.61c.54-.07 1.11-.2 1.71-.38.1-.03.14.1.05.13-.47.16-.92.27-1.37.36 1.74.37 3.61.21 5.44-.65.13-.06.25.16.12.24a7.62 7.62 0 0 1-6.54.55 8.6 8.6 0 0 1-1.02.03c2.15.89 4.4 1.2 6.64 1.03a9.36 9.36 0 0 1 5.9-2.64c.22-.02.25.32.03.33-2.1.1-3.97.94-5.52 2.28.9-.1 1.8-.26 2.68-.5.04-.02.07.05.02.06-.9.26-1.84.42-2.8.52l-.6.56c-.1.11-.29-.04-.18-.15l.39-.38c-2.1.15-4.27-.1-6.17-.82 3.18 2.15 6.62 3.6 10.62 1.99.16-.07.26.18.1.25-4.36 1.79-8.06-.06-11.49-2.53a7.64 7.64 0 0 1-1.1-.17c.67.5 1.36.96 2.08 1.42.15.1.04.36-.13.26-.99-.6-1.94-1.24-2.87-1.94a9.89 9.89 0 0 1-4.62-3.72c-.07.15-.12.32-.18.48-.12.28-.53.12-.5-.16l.14-1.1-.07-.13c-.09.25-.18.5-.28.73-.1.22-.38.13-.42-.07a14.4 14.4 0 0 1-.23-2.28c-.23-.31-.46-.63-.67-.95l-.28 1.28c-.06.27-.41.3-.52.04a9.23 9.23 0 0 1-.72-2.93c-.03.46-.04.87-.01 1.02a13.6 13.6 0 0 0 1.88 5.47 19.73 19.73 0 0 0 5.55 4.14c-.38-.76-.84-1.55-.87-1.6-.07-.1.09-.2.16-.1.5.7.95 1.33 1.3 2 5.9 2.7 13.05 2.43 19.45-1.34 11.4-6.72 17.43-20.47 7.93-31.8-9.5-11.31 0 0 0 0zm-33.22 24c0-2.07.28-4.11.29-6.21a33.48 33.48 0 0 1-.79 5.24l.5.97zm-.9-.6c-.3-.45-.57-.91-.82-1.39l.07.57.01.04c.36 1.84.58 1.59.74.79zm4.44 3.12l-.53.85a.29.29 0 0 1-.25.12 32.84 32.84 0 0 0 3.81 3.37c.37.13.75.23 1.15.3a9.02 9.02 0 0 1-2.93-2.37 8.08 8.08 0 0 1-1.25-2.27c-.31-.85 0 0 0 0zm.9 1.42c.23.35.49.7.76 1.01 1 .76 2 1.54 3.04 2.27.3.03.61.04.94.03a11.31 11.31 0 0 1-5.42-4.81c.28.64.6 1.38.68 1.5.08.12 0 0 0 0zm-2.51-.8a11.1 11.1 0 0 0 3.3 3.12c-1.19-.96-2.3-2-3.3-3.11-1.01-1.11 0 0 0 0zm.64.16c0-1.17.04-2.33.08-3.49-.22.9-.5 1.8-.83 2.7.24.27.5.52.75.79.25.26 0 0 0 0zm-5.98-18.06c-.25.71-.51 1.42-.8 2.13-.04 1.1 0 2.2.13 3.3.09-1.66.27-3.3.56-4.91l.01-.08.1-.44zm9.34 1.4v.01c.49 2-.41 4.05-1.57 5.62-.2.27-.6.27-.83.07-2.43-1.98-2.67-4.7-.96-7.02l-.07-.01c-.75-.18-.67-1.16.05-1.3 1.68-.33 3.02 1.13 3.38 2.63zm-1.21.6v-.02c-.2-1-.66-1.41-1.37-1.68-1.15 1.96-1.23 3.86.45 5.46.67-1.11 1.17-2.46.92-3.76zm5.02-.53c.04 1.12.14 2.2.13 3.26.51-3.2.58-6.42.27-9.67-.53-.03-.98-.22-1.08-.83-.44-2.52-.06-4.96 2.77-5.68.19-.04.32.18.16.3l-.06.05c1.4.32 3.9 1.06 3.4 2.97-.36 1.4-2.06 2.32-3.3 2.8-.42.15-1.12.38-1.74.4.28 2.6.38 5.24.07 7.84-.07.7-.3 1.58-.5 2.37-.02.7-.1 1.4-.28 2.12.4-.95.77-1.9 1.08-2.9.04-.16.29-.13.25.04-.5 1.92-.66 3.81-.76 5.8-.06 1.14 1.8-1.38 2.05-1.7.05-.05.18-.04.2.04.48 1.99 1.26 3.87 1.62 5.88 0 .06-.08.07-.1.01-.34-1.7-1.05-3.22-1.5-4.88-.23-.89-2.15 1.55-2.36 1.8-.1.11-.26.01-.25-.12.1-1.94.26-4.15.75-5.71-.55 1.77-1.5 3.44-2.26 5.14-.05.1-.2.04-.19-.06.38-3.09 1.09-6.1 1.48-9.15v-.1c0-.02.02-.02.02-.03.25-1.88.37-3.77.2-5.7 0-.04.05-.04.06 0a27.1 27.1 0 0 1-.14 5.7v.01zm.9-7.56l.05-.01c.3-.07.1-.02 0 0 .42-.1.84-.25 1.24-.44.75-.36 1.83-.91 2.17-1.73.45-1.07-1.86-1.46-2.46-1.58-.35-.08-.5-.37-.5-.64-.54.43-1.03.92-1.19 1.64-.19.88-.04 1.76.13 2.63.05.23.08.23.56.13zm-1.02 8.43c-.16 1.14-.35 2.3-.56 3.46-.17.92-.18 3.2-.48 3.85.29-.62.57-1.23.83-1.85-.07 0-.14-.03-.12-.12l.27-1.27c.17-1.36.1-2.71.06-4.07-.05-1.36 0 0 0 0zm15.42-6.73c-.4-.62.32-1.44.98-.91l.45.36a6.55 6.55 0 0 1 1.79 1.94c.5.9.63 1.8.55 2.84-.04.36-.5.7-.85.6-1.29-.4-3.35-1.02-3.83-2.49-.31-.99.16-1.8.9-2.34.75-.53 0 0 0 0zm.4 1.94c.4.55 1.14.89 1.86 1.14-.2-.92-.8-1.59-1.5-2.27-.34.38-.6.81-.36 1.13.23.31 0 0 0 0zm-10.05 1.75h.02c2.6-1.35 5.4-.3 6.23 2.57.8 2.76-.56 5.73-2.9 7.24-.3.2-.61.16-.9-.04-2.73-1.88-4.06-5.25-2.78-8.43l.01-.04a.88.88 0 0 1 .32-1.3zm.67 1.5v.16c-.4 2.71-.05 4.99 2.23 6.65 1.47-1.23 2.43-3.26 1.82-5.17-.64-2.05-2.21-2.33-4.05-1.64-1.85.69 0 0 0 0zm-2.33 18.69c-3.99 1.87-8.26-3.48-6.67-6.84a.6.6 0 0 1 .38-.62c.3-.39.7-.74 1.22-1.03.26-.14.52.2.27.38-.22.15-.4.32-.57.5 3.6-.03 9.76 5.55 5.37 7.6-4.39 2.07 0 0 0 0zm-5.95-6.17c-.05 0-.1 0-.15-.02-.65 3.04 2.96 7.18 5.8 5.06 1.53-1.14-.4-2.87-1.43-3.59l-.02-.01a6.95 6.95 0 0 0-4.2-1.44zm4.2 1.44c-.9-.63-.14-.1 0 0zm16.42-1.54c-.12 2.15-2.03 3.96-3.98 4.58-.3.1-.59 0-.78-.24-.66-.81-1.33-1.84-.96-2.92.23-.65.7-1.17 1.2-1.67-.46-.3-.57-1.15.1-1.45.94-.43 2.4-.99 3.4-.37.75.47 1.08 1.2 1.02 2.07zm-2.98-.6c-.02.01-.02.04-.04.06-.45.64-1.1 1.26-1.45 1.97-.33.67 0 1.22.43 1.73 1.23-.55 2.38-1.64 2.57-3 .16-1.13-.7-1.05-1.51-.77-.81.29 0 0 0 0zm-22.06-60.55c-6.64-12.25 1.43-25.86 10.17-34.66.1-.1.26.04.17.14l-.86.97c18.25-15.63 35.66 22.34 21.32 36.8-8.62 8.7-24.54 8.3-30.8-3.25-6.26-11.54 0 0 0 0zm-.15-2.9a18.6 18.6 0 0 0 7.75 8.3h.02c-6.66-4.38-11.57-11.67-6.9-19.52.08-.13.23-.12.32-.04a24.7 24.7 0 0 1 7.24-14.23c.07-.07.19.03.12.1-8.94 8.59-10.42 24.54-.46 32.78a74.2 74.2 0 0 0-.08-1l-.11-1.03a12.92 12.92 0 0 1-1.04-7.86c.01-.07.11-.06.12.01.37 2.53.71 5.08.96 7.62.14.3.29.58.45.86.28-.15.49-.33.63-.56a14.1 14.1 0 0 1-.63-7.64c.02-.1.2-.14.24-.02.66 2.37 1.16 4.85.68 7.23.24.7.51 1.4.85 2.07.78 1.55.91-1.87.94-2.24l.04-.46c-.36-2.28-.15-4.6.65-6.88.04-.12.24-.05.22.07-.28 1.7-.4 3.4-.54 5.1.14 1.55.48 3 1.06 4.43.6-1.61 1.27-3.16 1.5-4.9.02-.18.18-.25.33-.23.08-.33.2-.66.33-.98l-.26-.09c-.68-.25-.32-1.4.38-1.21l.47.12.13-.26c.15-.3.58-.08.46.22l-.08.2c.8.25 1.63.6 2.1 1.25.79 1.08.33 2.46-.1 3.59-.09.2-.33.3-.53.27-.83-.14-1.88-.38-2.48-1.02a11.68 11.68 0 0 0 2.58 5.6c.16.21-.15.49-.34.31a9.55 9.55 0 0 1-2.83-5.65c-.38 1.29-.91 2.53-1.34 3.84-.1.29-.5.2-.6-.03-.44-.98-.75-1.99-.96-3-.1 1.13-.22 2.25-.42 3.37-.03.15-.25.2-.33.07a17.1 17.1 0 0 1-1.4-2.8c-.1.32-.2.64-.34.95-.03.07-.13.08-.17.02-.24-.4-.45-.79-.65-1.2l.15 1.9c.36.3.73.59 1.13.86a.1.1 0 0 1 .04.1c1.13.7 2.28 1.33 3.42 1.89 6.38 1.59 13.42-.07 17.82-6.17 5.52-7.66 4.86-18.65.72-26.84-1.87-3.7-4.66-7.82-8.76-9.3-5.46-1.96-9.83 1.01-13.73 4.6a.93.93 0 0 1-1.5-.35c-6.06 7.8-11.54 18.53-7.27 27.78 4.28 9.25 0 0 0 0zm7.01 6.8c-4.94-4.57-6.7-11.18-5.88-17.62-3.8 7.11.24 13.34 5.88 17.62zm8.06-4.05c.1.95 1.1 1.2 1.95 1.32.25-.78.54-1.9-.27-2.33-.45-.25-.94-.4-1.44-.56-.18.53-.3 1.06-.24 1.57.06.5 0 0 0 0zm-5.82 1.8c.12-1.38.08-2.75-.2-4.11-.74-3.5-.72-1.04-.61.33.1 1.37.38 2.7.79 3.98l.02-.2c0-.08 0 0 0 0zm-1.63-1.71c-.15-1.2-.32-2.38-.5-3.57-.38-2.56-.38.85-.35 1.19a11.88 11.88 0 0 0 1.09 4.5c-.08-.7-.14-1.42-.24-2.12-.1-.71 0 0 0 0zm-1.66-13.15l.4-.25a.5.5 0 0 1 .72.63c1.13.55 2.15 1.58 2.21 2.8.08 1.85-1.16 3.2-2.45 4.37-.27.24-.8.2-1.05-.05-1.13-1.07-2.24-2.46-2.1-4.12a3.96 3.96 0 0 1 1.2-2.54c-.03-.5.31-.97.97-.87l.1.03zm.36 5.65c.56-.6 1.1-1.3 1.14-2.08.05-.95-.94-1.35-1.7-1.74a2.52 2.52 0 0 0-.58 1.63c.08.9.54 1.59 1.14 2.2zm-1.14-2.2c.04.48.01.1 0 0zm3.95-10.95c-.07-1.19-.06-2.71.81-3.65.43-.47.95-.81 1.51-1.1.13-.38.5-.5.82-.4l.65-.29c.26-.11.48.3.23.45l-.45.28.04.1c.14 1.1.37 2.6.01 3.68-.42 1.24-1.78 1.46-2.93 1.5-.33.01-.67-.2-.69-.57-.02-.36 0 0 0 0zm1.22-.78c.68-.12 1.15-.4 1.1-1.29-.02-.52-.08-1.04-.1-1.56a3.83 3.83 0 0 0-1 2.85c.03 1.22 0 0 0 0zm10.26.63l-.1-.14c-.09-.15-.05-.09 0 0-.8-1.26-1.46-2.76-1.36-4.27.03-.54.16-1.02.48-1.47.1-.12.2-.2.3-.25-.02-.48.48-.93.98-.68 1.19.6 2.52 1.77 2.84 3.11.35 1.53-.75 2.79-1.78 3.76-.39.36-1.04.45-1.36-.06zm0-4.12c.1.83.45 1.56.86 2.27.48-.54.86-1.2.48-1.78-.36-.54-.85-.98-1.3-1.45-.05.32-.09.64-.05.96.04.32 0 0 0 0zm-5.07 10.81c-.64-.44.07-1.54.75-1.15l.52.3a.5.5 0 0 1 .36.2c.87.5 1.8 1.16 1.98 2.08.3 1.5-1.81 2.32-2.86 2.77-.26.11-.69 0-.83-.26-.43-.79-.82-1.7-.44-2.58.2-.45.5-.82.8-1.2-.1-.05-.2-.1-.28-.16-.08-.05 0 0 0 0zm.82 2.62c.65-.3 1.57-.76 1.32-1.08-.25-.3-.57-.55-.9-.77-.14.23-.28.47-.4.71a1.2 1.2 0 0 0-.02 1.14c.16.36 0 0 0 0zm11.58 5.77l.1.07c.06.05.03.03 0 0 .77.6 1.68 1.42 1.82 2.44.19 1.37-.93 2.48-1.84 3.33-.28.27-.61.3-.94.08-2.11-1.47-1.43-3.54-.81-5.64.12-.4.58-.44.8-.22.22-.2.58-.28.87-.06zm.42 2.56c-.3-.59-.88-1.05-1.29-1.57-.26 1.26-.6 2.63.38 3.54.55-.56 1.22-1.34.9-1.97-.3-.63 0 0 0 0zm-1.56-12.68c.05-.07.12-.13.18-.18.1-.46.76-.76 1.17-.49.16-.04.31-.09.47-.16.16-.09.29.18.14.27-.1.07-.2.16-.3.27.6.98 1.35 1.97 1.6 3.1.29 1.2-.27 2.24-.95 3.18-.24.32-.84.39-1.13.1-1.06-1.11-2.25-2.61-2.01-4.26.1-.7.38-1.28.83-1.83zm1.56 4.17c.27-.62.27-1.23-.17-1.94-.23-.37-.44-.75-.65-1.12-.16.38-.26.76-.22 1.05v.03c.12.77.54 1.41 1.04 1.98zm141.5 92.2c-2.95-3.84-4.43-7.8-4.66-11.67-.22-.58-.43-1.15-.67-1.72 0-.02-1.7 3.42-1.8 3.68-.09.22-.39.16-.47-.02-1.04-2.18-.93-4.58-.2-6.98-.14-.02-.27-.11-.23-.27 1.05-3.88 3.61-7.73 6.73-10.78l.3-.38c.03-.05.08-.05.12-.03a26.38 26.38 0 0 1 4.54-3.44c.15-.08.37-.08.46.08.15.26.24.48.31.68 4.2-14.66 21.07-4.14 27.07 3.61 8.31 10.76 11.61 26.84-1.74 35.36-9.75 6.23-23.33.22-29.76-8.12zm1.57-29.37a31.88 31.88 0 0 0-5.68 6.17 31.1 31.1 0 0 0-1.87 3.53c-.82 1.86-1.76 3.89-1.85 5.96-.3 6.65 1.6.28 1.98-1.05.07-.25.4-.31.52-.05l.64 1.6c.15-6.01 3.3-11.7 8.62-16.15-.23-1.62-.93-1.21-2.36 0zM83 288.58c-3.35-4.81-7.83-9.85-13.46-12-5.57-2.14-8.91-.2-11.62 4.05.15.03.25.22.1.33-.2.14-.38.29-.56.43-.22.37-.43.75-.63 1.14-.23.42-.78.53-1.16.35l-.1.1-.05.25c-.03.15-.21.17-.3.08-5.49 5.15-8.63 11.89-7.42 18.71 1.46 3.5 3.15 6.85 6.1 9.4.35.3-.09.8-.45.53a13.67 13.67 0 0 1-2.2-2.1l.5.68c5.74 7.29 16.98 13.52 26.28 9.24 12.81-5.9 11.98-21.12 5-31.16l-.03-.03c-6.73-9.68-.4-.58 0 0zm-25.5 5.44c-.29.84-.04.1 0 0-.37 1.1-1.43 1.5-2.5 1.6-.35.04-.76-.24-.68-.63a10 10 0 0 1 1.85-3.73v-.04c.05-.25.2-.4.36-.48l.24-.35c.1-.13.32 0 .25.14l-.07.17c.26.07.48.29.48.65 0 .9.36 1.77.06 2.67zm-1.3-.94l-.06-.6a8.55 8.55 0 0 0-.54 1.71c.4-.2.66-.52.6-1.1-.07-.6 0 0 0 0zm4.48-8.66c.5-.38 1.18-.44 1.63-.89.23-.23.53.12.39.37l-.09.1a.7.7 0 0 1 .33.29c-.12-.21.17.23.15.2.08.12.17.24.24.37.17.3.27.66.23 1-.16 1.25-1.88 1.38-2.83 1.46-.3.02-.61-.15-.66-.48l-.02-.1c-.1-.82-.08-1.78.63-2.32zm.42 1.65c.38-.07.77-.17 1.03-.39 0-.02-.01-.03-.03-.05-.14-.26-.3-.54-.34-.83l-.18.13c-.44.32-.52.7-.48 1.14.05.44 0 0 0 0zm13.47 5.46v.07c-.03.4-.42.7-.82.66-1.21-.14-2.6-.6-3.12-1.83a3.6 3.6 0 0 1-.25-1.31.72.72 0 0 1 .19-1.02c.07-.12.17-.22.2-.3.13-.22.44-.2.5.05.01.04.1.17.14.3.7.41 1.54.45 2.23.88.87.56 1 1.55.93 2.5zm-7.49 8.32a5.15 5.15 0 0 1-2.12 3.24c-.23.17-.61.17-.8-.09-.48-.7-1.46-1.46-1.72-2.3-.24-.76.12-1.46.46-2.14.15-.31.81-1.88 1.5-1.52.82-.04 1.54.11 2.22.65.85.66.68 1.22.46 2.16-.21.94 0 0 0 0zm-1.29-.83c-.44-.38-.95-.51-1.55-.51.07.05.02.18-.08.15a.28.28 0 0 1-.19-.2.56.56 0 0 1-.26-.19c-.12.34-.21.72-.3.98-.16.55-.3.97.13 1.42l1.1 1.18c.4-.38.74-.8.89-1.33v-.03c.14-.48.2-.98.26-1.47zm-4.94 9.32c-.2.9-.89 1.6-1.85 1.64a2.58 2.58 0 0 1-2.35-1.3c-.24-.4-.36-.84-.4-1.3-.75.2-1.42-.77-.72-1.3.31-.23.65-.43.98-.64l.14-.42c.1-.29.51-.27.66-.07l.95-.56c.33-.2.8-.02 1.03.25.82.92 1.86 2.37 1.56 3.7-.3 1.34 0 0 0 0zm-.83.07c-.03.01-.42-.01-.6-.01.19 0 .6.03.6.01zm12.29 7.04c-1.26.08-3.2.17-3.9-1.18-.44-.88-.2-1.88.2-2.77-.04-.28.12-.57.36-.74l.19-.35c.2-.38.76-.18.63.25l-.01.04.06.02c.78.46 1.72.63 2.41 1.24.84.73.86 1.85.65 2.86v.02c-.07.28-.27.59-.6.6zm-.76-1.33c.03-.49-.04-.95-.56-1.18-.56-.25-1.12-.47-1.65-.76-.11.53-.15 1.06.04 1.44.33.66 1.4.6 2.17.5.77-.1 0 0 0 0zm9.05-8.35v.02c.76 2.57 1.04 5.27-1.91 6.4-.45.18-.86 0-1.1-.4-1.28-2.34-1.82-5.23 1.16-6.18l.14-.05h.01c.25-.63 1.45-.66 1.7.21zm-1.98 4.55c1.2-1 .71-2.65.29-4.14-1.5 1.14-1.1 2.68-.29 4.14zm-.35-9.13c-.25.3-.71.42-1.05.15-1.26-1.03-2.58-2.62-2.32-4.38.23-1.5 1.28-2.44 2.67-2.92.34-.11.56.34.24.51-2.46 1.27-2.02 3.53-.37 5.05.24-.54.43-1.1.75-1.62.58-.93 2.07.13 1.39 1.03-.52.68-.76 1.51-1.3 2.18 0 0 .24-.3 0 0zm-140.2 18.27v.01c.1.41.01.07 0 0 .2.78.9 1.5.88 2.32-.02 1.21-.88 1.89-1.86 2.45-.3.18-.72.23-1-.04-.8-.77-1.76-1.85-1.39-3.07.3-1 .97-1.76 1.53-2.62.27-.4 1-.06.85.4l-.01.04c.4-.09.87.05 1 .51zm-1.53.75c-.12.29-.24.57-.31.87-.15.6.12 1.06.5 1.46.38-.25.62-.55.35-1.06v-.02c-.22-.42-.4-.81-.54-1.25zm9.9-6.44c-.02.71.17 1.53-.1 2.2-.42 1.1-1.75 1.27-2.77 1.35-.27.02-.59-.14-.67-.42-.3-1.02-.7-2.56.21-3.4.7-.64 1.83-.62 2.7-.8.32-.08.47.32.32.54.18.11.31.28.3.53 0 .25 0 0 0 0zm-1.42 1.45v-.04c-.05-.37-.02-.11 0 0-.07-.54-.17-1.04 0-1.56-.4.1-.79.22-1.08.45-.52.41-.25 1.26 0 1.9.51-.07 1.13-.22 1.08-.75zm8.37 3.9c.22-.71.99-1.71 1.81-1.74a.83.83 0 0 1 1.04 0c.33.26 1.1.17 1.5.3.42.14 1.06.45 1.06.97 0 1.26-.4 2.33-1.3 3.2-.26.26-.62.4-.97.22-1.09-.56-1.98-1.34-2.95-2.07v-.01c-.3-.22-.29-.57-.2-.87zm1.54 0c.58.4 1.15.81 1.75 1.17.21-.32.35-.66.4-1.05-.29-.06-.61-.03-.89-.08-.38-.06-.7-.19-1.02-.4-.1.1-.18.23-.24.36-.06.14 0 0 0 0zm-5.04 4.66c.18.52.34 1.03.33 1.56-.01.99-.84 1.5-1.65 1.88-.18.08-.44 0-.54-.17-.43-.7-1.64-2.36-.78-3.18.35-.33.91-.4 1.47-.43a3.77 3.77 0 0 1-.03-.85c.05-.52.75-.4.85.03.05.25.12.5.2.75.25-.04.33.3.15.41-.18.11 0 0 0 0zm-.88.94l-.2-.7c-.3.05-.59.12-.86.24-.56.27.15 1.32.58 1.91.54-.35.72-.7.48-1.45zm12.68 24.97c-28.25 14.43-.45.23 0 0a26.7 26.7 0 0 1-23.52.2c.29.29.57.58.86.85.05.05-.01.12-.06.08l-1.06-1.06a21.12 21.12 0 0 1-10.17-10.93c-3.88-9.55-4.03-25.68 7.9-28.8l.04-.08c15.23-17.77 54.49 25.19 26.01 39.74zm2.4-3.67a33.63 33.63 0 0 1-6.63 3.7 23.49 23.49 0 0 0 6.63-3.69c1.15-.93 0 0 0 0zm-11.78 4.64h-.01a1.02 1.02 0 0 1 .01 0zm-3.22-5.24c.14-1.22.24-2.44.3-3.67-.25.4-.56.74-.97.97l-.1.04.03.28c.08.67.34 5.89.74 2.38.4-3.5 0 0 0 0zm-3.03-3.95l.09-.46c.2-1.37.27-2.73.31-4.1-.21-.11-.43-.2-.64-.3-.36.28-.73.6-1.02.97.21 1.04.35 2.1.44 3.15a6.47 6.47 0 0 0 .82.74c.11.08 0 0 0 0zm-.75.8c.01.44.03.88.02 1.32-.04 1.3.26.18.5-.97a4.5 4.5 0 0 1-.52-.35c-.17-.13 0 0 0 0zm-.62-4.54c-.2.3-.34.62-.37.97-.05.68.28 1.3.72 1.81-.08-.93-.18-1.86-.35-2.78-.17-.92 0 0 0 0zm1.54 3.85c.55.36 1.17.54 1.7.11l-.5-4.21c-.24-.18-.5-.34-.77-.48a26.65 26.65 0 0 1-.43 4.58c-.3 1.5 0 0 0 0zm1.92-.11l.04-.03c.57-.71.72-1.75.38-2.6-.2-.48-.51-.85-.88-1.16a469 469 0 0 1 .46 3.79c.15 1.26 0 0 0 0zm-10.3-5.61c.45-.53.8-1.16.55-1.8-.26-.71-.8-1.29-1.36-1.82l-.09.09c.32 1.16.61 2.35.9 3.53.3 1.18 0 0 0 0zm-1.04-3.4c-.44.47-.79 1.01-.7 1.62.13.9.76 1.56 1.44 2.12l.08-.1c-.28-1.22-.53-2.45-.82-3.63-.29-1.18 0 0 0 0zm2.22-.17c.45.56.77 1.2.8 1.9 0 .56-.11 1.05-.33 1.5a34.25 34.25 0 0 0 1.78 5.63c.01.04.08.16.18.33-.25-2.56-.46-5.13-.8-7.68-.18-1.31-.35-2.63-.6-3.93-.04-.13-.79-4.8-1.04-1.65-.1 1.3-.08 2.6.01 3.9.1 1.3 0 0 0 0zm-.8 5c.38 1.43.8 2.84 1.34 4.2.44 1.1.86 2.27 1.6 3.2.57.73.52-.77.42-1.83-1-2.15-1.82-4.42-2.33-6.74a6.4 6.4 0 0 1-1.03 1.18c-.4.36 0 0 0 0zm26.04-2.18c-.24 2.82-.34 5.65-.78 8.45-.04.22-.37.16-.34-.05.33-2.07.48-4.16.63-6.25-.15.15-.46.07-.42-.2l.6-3.4.05-.18c.15-1.23.22-2.47.08-3.7-.23-2.03-.16-1.82-.52.2-.28 1.55-.52 3.12-.84 4.67-.45 2.11-.99 4.13-1.73 6.15-.1.26-.36.2-.5.04-.4.96-1.37 1.55-2.3 1.96-.1.04-.2.04-.3.02l-.6 3.7c-.04.25-.44.25-.44 0 0-1.55.12-3.16.26-4.8-.26-.72-.38-1.5.12-2.1l.04-.04v-.03a5.95 5.95 0 0 0-1.75 1.88c-.21.32-.54.33-.8.19a74.7 74.7 0 0 1-.75 3.32c-.04.17-.28.17-.3 0-.35-3.77.1-7.53.27-11.28a5.41 5.41 0 0 1 .03-4.22c-.04-.8-.1-1.57-.2-2.36 0-.08.11-.09.12-.01.1.7.16 1.4.2 2.1.34-.64.82-1.21 1.44-1.7-.4-.68-.87-1.34-1.44-1.97-.04-.03 0-.09.04-.05.6.6 1.08 1.26 1.5 1.94.21-.16.44-.3.68-.45.36-.2.82.22.51.55l-.5.58c.16 0 .3.04.47.15 1.15.76 2.9 2.41 2.12 4-.3.6-.8 1.02-1.38 1.32.15 1.41.16 2.85.1 4.29.2-.03.37-.05.56-.04.7-4.24 1.46-8.45 2.45-12.64.07-.3.48-.27.54.02.86 4.3.29 8.42-.01 12.75-.27 3.85.5-1.3.6-1.83.23-1.03.44-2.06.63-3.1.38-2.08.76-4.16 1.24-6.22.07-.33.5-.3.56.02.23 1.2.35 2.35.4 3.5l.03-.19c.05-.25.43-.18.39.07l-.5 3.04c-.06.62-.15 1.26-.26 1.9-.1.63 0 0 0 0zm-6.93-1.47c-.4.18-.83.31-1.27.41-.28 1.76-.59 3.5-.9 5.26.6-.68 1.38-1.2 2.21-1.42.07-1.43.08-2.86-.04-4.25zm-1.54.47l-.96.17c-.31.05-.6-.13-.77-.39-.15 2.89-.43 5.77-.27 8.68.11 2.03.24.9.5-.35l.15-.82a.75.75 0 0 1-.13-.76c.11-.28.27-.55.44-.82.11-.55.23-1.1.33-1.66.25-1.35.48-2.7.71-4.05.24-1.36 0 0 0 0zm.7-3.94c-.3-.27-.59-.52-.77-.7a.94.94 0 0 1-.18-.25 3.8 3.8 0 0 0-.27 3.28c.26-.04.56-.11.84-.2l.38-2.13c.12-.71 0 0 0 0zm-.14 2.05a2 2 0 0 0 .74-.42c-.08-.44-.18-.87-.3-1.3l-.14-.16-.3 1.88c-.1.63 0 0 0 0zm2.58 7.24c-.2.15-.4.31-.57.48l-.2 1.28.06.18c.73-.5 1.68-1.42.71-1.94zm1.58-.15c.17-2.4.48-4.78.58-7.18.02-.5.4-8.72-.66-3.67-.65 3.11-1.2 6.26-1.73 9.4.22.05.44.11.65.22.27-.14.58.13.58.4.26.23.45.52.58.83.13.3 0 0 0 0zm43.27-8.09c-.32-.54.3-1.32.89-.98l.35.23c.83-.3 1.78-.32 2.73-.08.3.08.22.51-.08.48-.64-.06-1.29 0-1.87.2.88.79 1.58 1.8 1.65 2.96.12 1.72-.78 2.94-2.08 3.96-.26.2-.75.2-.98-.04-1.38-1.48-2.47-3.74-1.4-5.72.22-.4.49-.73.8-1.01zm.64.87c-.14.2-.26.4-.34.65-.46 1.28.01 2.48.83 3.44 1.24-1.47.54-2.7-.49-4.09zm3.6-7.78c0-.34.14-.7.5-.85.86-.36 1.57-.96 2.48-1.22.67-.19 1.34.3 1.23 1.03-.11.73-.13 1.5-.37 2.2-.24.72-.74 1.33-1.2 1.91a.8.8 0 0 1-1.12.1c-.7-.64-2.38-2.08-1.51-3.17.86-1.1 0 0 0 0zm1.2.69l.04.08c.19.22.4.42.62.6.19-.3.35-.62.4-.96v-.12c-.33.16-.68.3-1.06.4-.38.1 0 0 0 0zm11 2.71l-.02-.02c-.6-.59.12-1.55.78-1.18.16-.18.33-.31.5-.3 1.6.06 1.59 1.08 2.43 2.17.16.2-.15.49-.34.3-.23-.23-1.34-1.95-1.78-1.43 1.28 1.3 2.16 2.65 2.04 4.66-.02.32-.36.6-.66.61-1.11.07-2.43.04-3.3-.76-.7-.65-.69-1.64-.42-2.48l.01-.03c.18-.55.45-1.05.76-1.54zm.38 1.93c-.27 1.29.7 1.48 1.72 1.45-.15-1-.65-1.8-1.31-2.55-.18.36-.33.73-.41 1.1-.08.38 0 0 0 0zm-9.2 2.64c-.33 3.91-.4 7.85-.14 11.77-.23-.14-.47 0-.54.22-.28-.2-.62-.34-1.08-.39-.07 0-.12.02-.17.05.75-3.87 1.6-7.78 1.93-11.65zm-2.73 12.24l-.1-.23.1.23zm5.96-8.45a4 4 0 0 1 1.64 1.26c.65.9.07 2-.53 2.82-1.54-1.14-1.67-2.57-1.11-4.08 0 0-.64-.3 0 0zm-3.63 8.8l.35.4.06.78c0 .1.14.1.16 0l.07-.43.26.3c.36.45.72.88 1.12 1.28-.74.3-1.57.5-2.3.14-.91-.44-.84-1.84-.8-2.79.44-.02.78.07 1.08.33 0 0-.12-.13 0 0zm1.41.46c.37.4.74.8 1.14 1.18-.4-.38-.77-.78-1.14-1.18zm-1.1-9.3zm3.66-1.44l.18-.24-.18.24zm-6.45 9.56zm.1-1.08c-.1-1.94-.3-3.88-.47-5.82.18 1.94.36 3.88.47 5.82zm12.27 4.06a13.4 13.4 0 0 1-.87-3.56c.12.99.36 1.94.73 2.85.2.5 1.88-2.47 1.98-2.66l.86-1.56c.2-2.27.71-4.53 1.19-6.8.01-.06.11-.04.1.02-.46 2.17-1.06 4.46-1.27 6.74l.4-.77.07-.44c.14-.6.47-1.14.9-1.6.6-1.38 1.11-2.79 1.48-4.28.02-.08.14-.06.13.02-.2 1.12-.36 2.25-.54 3.37a6.41 6.41 0 0 1 2.51-.93c-.3-.46-.76-.89-1.43-1.23-.73-.38-.22-1.44.54-1.14 2.14.84 3.32 2.74 2.56 5.01-.54 1.6-1.92 3.52-3.63 4.04-.68.21-1.24.08-1.66-.24a25.02 25.02 0 0 1-1.04 3.1c-.03.06-.1.03-.1-.02a15.36 15.36 0 0 1-.27-3.09c.01.44.03.88.09 1.31.25 2.03.87.17 1.26-1.34-.59-.49-.9-1.37-.89-2.24l-.41.78-.04.87c0-.28 0-.56.02-.83-.83 1.55-1.7 3.08-2.54 4.63-.03.05-.1.05-.13 0-.02-.07 0 0 0 0zm-.87-3.56zm3.52-.23zm2.15-3.5c-.32.38-.55.81-.62 1.29-.1.6-.03 1.07.14 1.39.18-.89.33-1.79.48-2.68.15-.9 0 0 0 0zm-.42 2.8c.36.52 1.06.51 1.83-.14 1.44-1.23 2.26-2.97 1.74-4.42a5.66 5.66 0 0 0-2.98 1.56c-.18 1.01-.36 2.02-.59 3-.23 1 0 0 0 0zm.01-3.6c.2-.19.42-.35.65-.5.2-1.01.83-3.84.16-1.63-.22.72-.5 1.43-.8 2.12-.32.7 0 0 0 0zm-7.43 8.03c-.04.18-.35.2-.35-.02-.02-3.73.72-7.41.49-11.15-.01-.22.32-.25.34-.03.13 2.06 0 4.06-.2 6.1-.12 1.34-.27 2.68-.27 4.02 0 .48.28-1.79.28-1.78.68-3.5 1.29-6.94 2.8-10.19.02-.06.13-.03.11.04-.68 2.8-1.37 6.09-1.07 9.14-.22-2.29-.03-4.62.43-6.86.16-.73.6-2.64-.12-.48a33.9 33.9 0 0 0-1.19 4.62c-.4 2.2-.75 4.4-1.25 6.59 0 0 .04-.19 0 0zm.29-2.86zm88.07-91.55h-.02c-.2-.05-.07-.02 0 0l-.1-.02c.6.56 1 1.28 1.03 2.2.07 2.05-1.06 3.8-2.71 4.94a.8.8 0 0 1-.94.03c-.95-.6-2.6-1.27-2.4-2.58.2-1.17.45-2.37 1.03-3.42.23-.4.49-.75.77-1.03-.05 0-.08-.03-.13-.04-.81-.23-.46-1.53.35-1.42.65.08 1.3.27 1.92.57a4 4 0 0 1 1.33.26c.28.1.17.57-.13.51zm-.71 2.44c-.13-.99-.78-1.55-1.58-1.93-1.04.9-1.39 2.7-1.52 4.2.47.31.94.61 1.43.9.9-.8 1.83-1.95 1.67-3.17-.16-1.23 0 0 0 0zm.44-8.65c-1.74-.61-3.81-2.05-3.52-4.18.26-1.86 1.77-2.82 3.52-3.13.21-.03.32.29.1.37-1.14.47-2.55 1.47-2.53 2.88 0 1.4 1.27 2.19 2.47 2.62.42-.5.58-.9.05-1.53a8.62 8.62 0 0 1-.95-1.44c-.39-.7.73-1.38 1.19-.73.5.72 1.6 1.58 1.66 2.55.04 1.08-.57 1.76-1.3 2.48-.18.18-.47.19-.69.11zm-6.77-13.01a.3.3 0 0 1 .1.6h-.01c.6.2 1.2.4 1.78.74.3.2.38.62.27.94-.44 1.24-1.24 2.57-2.61 2.89a2.64 2.64 0 0 1-2.6-.94c-.61-.77-.8-1.83-.28-2.69.7-1.11 2.14-1.44 3.35-1.54 1.2-.1 0 0 0 0zm-2.32 2.1c-.17.5-.08.94.33 1.34.3.31.86.47 1.23.32.54-.22.9-.75 1.15-1.35-.58-.23-1.17-.44-1.66-.81a.69.69 0 0 1-.25-.38c-.36.22-.66.5-.8.88-.13.38 0 0 0 0zm-13.2 15.69a5 5 0 0 0 .08 1.04c.04-.08.1-.15.2-.2.1-.29.24-.77.42-1.25.48-1.35.98-2.7 1.45-4.04.2-.54.38-1.08.55-1.62a.6.6 0 0 1-.17-.2 7.73 7.73 0 0 1-.95-2.58c-1 2.88-1.65 5.87-1.58 8.85.07 2.97 0 0 0 0zm3.95-11.78c-.8.22-1.5.69-1.62 1.62a4.6 4.6 0 0 0 .76 2.93c.25-1.22.47-2.44.66-3.69 0-.02.02-.03.03-.05-.01-.14-.03-.29-.02-.44v-.03a.47.47 0 0 1 .19-.34zm-3.23 12.45c.42-.76.72-1.8.78-1.99.32-.9.58-1.82.84-2.73-.54 1.57-1.07 3.15-1.62 4.72-.55 1.56 0 0 0 0zm.31-.06c.4-.08.85-.12 1.31-.12.65-2.45 1.43-4.87 2.2-7.3-.4.33-.88.59-1.36.8l-.07.01a38.76 38.76 0 0 1-2.08 6.61c-.9 2.15 0 0 0 0zm3.15-9.68l-.02-.08c-.1-.57-.03-.19 0 0l-.08-.33-.69 2.2c.59-.42.96-.94.79-1.8zm-.13 12.18c-.18.86-.38 1.71-.58 2.56.18.1.35.17.54.24.9-.84 2.26-2.45.84-3.38a4.6 4.6 0 0 0-2.38-.65v.03l-.08.48c-.01.7-.1 1.48.09 2.16.11.41.37.7.68.92.2-.8.4-1.6.58-2.41.05-.2.36-.15.31.05-.04.2 0 0 0 0zm-2.57 8.34c.53-1.67 1-3.34 1.43-5.03-.3-.2-.6-.42-.82-.71-.09 2.08-.13 4.21-.61 5.74-.5 1.53 0 0 0 0zm11.12-12.45c.94-1.75 1.6-4.3-.96-4.04-.66 1.23-.04 2.88.96 4.04zm-1.47 11.71c.43-.09.96-.2 1.15-.39.2-.2.34-.5.49-.8-.65-.25-1.37-.06-2.09-.1.08.44.25.87.45 1.3.2.41 0 0 0 0zm17.93-2.54c3.43-5.58 4.68-11.88 3.34-17.61 1.34 5.73.08 12.03-3.34 17.61zm-21.04 9.47zm6.68-42.56c-5.57-.79-11.43.4-15.63 3.94 4.2-3.54 10.06-4.73 15.63-3.94zm-18.54 8.49zm-132.4-67.03c1.59-2.7 4.24-3.34 6.8-2l.01-.06c.06-.77 1.05-.84 1.3-.15.57 1.62-.67 3.15-2.1 3.73-1.9.79-4.08.2-5.82-.71-.28-.15-.34-.55-.2-.8.16-.27 0 0 0 0zm1.37.06c1.2.5 2.62.8 3.86.35.98-.34 1.32-.85 1.47-1.6-2.11-.85-4-.64-5.33 1.25-1.34 1.9 0 0 0 0zM-39 174.3c-.42-.75-1.32-2.56-.02-3 2.43-.8 4.9-.79 6.04 1.9.08.18-.12.34-.27.2l-.05-.04c-.11 1.42-.46 4-2.42 3.8-1.45-.16-2.62-1.7-3.28-2.86-.65-1.15 0 0 0 0zm1.18-.27c.47.7 1.18 1.66 2.04 1.89 1.13.28 1.16-2.05 1.2-2.67.02-.36.28-.54.56-.59-.52-.47-1.08-.89-1.81-.93-.9-.05-1.75.22-2.59.52-.22.08-.21.11-.04.57a4.79 4.79 0 0 0 .64 1.21zm-.64-1.2c.15.41.02.06 0 0zm-3.18 15.38c.18-1.67.2-3.35-.06-5.05 0-.05.07-.06.08 0 .27 1.56.3 3.1.19 4.64.25-.45.57-.83 1.02-1.05.93-.46 1.8-.1 2.45.55a.7.7 0 0 1 .55-.16c.2-1.88.25-3.76.08-5.67 0-.11.16-.13.17-.02.2 1.94.17 3.85 0 5.76.31.16.5.52.26.92l-.3.5a.37.37 0 0 1-.12.22l-.02.03a53.73 53.73 0 0 1-.62 3.7c-.42 2.04-.9 4.07-1.32 6.12.33-1.59 1.6-3.39 2.23-4.9.06-.15.28-.05.22.1a73.59 73.59 0 0 1-2.7 6.03c-.09.17-.38.1-.34-.1.74-3.47 1.64-6.92 2.17-10.4a4.77 4.77 0 0 1-3.87 2.22.63.63 0 0 1-.37-.13l-.15.79c-.34 1.71-.74 3.42-1 5.15-.4 2.58 1.5-2.1 1.78-2.76.05-.13.25-.04.2.09a25.63 25.63 0 0 1-2.3 4.73c-.1.15-.3.01-.28-.13.32-2.7 1.03-5.37 1.56-8.05-.1-.13-.18-.28-.15-.44.11-.77.27-1.82.64-2.69.37-.87 0 0 0 0zm.98 1.78c.89-.34 1.45-1.04 2.02-1.82-.43-.28-.9-.47-1.17-.19-.49.5-.71 1.26-.85 2-.14.75 0 0 0 0zm79.42-34.79c.12.08.01.27-.11.18l-1.09-.7c18.24 15.7-16.69 38.55-33.2 26.55-9.9-7.21-11.92-23-1.45-30.9 11.12-8.39 25.82-2.45 35.85 4.87zm-41.06 7.13c-.82 4.98.32 10.2 3.68 14.1.97 1.12 2.1 2.13 3.44 2.99-3.49-3.86-5.75-8.13-4.71-14h.04c-1.03 5.88 1.32 10.29 4.9 14.16.43.26.83.7 1.28.94 2.4 1.22 4.97 1.9 7.62 2.14l.52-.37s.02.02 0 .03l-.48.34c2.5.23 5.04.05 7.53-.45 4.15-.85 8.15-2.6 11.5-4.98 3.38-2.4 7.02-5.79 7.86-10.05 1.12-5.7-2.5-9.58-6.64-12.89-.59-.47-.37-1.3.13-1.56a59.9 59.9 0 0 0-5.11-2.56c-7.71-3.37-16.57-5.06-23.48-.51a18.83 18.83 0 0 0-8.08 12.67c-.82 4.97 0 0 0 0zm11.84-6.24c-.28-.23-.31-.75-.11-1.04.88-1.28 2.1-2.58 3.75-2.7a3.98 3.98 0 0 1 2.7.82c.48-.1 1.01.16 1 .82v.1l.3.37a.5.5 0 0 1-.51.8c-.38 1.2-1.23 2.36-2.43 2.6-1.82.36-3.36-.66-4.7-1.77-1.35-1.1 0 0 0 0zm1.8-.8c.67.47 1.46.9 2.23.82.94-.09 1.2-1.13 1.46-1.94a2.5 2.5 0 0 0-1.68-.32c-.89.2-1.5.76-2.02 1.44-.5.7 0 0 0 0zm12.98 1.59c-.06-.33.1-.7.46-.77 1.16-.25 2.67-.47 3.73.25.53.36.95.82 1.32 1.33.4.07.58.42.53.75l.37.6c.16.24-.22.52-.4.3-.12-.15-.23-.28-.35-.4-.03 0-.06.03-.1.04-1.06.3-2.52.77-3.64.57-1.28-.23-1.7-1.55-1.92-2.67-.22-1.12 0 0 0 0zm1.41.32c.23.65.58 1.07 1.44.9.52-.1 1.02-.25 1.54-.34a3.83 3.83 0 0 0-2.98-.56c-1.2.21 0 0 0 0zm-10.36 6.72c.71-.54 1.55-1.06 2.49-.81.46.12.88.36 1.3.6l.12-.3c.33-.7 1.53-.16 1.25.57l-.2.56a.5.5 0 0 1-.16.38c-.36.94-.88 1.95-1.76 2.27-1.44.52-2.57-1.44-3.17-2.4-.15-.25-.12-.68.13-.87.24-.18 0 0 0 0zm1.45.7c.38.6.98 1.43 1.26 1.13.26-.28.46-.64.63-1l-.77-.3a1.2 1.2 0 0 0-1.12.16c-.34.22 0 0 0 0zm-6.6-4.44a63.39 63.39 0 0 0-1.5 9.11c0-.34.02-.66 0 0l-.02.13c.14-3.24.61-6.47 1.3-9.28.02-.07.08-.09.13-.08.05.01.1.06.08.12zm-3.63 6.37c-.31.86-1.46.75-2.26.62-.01-.85.08-1.88 1-2.12.5-.14 1.05-.1 1.59 0a7.8 7.8 0 0 1-.33 1.5s.32-.86 0 0zm4.88 9.63l-.25.66a4.1 4.1 0 0 1-.84.87c-.33.23-.78.13-1.21-.07l-.1-.51c-.05-.21-.07-.42-.1-.63.7-.4 1.6-.37 2.5-.32 0 0 .08-.22 0 0zm-2.77-3.06zm16.78-2.05c.01 0 .03.01.02.02-.53.68-1.05 1.38-1.54 2.09.48-.71.98-1.41 1.52-2.1 0 0-.01 0 0 0zm-1.45 5.59a59.2 59.2 0 0 0 1.95-2.1c1.32-1.53 2.63-3.05 4.07-4.42v-.01c-1.18.1-2.3-.63-3.23-1.36-.42-.32-.6-.96-.15-1.36 1.15-1 2.57-1.96 4.14-2.1.54-.04 1.04.02 1.53.27.14.07.22.16.3.26.46-.1.99.33.81.86-.1.34-.26.7-.44 1.05.46-.3.94-.6 1.44-.86a14.8 14.8 0 0 0-1.48.92c-.5.92-1.24 1.79-2.16 2.16-.22.09-.45.13-.67.16-2.14 2.05-4 4.43-6.11 6.53zm6.43-8.46c.49-.44.85-.98 1.24-1.5-.32 0-.64.01-.95.1-.81.23-1.48.68-2.11 1.2.6.4 1.3.67 1.82.2.53-.47 0 0 0 0zm-9.64 11.19c-.01 0-.02 0-.02-.02l.31-.76c-.13.82 2.21-1.3 2.62-1.65-.9.88-1.85 1.71-2.91 2.43 0 0 .01-.01 0 0zm3.2-2.73c-.07.08-.14.17-.23.25l-.05.05.29-.3s.08-.09 0 0zm-.24.26zm-3.02-3.2a3.62 3.62 0 0 1 2.15.7c.06 0 .12.05.18.07.28-.44.57-.88.87-1.31-.3.44-.56.88-.83 1.32.36.17.61.64.44 1.01.06.15.14.3.23.43.1.15-.13.32-.25.19-.08-.09-.19-.18-.3-.27-.51.44-1.01.9-1.56 1.3-.21.47-.39.96-.58 1.45 0-.04 0-.08.03-.13.15-.44.33-.87.51-1.29-.38.3-.8.56-1.24.73-1.14.45-2.25.07-3.28-.47-.36-.19-.52-.77-.27-1.1.93-1.22 2.24-2.6 3.9-2.62 1.67-.02 0 0 0 0zm-1.95 2.72c.65.17 1.26.08 1.9-.46l1-.81c-.4-.1-.79-.14-1.07-.05-.76.22-1.34.73-1.83 1.32-.5.58 0 0 0 0zm-63.18 60.5c-.22-.28-.33-.68-.1-1 .63-.9 1.56-2.01 2.82-1.83 1.03.16 1.9.7 2.83 1.13.43.2.2.97-.27.9l-.05-.01c.16.39.1.87-.35 1.06-.74.3-1.36 1.1-2.17 1.22-1.2.16-2-.58-2.71-1.47-.71-.88 0 0 0 0zm2.74-.42c.38-.28.75-.52 1.16-.72a5.5 5.5 0 0 0-.9-.19c-.62-.05-1.02.28-1.37.72.31.34.64.53 1.1.19.47-.34 0 0 0 0zm10.02 7.31c.11.3-.25.5-.5.4a.58.58 0 0 1-.47.37c-.7.1-1.49.4-2.2.24-1.14-.25-1.52-1.55-1.75-2.54-.06-.26.05-.6.3-.72.98-.45 2.44-1.08 3.41-.3.74.6.89 1.71 1.21 2.55.33.84 0 0 0 0zm-1.04-.64a2.96 2.96 0 0 0-.61-1c-.48-.46-1.29-.07-1.89.27.15.5.4 1.09.92.96.54-.14 1.02-.34 1.58-.23.56.1 0 0 0 0zm-8.22 5.8c-.24.09-.47.2-.7.32.06.22-.26.37-.4.2-.48.25-.96.5-1.5.56-.97.14-1.6-.61-2.1-1.35-.1-.16-.06-.43.09-.56.63-.53 2.08-1.97 3.02-1.25.4.3.54.85.66 1.39.27-.08.55-.14.83-.15.52-.03.52.68.1.84-.41.15 0 0 0 0zm-1.5-.5c-.1-.3-.2-.58-.36-.82-.35-.52-1.29.34-1.8.86.42.47.8.6 1.5.25l.67-.3c.22-.08 0 0 0 0zm-8.35-10.33l-.03.05c-.3.55-.09.16 0 0-.64 1.16-1.63 2.65-3.04 2.9-1.43.27-2.57-.45-3.62-1.33-.22-.18-.22-.55-.08-.77.7-1.17 1.82-2.63 3.35-2.6.95.02 1.67.45 2.27 1.06l.01-.01c.5-.7 1.55-.06 1.14.7zm-1.57-.08c-.58-.47-1.27-.85-1.96-.64-.86.26-1.43.99-1.88 1.74.66.47 1.5.93 2.24.52.67-.37 1.16-1 1.6-1.62.44-.63 0 0 0 0zm-6.1 13.88zm3.58 7.8zm-1.47 4.2zm-2.68-15.55c-.02-.2.3-.23.32-.03.08.8.15 1.61.2 2.42.48 0 .96-.1 1.37-.35 1.1-.66 1.48-1.86 1.8-3.04-.64-.6-1.43-1.24-2.3-1.17-1.03.08-1.78.98-2.29 1.79-.5.81-.87 1.84.16 2.43.28.17.6.25.92.3-.05-.79-.1-1.57-.18-2.35-.08-.79 0 0 0 0zm2.6 10.84a4.99 4.99 0 0 0-1.8-1.33l.02 1.18c.54-.2 1.1-.28 1.63.04l.03.02.11.1zm-.25 2.02l-.03-.96-.1-.08c-.47-.32-.95-.14-1.38.14v.02c.42.45 1.04.94 1.51.88.47-.07 0 0 0 0zm1.22-2.99zm-.87 5.78V264c0 .07.01.13.03.2l-.03-.14s0 .02 0 0zm6.63 8.92c-.11.14-.3.03-.29-.14v-.01-.01c-5.64.65-11.3-1.42-15.9-7.79-7.88-10.92-6.56-27.94 5.6-35.15 8.85-5.25 24.8-7.81 29.7 3.5l.08.03c14.89 9.27-1.81 36.88-19.01 39.35l-.18.22zm4.52-3.76zm11.63-16.09zm-2.96 1.91c0-.4.08-.72.25-1.06a1.26 1.26 0 0 0-.4-.19c-.3.63-.63 1.25-.89 1.9.34.17.71.25 1.1.24.02-.3-.06-.6-.06-.89 0-.28 0 0 0 0zm.95 2.48l-.05.02c-.28.04-.55.05-.82.05-.04.23-.1.46-.13.69-.62 3.75.42.84 1-.76.58-1.6 0 0 0 0zm1.31-9.93c-.7 1.62-1.41 3.22-2.14 4.81.31.12.63.3.9.52.44-1.56.67-4.02 1.24-5.33.57-1.3 0 0 0 0zm-4.73 9.15a.94.94 0 0 1-.37-.59c-.43 1.18-2.3 5.91-.3 2.22.27-.52.52-1.04.8-1.56l-.13-.07c-.04-.03 0 0 0 0zm-7.58-.84a4.2 4.2 0 0 0-1.2-.23l-.36 2.12c.56-.36 1.03-1.25 1.34-1.66.06-.1.14-.17.22-.23.08-.05 0 0 0 0zm-3.29.24c.27.75.75 1.86 1.32 1.82a.7.7 0 0 0 .23-.07l.43-2.23c-.64-.02-1.3.11-1.98.48-.69.36 0 0 0 0zm15.22-1.66zm-25.17 12.6l.05.04-.05-.04zm66.6 1.27c-.36 1.4-2.06 2.32-3.3 2.8-.8.3-2.74.91-2.97-.43-.44-2.53-.06-4.97 2.78-5.68.18-.05.3.17.15.3-.02 0-.04.02-.05.04 1.4.32 3.88 1.06 3.4 2.97-.5 1.9 0 0 0 0zm-1.23-.14c.45-1.07-1.86-1.46-2.46-1.58-.35-.08-.5-.36-.5-.64-.54.43-1.03.92-1.19 1.64-.19.88-.04 1.76.13 2.63.05.23.08.23.56.13.44-.09.88-.25 1.3-.45.75-.35 1.82-.91 2.16-1.73.35-.82 0 0 0 0zm14.7 8.1c-.02.37-.48.71-.84.6-1.28-.4-3.35-1-3.83-2.48-.31-.98.17-1.8.9-2.33-.38-.63.33-1.45 1-.92l.44.36a6.5 6.5 0 0 1 1.79 1.94v.01c.5.9.63 1.8.55 2.83zm-1.5-1.14c-.2-.92-.8-1.59-1.5-2.27-.34.39-.6.81-.36 1.13.41.55 1.15.9 1.86 1.14.7.25 0 0 0 0zm-5.66 3.18c.8 2.76-.56 5.74-2.9 7.25-.3.19-.61.15-.9-.05-2.73-1.88-4.06-5.26-2.79-8.43l.03-.04a.88.88 0 0 1 .31-1.3c2.62-1.35 5.41-.3 6.25 2.57.84 2.88 0 0 0 0zm-1.53.57c-.64-2.04-2.2-2.33-4.05-1.64a.4.4 0 0 1 0 .16c-.4 2.72-.05 4.99 2.23 6.65 1.47-1.23 2.43-3.26 1.82-5.17-.6-1.92 0 0 0 0zm-1.13 15.5c-.06-.48.02-1.55.12-2.55.05.6-.03 1.62-.12 2.54zm-.92-1.5a69.73 69.73 0 0 1-3.39 7.77c-.04.08-.17.05-.15-.05.15-.77.46-5.15.17-5.33l-.14.13c-.69 1.1-1.8 2.87-2.32 3.8-.02.04-.07.04-.07 0 0-1.09-.01-2.15-.1-2.9-.4 0-.81-.05-1.2-.16-.2.35-.42.82-.67 1.43-.04.07-.14.06-.17-.01-.33-.77-.71-1.6-1.03-2.44a6.63 6.63 0 0 1-1.63-2.03c-.98 1.26-2.35 3.26-2.36 3.28-.07.1-.25.1-.27-.05-.08-.97-.81-4.05-.6-4.54-.68 1.59-1.55 2.73-2.48 4.2-.08.13-.27.14-.33-.01-.91-2.29-1.35-3.81-2.84-1.45 6.26 7.97 17.35 10.05 26.8 4.47 11.4-6.72 17.44-20.47 7.94-31.79-3.81-4.54-10.35-10.95-16.86-9.78-3.98.72-7.49 2.57-11.46 2.96-6.98 7.59-13.76 17.69-9.66 28.4.28.73.6 1.43.93 2.1-.76-4.41.57-9.48 2.49-13.16.1-.18.35-.13.38.07l.15 1.14c.8-3.06 2-6.03 3.39-8.83l.96-5.55c.03-.12.21-.08.2.04-.13 1.36-.28 2.72-.43 4.08l.02-.04c.1-.2.4-.15.43.08.26 2.25.34 4.48.27 6.69a3.67 3.67 0 0 1 1.9 2.44c.5 2-.4 4.06-1.57 5.64-.2.26-.6.26-.83.07-.13-.11-.23-.23-.35-.34-.3 1.7-.68 3.4-1.13 5.1-.07.26-.5.28-.52-.03a68.9 68.9 0 0 1 .12-7.46 4.54 4.54 0 0 1 .24-3.1l.16-1.56a.66.66 0 0 1 .07-.69c.19-1.7.4-3.33.63-4.87l-.08.1-4 22.7c.32-.5.7-1.03.99-1.46.09-.12.28-.07.33.06 1.78 4.48 3.27 2.24 4.15-1.84.03-.17.31-.18.32.01 0 .57.82 5.23.92 5.08.57-.91 1.18-1.77 1.74-2.67a4.34 4.34 0 0 1-.06-3.49.6.6 0 0 1 .38-.61c.3-.4.7-.75 1.22-1.03.26-.15.52.2.27.37-.22.15-.4.32-.57.5 2.73-.03 6.92 3.17 6.89 5.62l.01.02c-.01.3-1.1 8.1.74 3.58 1.08-2.62 2.03-5.3 3.12-7.91.05-.13.22-.05.21.07 0 .14-.12 1.1-.23 2.13v-.07c-.01-.14-.03-.36 0 0-.08-.72-.35-.71-1.05 1.11zm.91 1.49c.06.52.29.32.84-1.53.71-2.36 1.44-4.7 2.24-7.04.05-.15.29-.06.26.09-.46 2.6-.9 5.22-1.37 7.83-.12.72-1.58 6.79-.23 2.95.58-1.64 1.13-3.2 1.9-4.64-.05-.3-.04-.62.07-.95.23-.65.7-1.17 1.2-1.67-.45-.3-.57-1.15.1-1.45.94-.43 2.4-.98 3.4-.37.23.15.4.32.55.51.49-.84.99-1.67 1.55-2.48.06-.09.25-.06.27.05.44 1.81.33 2.75.02 4.68-.04.2-.35.15-.32-.05.38-2.3-.32-2.23-1.13-1.44.06.26.1.52.09.8-.1 1.72-1.34 3.2-2.83 4.05l-.94 2.21c-.08.18-.35.09-.32-.1.12-.57.21-1.13.28-1.65l-.18.07c-.3.1-.59 0-.78-.24-.38-.47-.76-1.01-.95-1.6-.2.44-.4.93-.64 1.55-.7 1.9-1.37 3.81-2.18 5.68-.08.17-.34.08-.3-.1.73-3.9 1.4-7.82 2.1-11.73-.43 2.4-1.81 5.82-2.7 8.6-.04.15-.25.06-.23-.07 0-.08.13-.96.23-1.96zm6.1-4.83c-.08.8-.26 2.1-.31 3.08.57-.31 1.1-.75 1.5-1.28l.61-1.25.06-.27c.16-1.13-.7-1.05-1.51-.77l-.03.07-.32.42c-.11.13 0 0 0 0zm-.7 3.28c.1-.05.21-.1.32-.17 0-1.1-.17-1.84-.5-1.98-.1.14-.19.28-.26.42-.33.67 0 1.22.43 1.73.43.5 0 0 0 0zm12.4-22.46c5.58 12.08-.2 25.02-12.05 30.57-11.27 5.29-25.53 2.36-30.4-10.3-3.88-10.1.22-23.36 8.83-30.18h-.05c-1.24-.03-1.43-1.97-.19-1.93 6.54.22 12.79-5.04 19.3-1.9 5.83 2.8 11.8 7.76 14.55 13.74 2.76 5.97 0 0 0 0zm-38.25 23.26l3.88-22.51c-.7 1.24-1.48 3.8-1.78 4.7-.58 1.75-.97 3.79-1.25 5.76.07 2.69-.2 5.33-.67 8.08-.04.22-.36.2-.39-.01-.4-3.28-.1-6.58.65-9.8-.08-.88-.27-1.6-.83-.04-1.12 3.08-1.96 6.61-1.63 9.92.04.37.66 2.6 1.18 3.72l.44.62c.07.03.12.01.17-.07l.23-.37c.08-.13 0 0 0 0zm13.48-2.4l-.09-.07c-.7-.48-.21-.14 0 0a6.87 6.87 0 0 0-4.13-1.38l-.15-.03c-.13.6-.09 1.24.08 1.87.21-.4.41-.79.59-1.2.04-.11.23-.09.23.03 0 1.2.15 2.34.41 3.46.6.66 1.3 1.16 2.07 1.37.49-.81.9-1.72.91-1.74.03-.05.13-.04.12.03 0 .15.06.91.15 1.77.42-.07.84-.23 1.25-.53 1.53-1.14-.42-2.87-1.44-3.58zm.3 5.08c.14 1.07.32 1.97.5 1.69.5-.78.97-1.55 1.42-2.34a4.02 4.02 0 0 1-1.92.65c-.47.03 0 0 0 0zm-2.91-.88c.1.3.19.58.31.87.16.39.47.17.82-.28-.4-.14-.78-.34-1.13-.59-.36-.24 0 0 0 0zM-5.4 281.3c.24-1.47.42-2.94.53-4.42a2.61 2.61 0 0 0-.23-.1c-.93 1.6-1.14 3.14-.3 4.52.84 1.39 0 0 0 0zm-.76.92c-.02 1.69-.07 3.28-.31 4.32.28-1.22.55-2.45.79-3.69-.19-.2-.34-.42-.48-.63-.14-.22 0 0 0 0zm1.37-6.92c.03-1 .03-2-.04-2.99-.08-1.26-.27-1.78-.51-1.84-.19 1.59-.37 3.18-.53 4.78.38-.07.74-.04 1.08.05.34.1 0 0 0 0zm-.24 6.52c.12.14.23.29.38.42.68-1.11 1.17-2.46.92-3.76-.13-.7-.4-1.1-.77-1.39-.1 1.59-.29 3.16-.53 4.73-.25 1.57 0 0 0 0zm23.32-54.27l.59-.15a.52.52 0 0 1 .4-.09c.98-.22 2.11-.37 2.86.18 1.25.9.26 2.93-.2 3.98-.11.26-.5.47-.79.37-.84-.28-1.74-.68-2.07-1.6-.17-.45-.2-.93-.23-1.4l-.31.05c-.78.13-1-1.17-.25-1.34.76-.18 0 0 0 0zm1.66 1.07l.2.8c.13.46.4.69.76.84.29-.65.64-1.63.24-1.69a3.82 3.82 0 0 0-1.2.05c-.4.07 0 0 0 0zm-3.03 21.14c-6.6-2.24-10.74-7.22-13.18-13.2-.14.19-.39.26-.6.06-1.06-.94-2.01-2.03-2.85-3.2.1.8.34 1.54.65 2.26l.11.02c.16.02.16.24.04.3a16.05 16.05 0 0 0 2.2 3.29c-.67-1.42-1.4-2.8-2.27-4.12-.13-.2.15-.4.3-.21a31.33 31.33 0 0 1 3.5 6.06c1.17 1.3 2.35 2.57 3.24 3.91.38.58-.47 1.17-.87.61l-.69-.9.43.89a15.43 15.43 0 0 0 3.12 4.32 46.79 46.79 0 0 0 10.08 3.92c.28.08.2.53-.08.46l-.75-.21h-.03c-3.94-.33-7.68-1.44-10.32-4.27-2.64-1.6-5-3.61-6.9-6.2-.13-.16.13-.34.25-.18a23.2 23.2 0 0 0 5.74 5.27c-.16-.21-.3-.42-.44-.65a45.54 45.54 0 0 1-2.72-5.27c-1.84-2.11-3.78-4.28-4.66-6.81-2.03-.45-3.06-2.28-3.75-4.24.2.7.41 1.4.67 2.1.96 2.56 2.1 5.05 3.2 7.56.17.38-.42.6-.58.22-2.04-4.72-4.28-9.41-4.77-14.6-.03-.29.4-.4.5-.11.93 2.79 1.47 7.49 4.58 8.63a8.2 8.2 0 0 1-.32-2.86c-3.12-4.83-4.23-11.01-1.28-16 .76-3.26 2.13-6.27 3.38-9.4.03-.07.14-.02.1.05-.62 1.68-1.32 3.33-1.93 5.02-.3.85-.52 2.06-.79 3.19.12-.17.23-.34.36-.5.06-.07.15-.06.2-.02l.05-.09a25.89 25.89 0 0 1 3.36-7.12c.1-.14.34.02.25.17a73.6 73.6 0 0 0-1.75 3.44A46.4 46.4 0 0 0-.8 225.54c0 .62-.99.71-.97.1.06-3.07.4-6.17 1.15-9.15l-.97 2.28c-.08.2-.37.09-.34-.1l.1-.58c-2.44 6.03.76 12.83 5.22 17.5C1.24 229.82.57 223.27.76 217.4c0-.14.21-.15.22-.01l.03 1.29c2.7-23.87 41.31-7.84 40.67 12.52-.39 12.24-12.32 22.76-24.76 18.55zm-4.98 1.59c1.49.95 3.19 1.59 5.11 2a44.59 44.59 0 0 1-5.1-2c-1.66-.78 0 0 0 0zM9.5 208.94zm6.11 34.16c-.61 3.31.65.75 1.58-1.38h-.02c-.4 0-.82-.02-1.24-.07-.12.48-.23.96-.32 1.45zm-2.89-27.5a85.5 85.5 0 0 1-1.98 8.7c.26.31.49.63.64.95.34-3.22.8-6.44 1.34-9.66zm14.6 21.04zm-17.28-10.82c-.07-.15-.18-.3-.35-.46-.37-.37-.77-.71-1.14-1.08 0 .98.35 1.85 1.14 2.7l.35-1.16c.11-.38 0 0 0 0zm2.68-10.23l.01-.05v.05zm1.8 15.43c-.41 1.05-.8 2.12-1.16 3.19l-.39 1.13c.13.05.24.14.29.29.38-.12.8-.18 1.2-.2.53-2.4 1.06-4.78 1.57-7.17.32-1.52-1.67 3.16-1.52 2.76.16-.4 0 0 0 0zm1.78 9c0-.83-.09-1.71-.59-2.3-.16-.2-.36-.32-.57-.38l-.72 2.16c.57.35 1.2.49 1.88.52.67.02 0 0 0 0zm-1.45-2.73c-.14 0-.3 0-.45.03a123 123 0 0 1-.42 1.86c.06.06.12.09.19.14l.68-2.03c.24-.67 0 0 0 0zm-1.57.3c.06.48.2.93.44 1.29l.32-1.5-.76.22c-.25.06 0 0 0 0zm14.47 1.91c.08.07.17.12.25.17.2-.7.38-1.38.56-2.07-.09-.01-.18 0-.28.02-.5.12-.96.35-1.42.57.22.5.5.98.89 1.31.38.33 0 0 0 0zm2.32-.36c-.29-.63-.74-1.46-1.42-1.54l-.55 2.1c.65.26 1.38-.15 1.97-.56.6-.4 0 0 0 0zm-15.18-21.6c.21.16.05.02 0 0a6 6 0 0 0 2.17 1.06c0-.72-.17-1.46-.86-1.63-.63-.15-1.28-.14-1.94-.18a3.61 3.61 0 0 0 .63.74zm17.41 10.43a.48.48 0 0 1 .43-.7c.03-.3.24-.6.6-.64 1-.1 2.3-.15 3.12.53 1.07.88 1.01 2.45.92 3.7-.03.39-.24.64-.63.7-2.55.35-3.46-1.62-4.44-3.59-.97-1.96 0 0 0 0zm1.07-.03c.67 1.11 1.35 2.34 2.69 2.34.02-.78-.02-1.8-.67-2.05-.62-.24-1.36-.18-2.02-.29-.66-.1 0 0 0 0zm-7.76-8.22c-.23-.41.04-1.07.54-1.15.08-.14.16-.28.22-.44.06-.17.33-.07.3.1-.03.12-.05.26-.05.4 1.12.31 2.33.53 3.3 1.2 1.01.68 1.32 1.81 1.45 2.97.05.4-.34.86-.76.83-1.52-.08-3.41-.38-4.36-1.74a3.6 3.6 0 0 1-.64-2.17c0-.08 0 0 0 0zm1.3.57c.14.39.33.73.55.92.62.5 1.36.69 2.13.77a1.92 1.92 0 0 0-1.45-1.31l-1.24-.38c-.41-.13 0 0 0 0zm55.6-25.94c.97-.45 2.44-1.08 3.4-.3.74.6.9 1.7 1.21 2.54.12.3-.25.5-.5.4a.57.57 0 0 1-.47.38c-.7.09-1.48.4-2.2.24-1.13-.26-1.52-1.55-1.74-2.54-.07-.27.05-.6.3-.72.27-.12 0 0 0 0zm1.08.87c.15.5.4 1.1.91.96.54-.13 1.03-.33 1.59-.23a2.88 2.88 0 0 0-.62-1c-.48-.45-1.28-.06-1.88.27-.6.34 0 0 0 0zm.41 13.9c-.08.43-.28 1.1-.8 1.19a4.3 4.3 0 0 1-3.37-.81c-.29-.22-.48-.56-.35-.93.38-1.15 1.02-2.16 1.6-3.22.17-.32.52-.37.84-.32.73.12 1.84.72 2 1.53.24.26.36.64.14 1.03-.2.36.01 1.11-.06 1.53-.07.42 0 0 0 0zm-1.65-.42c.02-.3-.05-.62-.05-.9 0-.39.08-.71.25-1.06a1.28 1.28 0 0 0-.4-.19c-.3.64-.63 1.26-.9 1.9.35.17.71.25 1.1.25.4 0 0 0 0 0zm-34.93 4.29c-1.52-6.07-2.07-13.55 1.83-18.7a21.03 21.03 0 0 1 9.26-11.64c8.86-5.26 24.8-7.82 29.7 3.5.03 0 .06 0 .09.02 14.43 8.99-.83 35.21-17.45 39.05-.48.35-.96.7-1.48 1a.09.09 0 0 1-.12-.12c.18-.23.37-.44.56-.66-5.97 1.03-12.03-.9-16.89-7.64a26.8 26.8 0 0 1-4.66-19.32 13.64 13.64 0 0 0-.8 2.2c-.6 4.08-.17 8 .85 11.98.15.59-.74.92-.89.33-.15-.59 0 0 0 0zm13.9.77c.52.35 1.06.48 1.3-.2-.2-.2-.4-.4-.63-.56l-.12-.06c-.2.27-.36.55-.55.82-.19.28 0 0 0 0zm.4-.88c-.38-.12-.76.03-1.12.26.17.18.37.36.58.52l.55-.78c.18-.26 0 0 0 0zm.65-.86a4.9 4.9 0 0 0-1.77-1.33l-.57 1.44c.68-.38 1.49-.65 2.2-.23l.14.12c.05.03 0 0 0 0zm-1.89-1.38l-.31-.16a.69.69 0 0 1-.26-.2c-.76 1.73-1.57 3.54-1.97 5.38a3.05 3.05 0 0 0-.24 1.99c.57-1.37 1.1-2.75 1.65-4.14l-.14-.2c-.19-.3-.03-.64.24-.81.12-.09.26-.17.4-.26l.63-1.6c.21-.54 0 0 0 0zm-2.73 7.24c.06.19.13.38.22.57.8-1.25 1.61-2.48 2.45-3.7-.37-.3-.7-.7-.98-1.1-.55 1.41-1.1 2.82-1.68 4.22-.01 0 0 0 0 0zm26.7-3.53a33.8 33.8 0 0 0 6.38-11c-2.03 3.56-4.06 7.46-6.38 11zm6.5-11.35c1.97-6.2 1.3-12.14-3.65-15.22-.73-.45-.44-1.38.15-1.66-5.73-9.4-19.88-7.38-28.1-1.95a21.32 21.32 0 0 0-7.4 8.6c.17.6 0 .85-.03 1.85 0 .06-.1.05-.1 0-.04-.5-.13-.8-.26-.95a23.4 23.4 0 0 0-.27 17.9c.8-3.68 1.89-7.28 3.13-10.82-.8 2.03-1.59 4.07-2.32 6.13-.03.08-.17.07-.19 0-.61-2.04.2-2.86 1-4.71.06-.13.26-.04.2.1a7.6 7.6 0 0 1-.74 1.47c-.5.54-.49 1.12.02 1.76.65-1.74 1.32-3.46 2-5.17 1.38-3.43 2.75-6.86 3.99-10.35.02-.07.13-.02.1.06l-.63 1.74.4-1c.02-.05.1 0 .09.05-2.74 6.93-5.26 13.91-6.86 21.2v.01a22.19 22.19 0 0 0 5.62 7.75c.18-5.59 2.92-10.45 5.11-15.5-.18.1-.38.18-.58.25l-.25.06a38 38 0 0 1-2.03 3.66c.75-1.19 1.4-2.4 2-3.65-1.13.27-2.55.09-3.38-.79-1.1 2.58-2.15 5.17-3.2 7.78-.05.13-.25.03-.2-.1a403.6 403.6 0 0 1 3.26-7.82l-.02-.03c-1.15-1.5-.24-3.21.94-4.41.5-.52 1.02-.82 1.52-.99.77-1.6 1.58-3.19 2.42-4.76a8.01 8.01 0 0 1-1.36-.95c-.22-.18-.22-.54-.09-.77.7-1.17 1.82-2.63 3.36-2.6.18 0 .35.04.52.07a69.32 69.32 0 0 1 2.23-3.45c.04-.07.14.01.1.07a75 75 0 0 0-2.2 3.4c.64.16 1.16.52 1.62.98v-.02c.5-.7 1.56-.06 1.15.7-.64 1.17-1.64 2.7-3.08 2.97a3.34 3.34 0 0 1-2.11-.33c-.82 1.53-1.6 3.08-2.34 4.64 1.1-.25 2.17.23 3.15 1.15l.94-2.35c.05-.32.12-.63.16-.95.01-.06.1-.05.1.02-.15 1.25-.4 2.47-.73 3.65.23.05.43.23.42.5a4.77 4.77 0 0 1-1.92 3.82c-.7 1.72-1.46 3.41-2.22 5.14a.68.68 0 0 1 .36-.02l.3.09c.3-.73.6-1.46.94-2.19.03-.07.14-.02.1.05-.32.72-.62 1.45-.92 2.18 1.8.63 3.54 2.53 2.88 4.48.19.24-.03.58-.3.62a2.04 2.04 0 0 1-2 .97 2.68 2.68 0 0 1-1.16-.5 92.15 92.15 0 0 0-3.2 5.19c4.94 4.24 10.5 4.6 15.7 2.67a47.8 47.8 0 0 0 2.63-2.83c2.19-2.6 4.34-5.22 6.68-7.68.15-.17.43.06.27.23-2.83 3.09-5.35 6.72-8.36 9.78 2.56-1.14 5-2.82 7.2-4.83 1.12-2.29 2.84-4.44 4.19-6.57a260.2 260.2 0 0 0 4.84-7.84c.1-.18.4.02.4.02zm-39.42 9.17c1.5 3.68.5 1.25 0 0zm6.95-9.53c.1.22.27.42.56.59a2.64 2.64 0 0 0 3.16-.44c.4-.9.77-1.8 1.15-2.72-.61-.56-1.37-1.13-2.2-1.07-.5.04-.93.28-1.31.61-.46 1-.92 2.02-1.36 3.03-.44 1.02 0 0 0 0zm1-2.67c-.23.26-.43.55-.6.82-.31.5-.56 1.07-.48 1.58l1.08-2.4c.37-.8 0 0 0 0zm2.76 2.77c.67-.68.97-1.63 1.22-2.57l-.1-.09a102 102 0 0 1-1.12 2.66c-.39.88 0 0 0 0zm1.7-3.09c.25-.83.46-1.67.62-2.54l-.9 2.26.28.28c.1.1 0 0 0 0zm.61-9.45h-.07c-.86.27-1.42.99-1.87 1.74.21.15.44.3.69.42.4-.73.83-1.44 1.25-2.16.42-.71 0 0 0 0zm-1.12 2.23c.46.2.96.29 1.42.03a5.12 5.12 0 0 0 1.6-1.62c-.52-.41-1.12-.73-1.73-.66-.44.75-.88 1.5-1.3 2.25-.4.75 0 0 0 0zm3.7 16.28c-.1-.36.1-.74.4-.91l.18-.1c.37-.64.73-1.28 1.04-1.93.06-.13.26-.04.2.1-.27.56-.58 1.11-.9 1.67.26-.12.51-.2.76-.29a77.7 77.7 0 0 1 2.64-3.92 107.5 107.5 0 0 1 7.33-13.12c-.55.37-1.07.88-1.7.96-1.2.16-2-.58-2.72-1.47-.22-.27-.33-.68-.1-1 .64-.9 1.57-2.01 2.82-1.82 1.03.15 1.9.7 2.83 1.12.1.05.16.12.2.2.7-1.05 1.41-2.1 2.13-3.12.09-.13.27.03.18.15-.94 1.39-1.87 2.8-2.77 4.22a.66.66 0 0 1-.24.38 114.3 114.3 0 0 0-6.17 11.05l.62-.83c.1-.12.28.04.19.16l-.08.1c.71-.56 1.64-1.15 2.3-.63.4.3.55.84.66 1.38.28-.08.55-.13.84-.15.52-.03.51.68.1.84-.24.09-.48.2-.71.32.07.23-.25.37-.39.2-.48.26-.97.5-1.5.57-.97.13-1.61-.61-2.1-1.36l-.01-.04-.55.78a91.48 91.48 0 0 0-2.06 4.76c.82 0 1.62.23 2.36.64.88-1.35 1.77-2.7 2.7-4.04.18-.27.57.06.38.33-.9 1.32-1.77 2.66-2.62 4 .45.32.87.7 1.25 1.2.04.04.05.1.07.15 3.72-7.6 7.41-15.2 11.42-22.64.05-.1.2-.03.15.07a441.54 441.54 0 0 0-7.82 15.42l-4.2 8.66c-.49 1-3.34 5.56-.34 3.23.15-.12.32.12.17.23a30.6 30.6 0 0 1-2.4 1.76c-.11.08-.27-.05-.2-.18l2.99-6.08c-.1.03-.2.03-.31-.05-.22-.15-.43-.28-.64-.4a.9.9 0 0 1-.08.48c-.5 1.07-1.59 2.67-2.95 2.76-1.09 1.77-2.17 3.53-3.27 5.28-.17.28-.67.18-.6-.19.44-2.13 1-4.23 1.68-6.3a6.27 6.27 0 0 1-.64-1.15 35.02 35.02 0 0 0-3.38 8.83c-.05.23-.4.17-.36-.07.05-.34.12-.69.2-1.03-.39-3.34 1.34-6.3 3.02-9.18 1.68-2.87 0 0 0 0zm7.07-7.42c.43.47.8.6 1.51.26l.66-.3c-.1-.29-.2-.58-.37-.82-.35-.52-1.28.34-1.8.86zm4.07-12.73a5.2 5.2 0 0 0-.9-.18c-.62-.06-1.03.28-1.38.72.32.33.64.53 1.11.18.39-.28.76-.51 1.17-.72.41-.2 0 0 0 0zm-8.33 19.97l-.53 1.41c.24.45.54.8.87.78.72-.06 1.37-1.32 1.74-1.83a.75.75 0 0 1 .17-.16l.04-.07a3.79 3.79 0 0 0-2.29-.13c-.78.2 0 0 0 0zm-.55-1.42c.15-.04.3-.08.46-.1.25-.64.52-1.27.8-1.9-.43.66-.85 1.32-1.26 2-.4.67 0 0 0 0zm.18 5.76l.27-.42h-.04c-.41-.13-.75-.35-1.05-.62a36.46 36.46 0 0 0-.92 3.19c-.81 3.42 1.24-1.33 1.74-2.15.51-.82 0 0 0 0zm-5.3 4.32a31.93 31.93 0 0 1 3.16-7.6c-.08-.2-.14-.4-.2-.59-1.5 2.58-2.98 5.21-2.95 8.19.02 2.97 0 0 0 0zm-136.18-9.17c-.07-.44.1-.88.67-1.07 5.74-1.96 13.06 1.73 15.34 7.3 2.6 6.37-3.52 10.71-9.52 10.46-5.38-.22-9.59-5.03-9.44-10.4.08-2.78 1.13-5.07 2.95-6.3 1.83-1.22 0 0 0 0zm.46 1.78c.4 2.91 2.3 5.02 4.04 7.33.62.82 1.2 1.65 1.58 2.55.2.1.38.19.59.27.48.1.98.17 1.5.2.12.01.17.1.18.21a9.24 9.24 0 0 0 4.92-2.5c.26-.25.66.07.43.35a8.03 8.03 0 0 1-2.52 2.01c.32-.07.65-.15.97-.25.42-.14.65.48.23.64a8.8 8.8 0 0 1-3.93.48c-.64.09-1.29.11-1.94.07a5 5 0 0 1 .03 1.3c0 .09-.05.14-.1.18l.13.01c4.9-.12 10.38-3.56 6.75-8.76-2.66-3.8-7.2-6.08-11.81-4.96-.41.23-.75.54-1.05.87-.3.34 0 0 0 0zm.35 3.31v.16a15.38 15.38 0 0 0 .66 3.15c.32.5.7.94 1.1 1.34.04-.02.08-.05.1-.08.17-.18.45.06.3.25a.47.47 0 0 1-.1.1c.41.38.87.7 1.36.99a5.48 5.48 0 0 1-1.24-2.8v-.02c-.68-1.05-1.53-2.02-2.18-3.09-.65-1.06 0 0 0 0zm2.31 3c.04.01.07.03.08.06a5.72 5.72 0 0 0 2.18 3.08c-.18-.35-.39-.7-.62-1.03-.58-.82-1.2-1.6-1.81-2.4l.17.3c.06.1 0 0 0 0zm-.84 2.32c.18.37.38.72.61 1.05l.1.06c.91.45 1.88.8 2.9.9l-.05-.14a8.19 8.19 0 0 1-3.43-1.97.88.88 0 0 0-.13.1c-.04.04 0 0 0 0zm1.54 2.15c.17.17.34.33.52.48 1.09.81 1.85 1.06 1.7.04a9.7 9.7 0 0 1-2.22-.52c-.22-.08 0 0 0 0zm-3.8-10.23a8.49 8.49 0 0 0 .42 3.95c-.11-.74-.18-1.47-.2-2.18 0-.21.19-.3.34-.24-.14-.36-.26-.73-.36-1.11a3.5 3.5 0 0 1-.08-.58l-.13.16c-.03.06 0 0 0 0zm5.87 12.25a7.4 7.4 0 0 1-3.3-2.6c-.52-.34-.94-.79-1.04-1.37a.55.55 0 0 1 .04-.35c-.28-.6-.5-1.21-.69-1.84a9.17 9.17 0 0 1-1.28-5.35c-1.75 4.03.9 11.07 6.27 11.5 5.37.45 0 0 0 0zm-2.47-8.08c-.42-.64-.75-1.33-1.19-1.96a.49.49 0 0 1-.04-.5c.22-.4.57-.93 1.12-.83.37.06.67.44 1.03.26.4-.2.7.42.35.66-.1.07-.21.1-.32.14.57.38 1.21.65 1.7 1.11.73.7.37 1.7 0 2.48-.13.25-.47.4-.72.26a5.3 5.3 0 0 1-1.93-1.62c-.47-.72 0 0 0 0zm.73-.76l.04.06c.3.45.7.78 1.14 1.06.07-.2.1-.41 0-.54-.14-.15-.4-.23-.59-.3a9 9 0 0 1-.6-.28c-.18-.1 0 0 0 0zm45.73 80.4c.52 6.83-10.86 9.36-15.88 7.38-4.69-1.85-6.76-7.42-5.58-12.16.49-1.96 1.58-4.07 3.15-5.14-.01-.63.47-1.33 1.28-1.29 3.93.2 7.81 1.68 11.08 3.82l.02.02c2.45 1.6 5.68 4.17 5.93 7.37zm-6.54 3.77a9.2 9.2 0 0 1-.4.76c.3-.34.57-.71.76-1.14.5-1.2.64-2.35.5-3.56l-.1.23a10.86 10.86 0 0 1-.76 3.7c-.5 1.14 0 0 0 0zm.89-5.36c.14-.03.3.04.35.23.51 2.28.1 4.39-1.1 5.93 3.11-1.09 5.38-3.04 3.45-5.95-.66-1-1.47-1.9-2.4-2.7a7.7 7.7 0 0 1-.3 2.49zm-11.54-7.37c-3.85 2.24-3.36 12.96 2.4 14.4 1.44.37 4.3.23 6.92-.43 1.01-1.07 1.46-2.55 1.7-4.14l-.05.03c-2.16 3.56-6.89 4.5-10.68 2.1-.07-.05-.04-.18.05-.17 3.58.6 6.63-.5 9.79-1.89.23-.27.44-.55.63-.84.2-.41.38-.85.51-1.32.1-1.06.18-2.1.34-3.06-3.21-2.7-7.67-4.29-11.61-4.68zm9.14 10.97l.4-.4c-1.19.55-2.42 1-3.69 1.26-1.34.27-3.63.85-4.98.25 3.15 1.41 6.81.76 8.94-1.62l-.22.1-.43.43c0 .01-.03 0-.02-.02.01 0 0 0 0 0zm-6.68-7.5a5.07 5.07 0 0 1 3.4 2.3c.74 1.26.79 2.6.4 3.98-.09.33-.35.7-.74.69-1.62-.02-3.5-.33-4.37-1.87-.8-1.4-.3-3 .43-4.32 0-.43.38-.83.88-.78.5.05 0 0 0 0zm0 4.22c.41.81 1.41 1.02 2.3 1.07.1-.75.05-1.51-.44-2.14-.47-.61-1.13-.94-1.76-1.33-.29.79-.46 1.67-.1 2.4.37.73 0 0 0 0zm30.27-72.98c-3.86 6.5-14.66 7.56-19.86 2.03-7.77-8.26.4-28.01 11.94-20.63 1.42.58 2.76 1.46 3.97 2.54 1.83 1.18 1.22.79 0 0 4.48 4.03 7 10.91 3.95 16.06zm-19.5-.52c3.37 5.02 13.17 5.92 16.9.7 5.07-7.14-1.94-15.72-8.9-17.65a.96.96 0 0 1-.54-1.56c-7.63-.45-11.89 11.94-7.47 18.51 4.42 6.57 0 0 0 0zm.45-5.49a10.5 10.5 0 0 0 2.83 4.45 14.94 14.94 0 0 1-.67-5.3 2.8 2.8 0 0 1-.03-2.54l.33-.6c.28-1.76.73-3.34 1.27-4.41.08-.18.36-.05.28.13-.51 1.15-.89 2.41-1.14 3.72.7-.86 1.63-1.55 2.55-2.16.54-.35 1.26.28 1 .79 1.26.8 2.45 2.04 2.62 3.57.14 1.23-.6 2.23-1.69 2.74-1.49.7-3.7.49-4.86-.77.01.6.03 1.2.09 1.76.1 1 .27 2.22.72 3.24.03 0 .05 0 .08.02 3.52 1.7 6.46-.28 9.02-2.65.39-.36 1.03.14.65.55-2.03 2.14-4.6 3.88-7.36 3.7.36.16.72.28 1.09.36a9.53 9.53 0 0 0 2.76-1c.25-.12.46.29.23.43-.41.26-.8.46-1.16.63 2.82-.36 5.47-2.7 6.7-5.61.05-.12.22-.03.18.08-1.36 3.62-4.74 6.35-8.21 6.2 2.9.76 5.95-.44 8.3-2.96.07-.07.18.02.12.1-2.15 2.5-4.97 3.86-7.8 3.61l.4.24c1.97.4 4.06-.16 5.83-1.9.35-.34.92.11.6.5-3.42 4.02-8.64 2.94-11.63-.99a.4.4 0 0 1-.04-.42l-.16-.13a.44.44 0 0 1-.13-.42 10.53 10.53 0 0 1-2.89-4.92c-.01-.07.1-.11.12-.04zm5.18-4.6zm-1.09 1.35zm2.77 1.36v0zm72.32 56.15a12.58 12.58 0 0 1-8.4-9.65c-1.2-6.08 1.7-11.42 8-12.14a.84.84 0 0 1 .55-1.35c15.2-2.84 21 21.38 5.71 23.62-1.43 1.15-3.26 1.42-5.61-.03a.57.57 0 0 1-.25-.45c0-.17 0 0 0 0zm7.67-2.88c-1.08.9-2.31 1.6-3.62 2.18.81-.06 1.65-.21 2.5-.49.41-.5.78-1.06 1.12-1.7.34-.62 0 0 0 0zm-5.83 2.06c2.45-.72 4.71-1.72 6.54-3.54.38-.93.71-1.91.99-2.9-.32.16-.65.32-.99.47-1.71 2.46-4.06 4.34-6.65 4.23l-.2.34c-.04.1-.23.05-.2-.07l.1-.3a6.36 6.36 0 0 1-3.5-1.67c-.35-.3-.16-.82.27-.89l1.08-.16a23.5 23.5 0 0 1-3.11-3.42c-.64-.2-1.26-.44-1.83-.65-.56-.2-2.13-.94-.57-.85.04 0 .04.07 0 .07-.96 0-.26.31.25.5.77.27 1.56.5 2.36.7 1.38.34 2.98.83 4.42.67.2-.03.23.29.03.31-1.42.16-3.04-.22-4.53-.71a23.1 23.1 0 0 0 3.1 3.36c2-.31 4.11-.7 6.1-1.35 2.06-1.73 3.96-3.63 4.92-6.22.02-.05.07-.07.1-.1l.1-.87c.02-.29.43-.43.63-.23 2.78 2.75 1.44 4.9-1.29 6.5-.2.75-.43 1.55-.71 2.36.2-.07.45.19.27.41-.24.33-.5.63-.77.92-.34.82-.72 1.61-1.16 2.33a9.64 9.64 0 0 0 5.32-12.04c-1.93-5.78-6.69-8-12.5-7.85-.01.14-.1.28-.28.3-12.2 1.51-8.01 18.63 1.71 20.35 9.73 1.72 0 0 0 0zm9.73-10.57c-.04-.46-.25-2.44-.5-1.2-.22 1.14-.45 2.27-.72 3.4.7-.56 1.3-1.29 1.22-2.2-.08-.92 0 0 0 0zm-12.07 7.09c.79.51 1.6.79 2.4.84a8.82 8.82 0 0 1 1.77-1.72c-1.17.3-2.28.55-3.24.72l.52.42c.05.03-.02.1-.07.07-.2-.15-.38-.31-.57-.47l-.8.14c-.26.04 0 0 0 0zm2.92.84c1.71-.08 3.37-1.08 4.71-2.68l.16-.19c-.69.26-1.39.5-2.09.71-.92.65-2 1.36-2.78 2.16-.78.8 0 0 0 0zm6.07-4.5c.36-.54.68-1.1.94-1.7-.58.8-1.25 1.53-1.97 2.21.35-.16.7-.32 1.03-.5.34-.18 0 0 0 0zm-9.03-7.22c.62-1 1.78-1.08 2.89-.85a8.4 8.4 0 0 1 1.73.6c.39.18.2.84-.24.73l-.29-.07c.15.18.28.37.34.59.27.98-.3 1.79-.92 2.5a.74.74 0 0 1-.85.2c-1.23-.53-3.7-1.99-2.66-3.7 1.06-1.7 0 0 0 0zm1.23.7l.03.09c.04.13.12.27.23.38.4.4.85.7 1.34.97.23-.3.36-.6.08-.93a3.36 3.36 0 0 1-.62-.92h-.12c-.33.06-.77.16-.94.42-.16.25 0 0 0 0zM-88.7 319.96v.02c.09 3.34 0 .29 0 0 .07 2.86-1.89 5.2-4.13 6.78-4.82 3.42-13.22 6.38-18.54 2.43-.4-.3-.5-1.04-.12-1.4 3.95-3.72 8.14-13.75 14.52-13.78-.04-.55.5-1.15 1.2-.88 2.79 1.09 6.97 3.3 7.07 6.83zm-1.71.74c.16-2.26-1.63-3.74-3.56-4.8a.7.7 0 0 1 .21.6c-.46 2.52-1.84 4.62-3.55 6.5.5-.05 1-.03 1.52.05.26.04.37.32.28.55-.91 2.33-1.6 1.39-3.83 1.7-.11 0-.15-.1-.12-.19-1.37 1.24-2.79 2.4-4.07 3.55-.61.54-1.39-.42-.93-1.02 1.09-1.4 2.5-2.79 4.13-3.68a23.81 23.81 0 0 0 3.17-3.5c-.97.92-2.01 1.74-3.11 2.4-.4.24-1-.3-.6-.67 2.11-2 4.2-3.84 5.84-6.28.16-.22.39-.29.6-.25l-.32-.17h-.02c-6.55-1.42-10.14 8.67-14.38 12.88 4.09 2.45 10.93-.09 14.4-2.38 1.78-1.17 4.17-2.96 4.34-5.3.17-2.33 0 0 0 0zm-8.1 3.73c-.17.08-.32.18-.5.27l-.35.33c.53-.11 1-.16 1.53-.13.75.24 1.18-.07 1.29-.95-.68.07-1.33.23-1.96.48-.63.25 0 0 0 0zm28.39-41.45a8.31 8.31 0 0 1-.21-3.15c-.72-.74-1.4-1.5-2-2.32-.23-.3.21-.71.47-.44l1.74 1.8c.5-1.6 1.63-2.68 3.22-2.68a.65.65 0 0 1 .62-.55c2.92-.18 5.34 4.29 6.59 6.33 2.3 3.77 4.16 7.8 6.52 11.54a.9.9 0 0 1-.88 1.4c-6.23-.71-14.46-5.52-16.07-11.93-1.62-6.4 0 0 0 0zm1.5-2.56c.53.55 1.1 1.09 1.65 1.63a26.7 26.7 0 0 1-1.38-2.8c-.17-.4.45-.74.68-.36a60 60 0 0 0 1.08 1.72l-.27-.68c-.05-.13.16-.2.2-.07.24.6.49 1.19.75 1.78 1.46 2.19 3 4.35 4.33 6.6.63.82 1.27 1.63 1.95 2.4.1.11 0 .26-.12.29 1.27.62 2.58 1.15 3.92 1.6-1.41-2.5-2.68-5.07-4.12-7.54-1.67-2.87-3.38-6.09-6.32-7.8-1.85-.14-2.46 1.36-2.36 3.23.11 1.88 0 0 0 0zm.14 1.22c.38 1.9 1.34 3.94 2.46 5a24.46 24.46 0 0 0 4.4 3.28c-1.36-1.88-2.81-3.83-4.11-5.84-.91-.8-1.84-1.61-2.75-2.44-.9-.84 0 0 0 0zm128.5 46.7c.69 1.46-.51 2.94-1.54 3.87-1.9 1.74-4.06 3.13-6.22 4.53-1.52.98-4.21 2.14-5.17 3.76-.4.67-1.28.65-1.62-.07-2.14-4.64 3.24-14.73 8.3-13.11-.12-.48.11-1.05.7-1.03 1.7.07 4.67.22 5.54 2.05.88 1.83 0 0 0 0zm-4.93-.3c.3.23.62.51.91.86.14.16-.1.33-.24.23-4.91-3.26-9.6 4.32-9.05 9.14 1.95-1.9 5-3.22 7.03-4.61 1.49-1.03 3.27-2.1 4.34-3.6 1.1-1.57-1.5-1.87-3-2.03-1.48-.16 0 0 0 0zm63.23-109.13c-1.16-1.35-2.28-2.71-3.5-3.97 1.22 1.26 2.34 2.62 3.5 3.97zm-10.76-8.72zm-3.46 2.17c1.61.24 3.21.67 4.78 1.22-.4-.38-.8-.77-1.17-1.18a9.15 9.15 0 0 1-1.6-2.2l-.16.1c.06.46.17 1.08.13.95.13.38.24.76.34 1.14.01.05-.06.08-.07.03-.23-.8-.43-1.39-.48-2.07a4.28 4.28 0 0 0-1.77 2.01c-.1.23 0 0 0 0zm9.52 4.05l.03-.04-.03.04zM-95.7 179.18c-.8-1.4-.3-3 .44-4.32-.01-.42.37-.83.87-.77a5.06 5.06 0 0 1 3.4 2.3c.74 1.25.79 2.6.4 3.98-.09.33-.35.69-.74.68-1.62-.01-3.5-.32-4.37-1.87-.88-1.54 0 0 0 0zm3.6.2c.12-.75.06-1.52-.42-2.15-.48-.6-1.14-.94-1.77-1.32-.29.78-.46 1.67-.1 2.4.41.8 1.41 1.02 2.3 1.06zM-29.96 151c-3.13-5.3.34-13.4 6.31-14.92 8.93-2.29 19.82 11.29 10.05 16.6-4.6 3.68-13.22 3.64-16.36-1.68-3.14-5.31 0 0 0 0zm.9-1.92c3.1 6.42 11.95 4.8 16.05.6a.78.78 0 0 1 1.32.23c3.3-5.25-3.86-13.15-10.28-12.59-4.9.44-9.37 7.06-7.1 11.76 2.27 4.7 0 0 0 0zm7.68-4.19c.08-1.4 1.18-2.97 2.63-3.2.84-.14 1.62.31 2.1.97.78 1.05.98 2.38 1.08 3.64.05.52-.68.8-.95.41-1.06.57-2.41.94-3.56.46-.94-.4-1.36-1.3-1.3-2.28.05-.97 0 0 0 0zm1.71-.17c-.02.12-.04.24-.04.36v.1l.03.1c.01.04.03.05.04.07 0 .01.03-.02.04-.01.02.03.1 0 .12.02.02.02.14-.1.16-.09.05.05 0 .2.07.21.04.01-.03.15.01.16a3.9 3.9 0 0 0 .4.01c.12 0 .23-.02.34-.04.6-.1 1.02-.2 1.53-.3l-.16-.45-.28-.65-.1-.2-.12-.2a3.37 3.37 0 0 0-.26-.34l-.24-.2h-.02a.93.93 0 0 0-.13-.06h-.03l-.05-.01h-.15v.01l-.18.07-.02.02a2.7 2.7 0 0 0-.27.2 3.06 3.06 0 0 0-.41.53 3.43 3.43 0 0 0-.26.6l-.02.1c0 .01 0 0 0 0zm2.16-.72zm-126.4 177.4c.02.08-.1.12-.12.05a26.85 26.85 0 0 1-1-8.42c0-.06.1-.07.1 0-.1 2.84.23 5.63 1.01 8.37 0 0-.02-.07 0 0zm5.32 12.44c.04.16-.24.22-.28.07-1.55-6.4-3.12-12.8-2.36-19.4.02-.14.23-.1.21.03-.7 6.63 1 12.89 2.43 19.3 0 0-.04-.16 0 0zm5.1 3.36c.04.09-.1.14-.14.05-1.9-4.67-2.73-9.56-3.22-14.56 0-.08.12-.09.13 0 .5 4.97 1.32 9.86 3.23 14.51 0 0-.04-.08 0 0zm16.93-69.36c.03-.05.12-.01.09.04a32.6 32.6 0 0 0-3.94 8.34c-.01.05-.08.04-.07 0 .86-3.01 2.26-5.75 3.92-8.38 0 0-.03.05 0 0zm-5.4 7.29c.03-.06.12-.04.1.02-.39 1.33-.89 2.61-1.5 3.86-.02.05-.11.01-.08-.04.6-1.24 1.1-2.52 1.49-3.84 0 0-.02.06 0 0zm51-99.28a19.29 19.29 0 0 1 9.98-16.13c9.39-5.34 23.14-3.27 31.2 4.22v-.05c-.17-1.24 1.73-1.71 1.88-.48.77 6.49 6.92 11.88 4.81 18.78-1.88 6.17-5.9 12.8-11.39 16.42a21.95 21.95 0 0 1-17.67 3.1c-.04.05-.11.04-.14 0l-.03-.04c-.87-.22-1.73-.52-2.58-.86-.02.6-.07 1.2-.07 1.79 0 .3-.37.37-.5.11-.41-.87-.78-1.75-1.12-2.63a25.55 25.55 0 0 1-9.98-8.8A25.56 25.56 0 0 1-71 176.6c-.12-.04-.21-.17-.15-.32l.19-.4c.06-.14 0 0 0 0zm13.63 22.01a35.9 35.9 0 0 1-1.33-6.11 6.19 6.19 0 0 1-1.33-1.77.68.68 0 0 1 .12-.8l.38-.4c-.06-.4-.12-.8-.16-1.22-.02 0-.03.02-.05.01a6.7 6.7 0 0 1-2.1-.78l.66.92c.26.35-.27.71-.53.38a30.4 30.4 0 0 1-2.01-2.87c-1.44-1.64-2.4-3.93-2.91-6.43-1.06-3.65-1.1-7.37.37-10.68l.1-.36a52.09 52.09 0 0 0-2.7 4.7c-1.82 6.24-.48 13.3 4.26 19.1a28.6 28.6 0 0 0 7.23 6.31c2.67 1.63 0 0 0 0zm-.76-24.97v-.16h-.03c-3.1-.15-6.61 4-4.09 6.5 1.35 1.34 2.78-.85 3.33-1.95a6.93 6.93 0 0 0 .8-4.39zm-.94 6.77c-.5 2.7-.82 5.5-.35 8.23l.12.68c.11-.1.22-.19.34-.27-.12-3.1.1-6.24.57-9.45-.22.3-.44.57-.68.81-.24.25 0 0 0 0zm3.94 10.34c-.6-.34-1.21-.76-1.86-.96-.51-.17-.92 0-1.26.3l-.16.68c.74 1 1.89 1.8 3.14 1.79l.07-.01c0-.6.03-1.2.07-1.8.04-.6 0 0 0 0zm.06 1.79c.9-.12.7-.89.32-1.6l-.07-.01-.18-.1c-.04.56-.06 1.13-.07 1.7 0 .58 0 0 0 0zm-3.18-3.88c.12-.8.2-1.62.21-1.84.14-2.05-.37-5.1-.07-7.15-.23 1.54-.46 3.08-.54 4.64a52.85 52.85 0 0 0-.03 4.55c.14-.08.28-.15.43-.2.14-.06 0 0 0 0zm2.65 12.63l-.6-.25c.23.49.42.65.6.25.19-.4 0 0 0 0zm.44-7.3a5 5 0 0 1-3.21-1.22c.22 1.58.55 3.15 1.04 4.69l.44 1.45c.53.3 1.07.6 1.62.87.04-.3.08-.6.11-.98.03-.22.36-.16.34.06-.03.37-.03.74-.05 1.1.46.22.92.43 1.4.6a16.72 16.72 0 0 1-1.7-6.57zm1.87 6.66c.5.18 1 .35 1.5.5a20.9 20.9 0 0 0 1.17-4.03c0-.06.1-.04.1.02a12.3 12.3 0 0 1-.97 4.1c.5.15 1.02.27 1.54.37-.6-5.5-1.35-11.03-.9-16.56a7.11 7.11 0 0 1-1.45-1.22c-.23-.27-.24-.58-.1-.89 1.46-2.98 4.6-4.8 7.94-4.01l.03.01a.89.89 0 0 1 1.33.12c1.74 2.38 1.13 5.3-1.59 6.55a6 6 0 0 1-2.92.52 54.48 54.48 0 0 0-.47 9.25c.06 1.63.13 3.27.33 4.88a2.28 2.28 0 0 0 1.4-1.66c.35-1 .63-2.01.83-3.04.04-.2.35-.15.31.05-.42 2.3-.94 4.15-2.46 5.97-.13.16-.4.07-.41-.13-.61-5.1-.6-10.27.1-15.35a6.97 6.97 0 0 1-2.74-.95 53.8 53.8 0 0 0 .24 9.37c.19 1.7.39 3.38.6 5.08.33 2.75.3.46.5-.61.02-.17.28-.13.26.04l-.42 2.66c6.14 1.15 12.52-.53 17.6-6.3 3.92-4.44 9.28-11.85 7.12-18.11-1.31-3.82-3.68-7.01-4.67-10.87-8.56-5.77-19.6-10.95-29.57-5.3a22.62 22.62 0 0 0-3.66 2.59c-1.1.95 0 0 0 0 .02.05.02.1-.02.14-.33.39-.64.79-.95 1.18.7-.71 1.5-1.4 2.4-2.03.3-.2.62.24.32.46-8.08 5.96-6.26 15.54-1.59 22.98a6.56 6.56 0 0 0 2.83 1.5c-.2-2.4-.05-4.78.4-7.25-1.31 1.19-2.83 1.5-4-.24-2.45-3.66 2.2-8.68 5.76-7.62a.6.6 0 0 1 .67.29c.43.24.84.58 1.2 1.05.18.23-.12.55-.33.32-.18-.2-.37-.35-.58-.49.22 1.34-.3 3.16-1.17 4.7.25 3.36.31 6.62-.2 9.88.26-.06.53-.07.8-.02a4.6 4.6 0 0 1 1.84.93c.08-.16.21-.28.37-.36l.12-.96c.02-.09.16-.06.14.03l-.11.86c.32-.1.7-.05.94.31.57.87 1.33 2.22.88 3.3a2.14 2.14 0 0 1-1.9 1.33H-55c.07 1.21.26 2.41.59 3.57.3 1.05.64 2.1 1.15 3.08zm2.62-17.5c.01-.09.13-.06.12.01 0 .08 0 .16-.02.24.82.63 1.8 1.06 2.82 1.16l.3-1.68c.04-.23.4-.16.36.07-.1.54-.19 1.1-.27 1.64a4 4 0 0 0 1.88-.4c1.92-.94 1.97-2.53 1-4.25l-.15.03c-2.75.01-4.95.7-6.24 3.2l.19.14.01-.17c.01-.06 0 0 0 0zm-14.25-17.06c.27-.37.57-.73.86-1.1-.16.18-.35.34-.5.5-.12.2-.25.39-.36.6-.12.2 0 0 0 0zm-2.82 4.22c.68-1.14 1.4-2.27 2.18-3.36.11-.25.25-.45.37-.68a19.44 19.44 0 0 0-2.55 4.04c-.67 1.43 0 0 0 0zm-1.19 183.96c-.03 0-.02-.05.01-.04l.8.14c.03 0 .02.05 0 .04l-.8-.14s.02.01 0 0zm36.38-196.19c-4.83-3.33-16.18-7.22-9.67-14.68.2-.22.48.05.34.28-1.09 1.67-2.28 3.75-1.25 5.75.81 1.58 2.32 2.69 3.81 3.57 2.49 1.45 5.17 2.55 7.56 4.14.67.43-.13 1.4-.8.94 0 0 4.84 3.34 0 0zm28.73 30.08c-.1-.11.09-.29.2-.18a5.82 5.82 0 0 1 1.44 6.21c.27 2.84.44 5.68.52 8.5l.04.04c.27-2.27.6-4.52 1.4-6.64.03-.06.11-.02.1.03-.8 2.2-1 4.48-1.21 6.76l.08.04c.1.05.17.13.2.21.08.24-.1.55-.36.56-.07.6-.14 1.2-.23 1.81 0 2.25-.03 4.5-.16 6.76-.03.47-.75.35-.72-.12.1-1.33.18-2.65.24-3.98-.05 0-.09-.04-.08-.1.05-.24.08-.49.12-.73.05-1.33.08-2.66.1-3.99-2-1.11-3.03-2.63-2.3-5.05v-.03c1.1-3.64 3.76-6.54.62-10.1zm1.46 6.54c-1.09 2.97-2.77 5.72.2 7.7 0-2.56-.07-5.13-.2-7.7zm3.87 11.52c0 .2-.3.24-.31.03-.16-4.67.45-9.32.06-13.99 0-.08.11-.09.12-.01.6 4.65.18 9.3.13 13.97 0 0 0-.2 0 0zm-18.07 70.1c-.05.08-.2 0-.14-.1 3.16-5.18 5.2-11.09 9.34-15.63.05-.06.15.02.1.08-4.15 4.61-5.86 10.59-9.3 15.65 0 0 .06-.08 0 0zm.43-8.22c.06-.13.25-.04.2.1-2.16 5.08-7.36 12.77-4.76 18.43.56 1.23 1.62-2.43 2-3.87.08-.75.2-1.51.36-2.27.04-.18.28-.12.28.05-.06 1.2-.18 2.37-.35 3.52.14 1.54.37 3.54.54 4.05a24.54 24.54 0 0 0 6.6 10.22c.26.25-.09.67-.38.44a18.16 18.16 0 0 1-7.08-12.88c-.2 1.02-.44 2.03-.74 3.06-.08.28-.43.4-.62.14-4.83-6.52 1.13-14.9 3.95-20.99 0 0-.06.13 0 0zm67.58 50.77l-1.48-2.5a7.42 7.42 0 0 1-3.03-4.2c-.06-.22.26-.34.32-.13a7 7 0 0 0 2.04 3.16 141.4 141.4 0 0 1-1.57-2.83c-.14-.24.2-.5.35-.25.78 1.32 1.58 2.63 2.4 3.93.92.54 1.99.9 3.16 1.08.3.05.2.47-.08.45a7.66 7.66 0 0 1-2.53-.64c.33.51.64 1.03.97 1.53.24.37-.33.77-.55.4zm55.16-50.39l-.1.34c-2.14 6.92-10.24 11-17.17 8.9-.15-.03-.29-.24-.14-.37 2.9-2.67 6.52-4.02 10.1-5.45-1.96-.24-4.03-.6-5.53.16-.33.17-.6-.37-.3-.57 1.22-.82 2.75-.57 4.14-.45 1.14.11 2.3.21 3.39.16a36.62 36.62 0 0 0 3.66-1.74c.17-.1.35.16.17.26-.94.53-1.93.98-2.94 1.41a5.54 5.54 0 0 0 4.34-2.77c.11-.18.44-.11.38.12-.06.23 0 0 0 0zm-1.54 2.21a5.4 5.4 0 0 1-2.84 1.28c-.72.11-1.53.07-2.36-.01-3.17 1.23-6.4 2.4-9 4.53-1.97 1.62 1.42 1.39 2.3 1.35 1.34-.07 2.66-.22 3.94-.65 2.5-.84 5.03-2.13 6.77-4.17 1-1.18 1.72-2.76 2.4-3.84a7.69 7.69 0 0 1-1.21 1.51zm-9.85-32.37c.04-.2.35-.15.3.05-.9 4.99-2.36 9.8-3.8 14.64-.72 2.4-1.47 4.8-2.03 7.25-.07.31-1.34 4.25-.14.85.08-.22.46-.1.4.13-.55 1.76-.26 1.05-1.08 2.7-.14.26-.56.13-.5-.16 1.55-8.67 5.17-16.81 6.85-25.46 0 0-.04.2 0 0zM67.13 220.3a23.72 23.72 0 0 0 7.38-4.44 23.7 23.7 0 0 1-7.38 4.44zM2.17 167.82c0-.03.05-.04.05 0 .07 2.09.54 4.1 1.42 6 .01.02-.04.04-.05.01a15.58 15.58 0 0 1-1.42-6s0 .02 0 0zm2.19 176.34a6.94 6.94 0 0 1 .72.79 13.1 13.1 0 0 1 3.43 4c.04.07-.06.14-.1.07a13.05 13.05 0 0 0-3.14-3.76 5.86 5.86 0 0 1-.07-.05c-.51-.42-1.06-.81-1.65-1.15-.06-.03-.02-.12.04-.09a12.62 12.62 0 0 1 1.41.93c-.2-.26-.41-.5-.64-.74zm-58.16-84.62zm.88-2.97l.61-3.21a86.43 86.43 0 0 1-.84 3.17zm-.6 8.34c-.38 1.79-.88 3.69-1 3.48.12.21.62-1.7 1-3.48zm-1.87 4.72a.3.3 0 0 1-.05 0zm-11.09-85.87c-.03-.04.03-.08.06-.04l1.31 1.88c.02.03-.02.05-.04.03l-1.33-1.87s.03.04 0 0zm32.42 9.2zm4.82-4.98c-.3 1.68-.44 1.65-.15-.03l1.48-8.4.12.02-1.45 8.4s.3-1.67 0 0zm-64.52-42.07c.23-.12.47.2.24.34-11.44 6.75-20.47 16.22-29.06 26.22-.34.4-.98-.13-.63-.54 8.67-9.99 17.78-19.53 29.45-26.02 0 0-.23.13 0 0zm-24.2 21.38c.02-.05.1-.01.08.05-2.95 5.88-6.68 11.32-9.57 17.24-.04.08-.17.02-.13-.07 2.9-5.9 6.65-11.34 9.61-17.22 0 0-.03.06 0 0zm-4.9 9c.04-.1.2-.03.15.07-3.81 8-7.67 15.96-11.12 24.11l.18-1.02c3.37-7.82 7.1-15.47 10.78-23.16 0 0-.05.1 0 0zm-8.72 12.45c.03-.05.1.01.07.06l-.38.55.04-.22.27-.39s-.04.05 0 0zm89.3-64.82c-.1.03-.33-.16-.22-.19a30.2 30.2 0 0 1 3.39-.7l.73.13c-1.3.17-2.6.42-3.9.76 0 0 .11-.03 0 0zm124.4 25.4c.54.24.15 1.05-.4.82-6-2.5-11.67-5.74-17.33-8.97l2.23.4c2.26 1.17 4.52 2.35 6.8 3.5a54.98 54.98 0 0 0-3.86-2.99l1.62.28a50 50 0 0 1 4.23 3.4c.13.11.15.25.12.38 2.18 1.1 4.37 2.15 6.58 3.17 0 0-.55-.25 0 0zm-220.6 78.52l-.21.54.66-3.8a98.05 98.05 0 0 1 4-8.33c.1-.18.38-.05.3.13a140.83 140.83 0 0 0-4.26 10.14c.59-.83 1.2-1.64 1.87-2.4.05-.06.14.01.1.07.05-.07.88-1.12 0 0a32.44 32.44 0 0 0-2.47 3.65zm60.64-84.09zm-4.4 6.34zm.01 0zm198 22.12c-.24-1.42-.42-2.89-.63-4.35-2.19-2.63-4.37-5.28-6.73-7.75.29 2.22.5 4.46.92 6.65l.06.04-.46-.34 7.64 6.51-.8-.76zm-7.65-12.4a52.32 52.32 0 0 0-4-3.74c.39 2.01.65 4.06 1 6.1.81.52 1.63 1.05 2.45 1.55.4.25.12.9-.32.69a55 55 0 0 1-1.9-.98l.1.49c1.18.82 2.34 1.67 3.48 2.54-.39-2.18-.55-4.43-.81-6.66zm-152.36-27.64c1.1-.43 2.19-.84 3.3-1.25 1.5-.56 10.18-4.02 3.13-1.56a55.7 55.7 0 0 0-6.43 2.8c-2.1 1.05 0 0 0 0zm-7.61 2.32l3-1.36c.18-.34.36-.7.55-1.03-.36.62-2.14 1.6-3.55 2.39-1.41.79 0 0 0 0zM.69 322.69c-6.17 4.16-4.63 14.54-.87 20.53 4.91 7.85 15.33 10.16 23.74 6.54 10.92-4.7 17.45-19.44 5.76-27.5-4.45-3.07-10.61-5.7-16.14-4.78-5.16.85-8.36 4.01-11.9 7.58-.87.89-2.17-.23-1.46-1.24l.08-.1c.25-.36.52-.7.79-1.03zm28 29.52c5.97-4.6 8.98-10.4 9.08-17.05-.16.24-.32.49-.52.71-.85 6.37-5.28 12.34-11.9 15.11-1.1.46-2.24.83-3.4 1.14 2.28.11 4.55.38 6.82.55-.17-.05-.28-.31-.08-.46zm.16.47l.48.03c.77.06.4.03 0 0 .93.07 1.86.11 2.79.1 18.82 0 34.38-10.34 47.76-22.59 5.6-5.12 12.54-8.51 18.22-13.53 7.75-6.84 10.58-15.89 15.13-24.78 2.74-6.18 4.07-12.7 5.25-19.38a174.68 174.68 0 0 1 4.96-20.33c4.27-14.14 6.8-28.45 2.76-43-3.57-12.87-10.18-25.1-21.06-33.21-12.21-9.1-25.93-15.8-39.93-21.65 1.75 1.54 1.66 4.01-.37 6.4-2.94 3.47-6.93 5.64-10.27 8.64-.89.8-2.25-.7-1.41-1.54 2.96-3 3.5-8.28 5.77-11.8a7.34 7.34 0 0 1 2.53-2.5.87.87 0 0 1 .61-.5c-13.49-5.7-27.25-12.08-41.58-15.04-15.22-3.15-31.05-3.55-46.54-3.04-13.3.43-26.54 2.8-38.77 8.18-6.41 2.83-12.73 6.3-18.14 10.8a47.61 47.61 0 0 0-6.69 7.14c-.6.9-1.16 1.84-1.7 2.8-.15.26-.44.29-.65.17a79.23 79.23 0 0 1-3.69 4.4c3.59.38 7.09 1.78 10.08 3.74 2.45 1.6 5.7 4.17 5.95 7.38.52 6.84-10.86 9.37-15.88 7.39-4.69-1.85-6.76-7.43-5.58-12.16.16-.63.38-1.27.66-1.89-4.18 3.4-8.74 6.3-12.25 10.53-3.65 4.4-8.64 10.03-8.96 16.1.86-1.82 1.86-3.6 3.07-5.27.07-.1.24.02.18.12a33.63 33.63 0 0 0-3.23 6.6c.05.58.12 1.17.26 1.75.09.34-.42.55-.52.2l-.18-.71c-1.62 4.78-2.57 9.81-4.04 14.65-2.4 7.88-6.5 15.1-8.99 22.94-5.47 17.27-3.43 36.31.42 53.75 3.84 17.45 0 0 0 0 3.2 14.48 9.58 31.7 20.63 42.1 5.53 5.2 14.6 8.49 22 9.84 3.03.55 6.19 1.03 8.82 2.76 3.16 2.07 5.93 4.68 9.41 6.22.77.34.22 1.37-.52 1.15 17.81 7.33 36.25.24 54.9.9 4.5.16 9.07.67 13.56.16.99-.11 1.96-.27 2.93-.46-2.61-4.22-3.98-9.42-5.44-13.98-.14-.45.54-.7.69-.25 1.63 4.93 3.35 9.55 5.82 14.01 3.12-.67 6.18-1.59 9.3-2.27 1.65-.36 3.33-.69 5.01-.97-6.35-.8-12.11-4.22-14.92-10.72-3.06-7.06-3.78-17.93 4.32-20.64 8.3-8.6 22.49-8.06 31.04.97a16.1 16.1 0 0 1 4.55 11.92c.13-.25.23-.52.34-.78a27.7 27.7 0 0 0-.97-5.83c-.04-.15.19-.24.23-.09.45 1.6.83 3.24 1.06 4.91 1.3-5.04-1.55-11.35-5.35-14.49-.17-.14.05-.39.22-.26 4.65 3.42 8.13 11.2 5.32 16.58a17.7 17.7 0 0 1-1.62 9.1c2.2-3.5 3.48-7.34 4.8-11.42.09-.25.52-.17.52.1-.1 8.1-6.59 16.05-12.96 20.5a.23.23 0 0 1-.14.05zm29.68-191.15c-.36.91-.7 1.92-1.09 2.93 1.06-.77 2.1-1.54 3.1-2.4 1.29-1.12 2.92-2.44 3.7-4.02.89-1.82-.35-2.51-1.83-3.1-1.85.32-3.35 5.27-3.88 6.59-.52 1.32 0 0 0 0zm-117.2-24.46c-.26.66-.54 1.32-.88 1.97.12-.24 1.97-1.66 2.8-2.24l1.07-.74c-.89.27-1.94.63-2.99 1-1.05.38 0 0 0 0zm-5.8 1.47a70.3 70.3 0 0 1 5.15-2.24c.68-1.38.91-2.42-.68-1.36a37.34 37.34 0 0 0-4.47 3.6c-1.42 1.3 0 0 0 0zm-6.89 4.93c-.05.02-.09.01-.13.02-1.08.7-2.14 1.43-3.17 2.2l-.53.4c-.22.22-.44.45-.68.67-.1.08-.2.11-.32.11-.5.39-.99.78-1.47 1.18a80.42 80.42 0 0 1 16.33-7.68.43.43 0 0 1-.02-.61c-.03.03.67-1.03 1.35-2.2a75.17 75.17 0 0 0-4.16 1.66c-.95.5-1.9 1-2.82 1.52a18.81 18.81 0 0 1-4.38 2.73c-1.62.7 0 0 0 0zm10-3.71zm-16.72 7.32c.44-.35.9-.69 1.35-1.03v-.01c.3-.48.58-.98.87-1.47-.75.83-1.48 1.67-2.22 2.51-.73.84 0 0 0 0zm-12.22 1.2a34.6 34.6 0 0 1 6.88-4.69c.13-.07.25.07.25.2.62-.88 1.2-1.77 1.75-2.7a41.52 41.52 0 0 0-8.88 7.18c-2.56 2.8 0 0 0 0zm-19.82 20.12c1.26-1.35 2.55-2.67 3.86-3.97a52.93 52.93 0 0 1 9.4-9.88l.03-.1c.16-.35.35-.7.52-1.05-4.85 4.71-9.48 9.72-13.81 15-4.34 5.27 0 0 0 0zm7.7-7.63l1.06-.99 2-2.28a54.21 54.21 0 0 0-3.07 3.27c-.98 1.12 0 0 0 0zm-21.68 29.49c3.46-4.53 6.43-9.38 9.22-14.35-3.41 4.52-6.5 9.3-9.22 14.35-2.73 5.04 0 0 0 0zm1.32-.94a68.47 68.47 0 0 1-2.62 3.36 106.35 106.35 0 0 0-4 8.87c-.03.09-.1.12-.16.14a62.28 62.28 0 0 1-2.83 6.28c2.36-4.47 4.5-9.05 6.84-13.54a139 139 0 0 1 2.77-5.1c.97-1.7 0 0 0 0zm17.68-22.6a67.82 67.82 0 0 1-5.07 5.46c-.39.38-.97-.1-.65-.55l1.31-1.8c-.07-.07-.1-.18-.03-.3l.37-.63c-1.8 2.05-3.51 4.16-5.16 6.31.07.03.13.1.08.19a183.45 183.45 0 0 1-3.95 6.95c2.5-3.23 5.4-6.08 8.98-8.2 1.52-2.38 2.8-4.92 4.12-7.44zm-3.73 7.24c.28-.04.53.25.32.52-2.1 2.79-4.4 5.41-6.54 8.17-1.27 1.64-2.59 3.32-3.66 5.12 1.02-1.16 2.05-2.31 3.09-3.46 1.03-1.15 0 0 0 0a52.77 52.77 0 0 1 4.09-4.53c1.18-1.31 2.35-2.62 3.51-3.95-.06-.05-.1-.12-.09-.22.53-2.19 1.33-4.53 2.35-6.89a73.97 73.97 0 0 1-3.07 5.24zm5.26-2.32a160.67 160.67 0 0 1-3.55 4.28c3.1-2.37 6.6-4.57 9.14-7.5 2.2-2.55 4-5.4 6.12-8.02l.9-1.06c-.82.63-1.66 1.23-2.56 1.78-.24.14-.65-.03-.56-.36.11-.35.24-.7.37-1.05-.28.5-.55 1-.78 1.5-.22 1.3-.7 2.61-1.36 3.95-.16.33-.74.18-.64-.2.28-1 .64-1.9 1.05-2.79l.2-1.27c-2.4 2.8-4.8 5.57-7.12 8.43-.4.48-1.09-.12-.73-.61.36-.48.74-.94 1.1-1.41-.2-.35.13-.78 1-1.29a263.7 263.7 0 0 1 6.01-7.32c.08-.95.08-1.83-.09-2.42.26.62.46 1.24.57 1.86 1.56-1.83 3.11-3.67 4.63-5.53l.03-.02c2.07-2.93 4.46-5.68 6.55-8.63a39.68 39.68 0 0 0-6.8 5.11 21.56 21.56 0 0 1 3.62-1.8c.08-.03.14.1.05.14-1.64.65-3.16 1.5-4.58 2.51-.64.62-1.26 1.26-1.87 1.9.08.09.11.22-.02.3-.26.18-.5.38-.75.56-.19.3-.37.62-.55.93a197.8 197.8 0 0 1 3.74-3c.2-.15.41.17.23.32a173.01 173.01 0 0 0-4.58 3.82l-.28.53a.92.92 0 0 1-.26.33l.1.23a.73.73 0 0 0-.17-.18.9.9 0 0 1-.6.14l-1.21 1.08c-1.5 1.83-2.95 3.7-4.42 5.57a88.7 88.7 0 0 0-5.72 12.63c1.11-1.27 2.21-2.55 3.29-3.86.27-.33.76.1.5.42-.26.33 0 0 0 0zm9.13 13.38c3.52.88 15.58-1.17 11.83-6.83-2.95-4.46-9.04-7.06-14.24-7.57-3.85 2.23-3.36 12.96 2.4 14.4 5.78 1.45 0 0 0 0zM28.85 352.68zm9.65-11.14l-.47.83a19.98 19.98 0 0 0 3.2-8.02c.26-1.98-.98 2.9-.9 2.7-.55 1.5-1.07 3.07-1.83 4.5zM-87.72 155.5zm190.08 3.77c-3.6-3.79-6.39-8.3-8.8-12.98l.44.07c2.41 4.52 5.18 8.86 8.66 12.56.2.21-.1.57-.3.35zm22.85 16.87a400.52 400.52 0 0 1 8.46 17.9c.12.27-.31.43-.44.16-2.74-6-5.43-12.02-8.34-17.94-.1-.2.22-.3.32-.12 0 0-2.98-5.89 0 0zm1.79-6.2c4.08 7.91 6.97 16.27 9.88 24.65.1.3-.36.47-.46.17-2.81-8.4-5.57-16.82-9.5-24.79-.01-.04.05-.06.08-.02 0 0-4.1-7.9 0 0zm13.95 37.67h.03c.2.04.14.34-.06.31-1.34-.16-1.87-1.17-1.91-2.46-.08-2.34.4-4.66.08-7.01-.03-.25.35-.28.39-.04.22 1.55.12 3.08.02 4.64-.1 1.49-.54 4.16 1.45 4.56zm.4 14.84c.33-.37.85.09.58.48-.86 1.25-.62 1.62-2.16 1.65-.3 0-.54-.18-.6-.49-1.22-7.93 2.84-15.66 4.51-23.24.03-.16.27-.12.24.04-.79 4.48-2.24 8.8-3.1 13.26-.26 1.33-1.67 10.71.53 8.3 0 0-.33.36 0 0zm5.19-5.54c.1-.28.51-.08.42.2-2.05 5.79-7.33 13.11-4.86 19.4.22.56-.61.85-.86.32-2.94-6.24 3.08-14.24 5.28-19.86-.03.05-.04.1 0 0l.02-.06zM14.11 189.15c-7.93-1.8-18.08-9.51-18.38-18.3 0-.22.32-.26.34-.04.96 8.46 10.3 15.65 18.1 17.68-.08-.02-.23-.06 0 0l.06.02c.4.1.3.74-.12.64zM-10.67 178c-1.33-7.46-.34-15.06 3.62-21.59.22-.35.75-.2.7.23-.4 3.36-.55 6.59-.4 9.74.27.28.53.57.82.83.01 0 0 .02-.02.01l-.77-.55a45 45 0 0 0 1.63 9.89 12.55 12.55 0 0 0 7.87 6.9c.1.03.04.19-.05.16a13 13 0 0 1-7.35-5.52 49.18 49.18 0 0 0 3.18 7.59c.17.32-.32.64-.58.4-5.25-5.08-10.19-14.16-6.4-21.34.07-.12.27-.16.35-.03.13.2.28.37.42.56-.03-2.37.1-4.74.38-7.12.06-.53-1.51 3.5-1.37 3.09a28.98 28.98 0 0 0-1.55 6.58c-.32 3.44-.17 6.69.3 10.1.06.5-.69.56-.78.07-.09-.49 0 0 0 0zm2.96-12.12c-1.16-1.56-1.18 6.3-1.34 5.18a24.05 24.05 0 0 0 4.12 10.5c.68.94 1.5 1.82 2.01 2.86-.7-1.43-1.4-2.87-1.95-4.36a41.75 41.75 0 0 1-1.78-5.68c-.6-2.8-.91-5.6-.99-8.42l-.07-.08c-.02-.02 0 0 0 0zm-1.34 5.18zm6.13 13.36zm48 31.38c-3.29-8.27-2.17-19.3 2.57-26.11.1-.16.32.03.22.2-5.66 8.72-6.23 22.57 1.35 30.5-3.88-7.39-5.87-16.81-2.7-24.28.07-.16.31-.05.24.11-3.14 7.65-.75 17.46 3.28 24.95a24.77 24.77 0 0 0 6.93 4.17c.47.16.96.31 1.47.45.81.21 1.1.3 1.07.3.45.11.9.26 1.37.33.2.04.2.38-.02.38-3.49.03-6.42-.83-8.84-2.32l.38.56c.09.13-.1.27-.2.14-.26-.35-.5-.72-.76-1.09a17.63 17.63 0 0 1-6.1-7.72c-.4-.54-.8-1.1-1.16-1.67-.05-.08.07-.16.12-.09.25.4.51.8.79 1.19.27.39 0 0 0 0zm5.18 5.64l.36.34c1.15.97 2.35 1.77 3.62 2.41a33.97 33.97 0 0 1-3.98-2.75c-1.26-1.01 0 0 0 0zm-121.77 39.9c-.49-.34-.99-.67-1.5-.98a34.45 34.45 0 0 0 4.7 11.51c.32.52-.42 1.05-.77.55-4.76-6.7-7.47-15.81-3.73-23.56.2-.42.87-.43 1.02.04 1.3 4.04.45 8.94 1.48 13.12 5.21 4.13 9.08 9.92 15.75 11.6l.52.12c.48.1.97.2 1.48.25.21.03.15.34-.05.31-.99-.1-1.9-.33-2.78-.6-7.03-1.54-14.23-4.78-16.1-12.3l-.02-.05c0-.02 0 0 0 0zm1.27.98c.38 1.4 1 2.73 1.99 3.9 2.69 3.16 6.39 5.12 10.3 6.43-4.71-2.44-8.07-6.91-12.29-10.33-4.21-3.42 0 0 0 0zm-1.32-1.23c-.45-2.11-.2-4.33-.32-6.46-.05-.82-.77-3.36-.53-4.04-.5 1.26-.83 2.57-.97 3.91-.13 1.92 0 3.8.32 5.63.52.3 1.02.62 1.5.96.48.33 0 0 0 0zm-3.48-18.65c-6.47-1-2.52 20.65-1.4 24.04.15.47-.53.72-.7.27-1.25-3.34-5.46-26.64 2.16-24.67.22.06.17.4-.06.36zm-1.33-21c.04-.06.13 0 .1.06-1.22 2.43 1.22 4.8 3.23 5.77 2.29 1.13 4.5 1.4 6.9.5.5-.18.87.53.44.84-3.97 2.8-14.38-2.01-10.67-7.17 0 0-.04.05 0 0zm54.88-87.76c-.55-.05-.4-.87.14-.84 2.9.16 5.49-.42 8.3-.99.48-.1.58.62.18.8-2.62 1.2-5.79 1.25-8.62 1.03 0 0 .55.04 0 0zm5.74 197.82c1.04 2.15.04.09 0 0 .38.79-.81 1.33-1.3.68-3.48-4.6-5.57-13.16-.85-17.57.66-.62 1.75.25 1.1.92-.25.25-.46.51-.66.78v.01c-.39 2.6-.77 5.2-1.2 7.8.6 2.6 1.85 5.2 2.91 7.38zm-2.02-14.74a8.46 8.46 0 0 0-1.16 5.9l1.16-5.9c.4-1.97 0 0 0 0zm2.18.02c-.06-.65.86-.7.99-.1.9 4.24 1 8.66.42 12.93-.1.8-1.25.56-1.2-.2.3-4.25.18-8.39-.21-12.63 0 0 .06.66 0 0zm-.92-.3c.05-.22.39-.16.36.07-.35 2.48-.65 4.98-1.19 7.42-.07.37-.62.28-.57-.1.33-2.48.89-4.93 1.4-7.38 0 0-.05.23 0 0zm-7.8 23.91c1.28.06-.48 2.69-.66 2.98A49.75 49.75 0 0 1-31 351a.3.3 0 0 1-.24.1 30.7 30.7 0 0 1-2.8 3.23c-.36.36-.96-.13-.62-.52 4.23-4.8 7.7-9.58 8.14-16.18 0-.15.26-.13.26.02a22.77 22.77 0 0 1-3.16 10.69c.85-1 1.68-2 2.46-3.05.21-.3 3.02-4.5 2.58-4.58-.2-.03-.14-.31.05-.3 0 0-1.29-.06 0 0zm22.24 9.34s.85 2.6 0 0zm0 0c-.85-2.6-2.2-4.78-3.65-7.07-.1-.15.1-.35.23-.22 1.87 1.94 3.17 4.53 4.1 7.03.17.45-.53.7-.68.26z"/></defs><g><g opacity=".5" transform="translate(156 -115)"><use fill="#fff" xlink:href="#f3cha"/></g></g></svg>