<svg xmlns="http://www.w3.org/2000/svg" xmlns:xlink="http://www.w3.org/1999/xlink" width="123" height="126" viewBox="0 0 123 126"><defs><path id="fiuza" d="M83.75 487.37h.01c-4.7-1.77-9.55-2.37-14.51-2.76-.02 0 1.14 1.49 2.13 3.25l.8-.28c.13-.04.17.12.09.18l-.68.5c.27.5.52 1.03.71 1.54 1.06-.33 2.13-.62 3.21-.88 7.28-1.76 0 0 0 0 .32-.08.62.33.34.58-1 .9-2.06 1.7-3.16 2.44 0 .07-.02.13-.03.2 3.5-1.95 7.3-3.77 11.1-4.77zm-14.5-2.76a149.16 149.16 0 0 1-.12-.01h.12zm14.7 2.65h0zm.14.02h.01l.07-.04-.08.04-.08-.03.08.03zm-16.64-2.81zM50.48 449.7c-.02 0-.03-.02-.02-.02l.02-.01v0c3.34-1.38 6.68-2.75 10.03-4.1l.04-.02c-2.51-3.58-6.09-6.45-9.7-8.75-5.57-.04-10.43 2.47-15.6 5.4l-.06-.1c5.14-2.97 9.81-5.42 15.25-5.55-4.27-2.63-8.96-4.25-14.25-3.96-4.46.25-8.73 1.72-12.76 3.87-.53.28-1.06.58-1.58.89-6.08 3.57-11.55 8.58-16.2 13.09-6.16 5.99-11.64 12.58-17.13 19.2-1.03 2.03-1.79 4.24-2.52 6.2 1.06-2.74.4-1.04 0 0l-.23.6c-1.82 4.71-3.31 9.54-4.78 14.36a67.74 67.74 0 0 0-2.6 12.4 54.4 54.4 0 0 0 .93 17.88 52.17 52.17 0 0 1 1.77 6.13s-4.33-12.15 0 0a27.52 27.52 0 0 0 28.94 18.17c1.78-.2 3.57-.6 5.35-1.18 4.78-1.58 9.25-5.27 13.03-8.43.8-.68 1.6-1.42 2.25-2.21-9.05 1.23-18.95-1.26-22.5-10.43-3.75-9.7-1.35-20.82 2.58-30.17a75.06 75.06 0 0 1 7.38-13.7c4.66-6.7 10.73-12.41 18.4-14.53 2.32-.64 5-.88 7.67-.69-.01-.03 0-.07.04-.1a61.24 61.24 0 0 1 6.94-3.54c3.79-1.81 7.66-3.43 11.6-4.9.25-.1.35.28.11.38-2.45.9-4.87 1.85-7.26 2.87.06.01.1.1.01.14-.61.19-1.21.42-1.81.64-1.1.48-2.2.99-3.28 1.5-.1.05-.19 0-.22-.08-2.03.92-4 1.97-5.93 3.11 6.95.54 13.85 4.01 14.35 11.13 7.68-2.67 9.36-9.84 7.4-17.56a36.26 36.26 0 0 0-2.1-5.96.15.15 0 0 1-.12.1c-.73.2-1.45.42-2.18.67a10.34 10.34 0 0 1 3.09 4.96.2.2 0 0 1 .05-.01c.37-.06.4.44.1.58.2.83.3 1.7.32 2.59l.21-.12c.14-.05.25.16.14.24-.11.1-.23.18-.35.26 0 .96-.1 1.95-.3 2.92-.03.18-.3.1-.27-.07.16-.88.24-1.77.26-2.63-.14.08-.27.17-.41.24l-.16.1-.31.23c-.05.06-.1.08-.15.08 0 .05-.02.1-.08.12l-.2.06c-.08.03-.3 0-.32-.06v-.01c-2.16.75-4.64.68-6.79 1.04-.07.02-.07-.1.01-.12 2.6-.5 5.23-.54 7.67-1.64.23-.18.5-.34.74-.49-.01-.9-.1-1.8-.28-2.65-4.46.52-8.1 3.29-12.19 4.92-.06.03-.1-.08-.04-.1 4.08-1.82 7.61-4.69 12.09-5.43a9.98 9.98 0 0 0-2.98-4.96c-4.11 1.45-8.15 3.53-12.37 3.1-4.66 2.3-9.55 4.13-14.15 6.58-.14.08-.26-.13-.12-.2 4.41-2.4 9.11-4.23 13.6-6.45-.73-.12-1.46-.31-2.2-.6-.1-.02-.16-.15-.05-.2 5-2.25 9.8-4.96 15.3-5.76.19-.04.32.16.18.32-.59.72-1.24 1.32-1.92 1.84.54.3 1.05.63 1.5 1 .8-.28 1.63-.52 2.46-.7.04-.01.07 0 .1.01a37.57 37.57 0 0 0-3.32-5.8 2105.65 2105.65 0 0 0-10.12 4.07zm-43.93 2.87l.06-.07v-.01c.08-.08.2-.2.25-.22l.06-.03.04-.03 1.46-.7c1.33-.75 2.66-1.49 4-2.21 8.85-4.8 18.05-9.01 27.7-11.88.18-.06.3.2.13.27l-.03.01A176.8 176.8 0 0 0 11.4 450.1a366 366 0 0 0-.03.02h-.02a366.97 366.97 0 0 1 22.9-10.03l.04-.01c-1.9 1.11-3.63 2.42-5.44 3.66l-.02.02.01-.02c1.82-1.24 3.55-2.55 5.45-3.66a14.9 14.9 0 0 0 .17-.07c.46-.19.91-.4 1.37-.58a13.34 13.34 0 0 1 .12-.04c.02 0 .03 0 .05.02.02.01.03.04.02.07 0 .03-.01.05-.05.07-.44.18-.85.39-1.26.6-.2.1-.43.19-.64.3-.2.11 0 0 0 0-1.81.99-3.42 2.2-5.18 3.37h-.04.04c-.06.04-.12-.03-.07-.07 1.83-1.24 3.54-2.55 5.44-3.66-1.77 1.03-4.19 1.8-6.16 2.61-6.31 2.62-13.1 5.86-19.25 8.8l-2.59 1.42-1.82 1.03c-1 .57-2.18 1.24-3.72 2.14L.68 456a395.53 395.53 0 0 1 5.87-3.42zm33.54-15.14c.17-.05.28.14.18.24.1-.1-.01-.29-.18-.24-.18.06 0 0 0 0zm28.12 78.08l1.66-1 1.86-1.18-1.86 1.17-1.67 1.01-.02.02.03-.02zm-82.45-39.06c.47-1.21.93-2.54 1.46-3.88-.53 1.34-1 2.67-1.46 3.88zm19.88-26zm6.63 50.33c8.04.18 15.68-2.25 23.56-3.43.57-.09.82.74.24.85-7.9 1.48-15.72 3.52-23.8 3.13-.36-.01-.36-.56 0-.55.36 0 0 0 0 0zm23.4-61.3l-1.05.45 1.05-.44zm.36-.02c0-.03 0-.05-.02-.06.02.01.02.03.02.06zM7.86 451.79l-.42.21.42-.2zm26.41-11.71zm.06-.03a.36.36 0 0 1-.02.01l-.04.02.06-.03zm-18.87 6.86c8.43-4.16 16.76-8.51 24.68-13.6.19-.12.36.17.17.3-7.96 5-16.33 9.29-24.8 13.38-.05.03-.1-.05-.05-.08zm15.83-12.14c.46-.13.92-.24 1.38-.35.22-.05.45.24.24.4-4.63 3.81-9.86 6.66-15.3 9.17-.15.08-.3-.16-.13-.24 5.05-2.4 9.93-5.1 14.3-8.6.49-.4-1.66.38-1.61.37l-.1.03-.12.09c-.03.02-.05 0-.06-.03a28.1 28.1 0 0 0-3.92 1.43 16.45 16.45 0 0 0-6.23 4.9c-.12.14-.39-.06-.27-.2 2.9-3.76 7.03-5.7 11.48-6.9a12.6 12.6 0 0 1 3.09-1.37c.06-.02.08.07.02.09-.98.28-1.9.7-2.77 1.2-.88.51 0 0 0 0zm13.02 4.89c.11.02.15.18.04.26-2.68 1.8-5.42 3.49-8.2 5.12 3.54-1.24 7.11-2.36 10.72-3.35.14-.04.29.16.16.27-2.32 1.87-1.25 1.06-3.69 2.79-.1.08-.21-.1-.1-.19 2.32-2.1 2.13-2.53-.57-1.27-2.18.66-4.34 1.39-6.5 2.13l-1.74.62c-.47.26-.93.55-1.4.82-.09.04-.16-.09-.08-.13l.72-.42c-3.53 1.3-6.99 2.73-10.42 4.23-7 3.07-13.7 6.76-20.1 10.9-.1.06-.2-.1-.1-.16a153.75 153.75 0 0 1 32.45-16.02c1.9-1.1 3.76-2.22 5.6-3.41 1.96-1.26 1.57-1.36.44-1.04a112.22 112.22 0 0 0-8.52 3.99c-.07.04-.13-.06-.06-.1 2.25-1.2 4.55-2.3 6.86-3.33-1.23.45-2.52.96-2.88 1.08-7.43 2.59-14.66 5.65-21.39 9.74-.17.1-.32-.16-.15-.27 8.38-5.1 17.57-8.6 26.88-11.63 2.37-1.01 4.77-2 7.17-2.95.15-.07.22.17.07.23-1.75.69-3.48 1.38-5.21 2.09-1.73.7 0 0 0 0zm-9.49 11.57c.52-.28 1.82-.92 2.8-1.47 2.95-1.55 1.67-.88 0 0 1.44-.81 2.2-1.44-1.2-.43-1.11.33-2.2.72-3.3 1.13-7.74 4.05-14.93 9.06-22.78 12.95-.1.05-.2-.1-.09-.16 6.38-3.2 12.34-7.14 18.51-10.7-.3.15-.6.3-.9.47-.08.03-.14-.07-.06-.1.9-.5 1.83-.99 2.74-1.47-1.75.73-3.48 1.5-5.2 2.28-5.8 2.63-11.39 5.75-17.04 8.7-.13.05-.23-.13-.12-.2 7.85-4.09 15.6-8.36 23.81-11.53l2.17-1.1c.62-.3 1.22-.63 1.84-.93H36c4.59-2.26 9.27-4.33 14.12-5.98.15-.05.28.16.15.27l-1.3 1.1c.1-.19.01-.37-.3-.53-2.57.88-5.08 1.92-7.58 3-1.65.7-3.27 1.46-4.88 2.25.01.06 0 .12-.07.15-.64.3-1.27.64-1.9.96a75 75 0 0 1 6.64-2.08c.15-.04.24.17.1.25-12.02 7-25.07 12.01-36.86 19.45-.05.03-.09-.05-.04-.08 9.8-6.24 20.47-10.82 30.73-16.2zm9.53-3.46c-.08.06-.15-.07-.08-.13.9-.67 1.77-1.37 2.62-2.1-.17.06-.33.1-.5.18-.08.04-.13-.11-.03-.15.28-.12.58-.22.87-.33.19-.16.39-.32.57-.5.31-.1.57-.22.76-.32l-.72.6c2.2-.8 4.45-1.33 6.78-1.58.12-.02.12.17 0 .18-2.47.26-4.84.84-7.15 1.7a60.92 60.92 0 0 1-3.12 2.45c-1.08.78 0 0 0 0zm-8.3 5.07c5.69-2.84 11.15-6.23 17.5-7.37.14-.02.2.19.06.21-6.33 1.1-11.82 4.45-17.52 7.24-.06.03-.1-.04-.05-.08.06-.03 0 0 0 0zm-58.88 41.1c1.57-5.63 3.46-11.2 5.46-16.69.23-.6.45-1.24.68-1.9-.33-.12-.58-.5-.33-.84l1.29-1.75c1.3-3.43 2.93-6.93 5.54-9.14.46-.39.99-.4 1.42-.2 11.7-15.25 26.39-31.23 45.18-33.25 11.94-1.3 21.47 7.1 27.23 16.46 5.16 8.37 9.58 22.96-1.17 29.22-1.83 1.07-4.06 1.5-6.09 1.98-1.2.29-2.38.6-3.55.98-4.32 1.37.12 2.17 1.8 2.62 9 2.43 18.6 1.57 27.66 4 1.52.4 2.83.91 3.98 1.5.03-.02.07-.02.1-.03.16-.02.25.1.26.22 6.85 3.71 6.64 10.49 2.26 18.12-3.2 5.6-6.98 10.95-10.32 16.5-3.64 6.01-7.46 12.1-12.7 16.88-2.49 2.26-7.22 5.11-10.7 3.64-2.32-.99-3.77-2.7-5.38-4.55a92.07 92.07 0 0 0-10.32-9.88 35.66 35.66 0 0 0-8.2-5.17c.94 1.96 2.12 3.62 2.66 5.44.25.08.31.39.14.56.3 1.4.18 2.92-.76 4.75-2.23 4.4-8.85 8.15-12.9 10.68-12.02 7.52-26.98 3.4-36-6.28-10.28-11.04-11.11-29.99-7.24-43.86zm78.35-42.44c.23-.16.44.2.22.36-1.95 1.35-4 2.5-6.1 3.54 4 .19 7.69-1.88 11.57-3.22-.44-.36-.92-.68-1.45-.98a22.52 22.52 0 0 1-5.13 2.68c-.18.07-.26-.22-.08-.3 1.5-.63 2.97-1.26 4.36-2.1-.06.02.2-.18.53-.44-.24-.13-.49-.26-.74-.37-.06-.02-.01-.1.04-.08l.8.37c.78-.62 1.92-1.59 1.14-1.47-1.02.15-2.01.43-3 .7-3.84 1.07-7.41 3.02-11.05 4.63.78.28 1.54.44 2.28.53a50.34 50.34 0 0 0 6.61-3.85s-.23.16 0 0zm-1.26 24.9c.72-.2 1.45-.38 2.2-.56-1.04-12.15-19.45-9.57-26.45-5.06a30.22 30.22 0 0 0-5.05 4.16c2.06-.6 4.19-1.09 6.36-1.47 1.25-.33 2.54-.51 3.56-.65a88.1 88.1 0 0 1 12.25-.6c-6.04-.94-12.01-1.24-18.24.38-.36.1-.5-.41-.15-.53 8.2-2.7 17.88-2.28 25.93.6.56.2.34 1.01-.24.9l-.34-.07a.65.65 0 0 1-.58.32H50.6c-7.15.55-14.15.45-21.25 1.33a4.59 4.59 0 0 0-2.37 2.37c-.1.3-.53.2-.47-.12.15-.81.55-1.48 1.08-2.02-.93.14-1.86.28-2.79.46a.42.42 0 0 1-.47-.25 43.72 43.72 0 0 0-2.96 3.54c11-.48 21.9-2.83 32.9-2.72zm9.67-24.95a37.62 37.62 0 0 1 0 0zm-33.13 49.6c1.1-.1 1.1 1.62 0 1.72-7.2.67-14.31 1.84-21.46 2.95l-.15 1.02c7.6-.16 15.1-1.62 22.63-2.62 1.08-.14 1.08 1.57 0 1.69-7.61.84-15.11 2.13-22.78 1.9-.43 3.41-.42 6.86.15 10.22 7.03.75 13.8-1.41 20.7-2.39.47-1.39.96-2.77 1.48-4.13-6.62 1.73-13.3 2.94-20.17 2.52-.78-.05-.8-1.22.01-1.22 7.17 0 14.16-1.49 21.04-3.45.22-.54.43-1.09.66-1.62-7.08 1.92-14.35 3.42-21.7 2.92-.39-.02-.4-.6 0-.6 7.4.06 14.31-2.02 21.46-3.58.31-.07.56.07.7.27 2.02-4.56 4.36-8.99 6.93-13.3-9.22 2.6-18.44 5.3-28.03 5.97-.38.02-.37-.55 0-.59 9.84-1 19.17-4.15 28.72-6.55h.04c.42-.7.84-1.41 1.28-2.11h-.02c-9.12 1.92-18.63 3.52-27.95 3.1-.35-.02-.36-.57 0-.56 9.47.08 18.48-2.49 27.81-3.58.32-.04.5.21.52.48.72-1.12 1.43-2.24 2.17-3.35-9.4.9-19.01 2.31-28.42 1.98-.5-.01-.5-.75 0-.76 9.76-.29 19.56-2.9 29.3-2.54.6-.88 1.2-1.75 1.82-2.62-1.27.24-2.55.42-3.85.58-8 1.18-16.13 1.5-24.18 1.26-.53-.01-.53-.81 0-.82 9.47-.16 18.69-1.03 28.04-2.42-.2-.37-.17-.9.15-1.17.68-.57 1.38-1.05 2.1-1.46-9.7.6-19.35 2.26-29.05 1.76-3.96 5.4-7.01 11.73-9.08 17.32a48.89 48.89 0 0 0-2.1 7.24 145.04 145.04 0 0 1 21.23-3.45s-1.11.1 0 0zm-1.44 16.1c-6.58.9-13.35 3.04-19.96 1.86l.31 1.35c.15.58.33 1.13.53 1.65a56.98 56.98 0 0 0 16.17-2.5c1.05-.32 1.5 1.33.45 1.62a51.86 51.86 0 0 1-16.16 1.9c3.49 7.5 11.9 8.92 20.02 8.46 0 0-.45.03 0 0 .46-.03.78.25.93.61.52-.98.75-2.06.58-3.2l-6.39.45c-.72.22-1.44.46-2.16.74-.43.16-.7-.16-.7-.51l-1.52.11c-.18.01-.17-.25 0-.28l1.65-.24a.57.57 0 0 1 .26-.2 29 29 0 0 1 8.16-2.05c-.07-.13-.13-.26-.21-.38-.6-.92-1.12-1.78-1.57-2.67l-.26.06c-.3.43-.85.48-1.28.26-4.3.85-8.64 1.5-13 .61-.39-.08-.21-.65.17-.59 4.16.72 8.26 0 12.33-.92v-.18a87.74 87.74 0 0 1 1.65-5.96zm54.93-29.98l-.12.07.12-.07zm4.25 5.22l-.05.02.05-.02zm-14.45 8.7c2.4-1.42 4.79-2.87 7.16-4.35a101.7 101.7 0 0 0-7.16 4.35s-2.42 1.42 0 0zm-10.16-49.64zm-.46 10.43h0zm-.12.05l.12-.05-.12.05zm12.08 57.15zm2.22-1.25zM63.8 464.75c.15-.04.22.2.06.24-2.1.48-4.14.48-6.23.01-.1-.02-.05-.17.04-.14 2.08.43 4.07.4 6.13-.11 2.07-.5 0 0 0 0zm-18.46-15.2c2.13.2 4.16-.11 6.12-1 .14-.06.27.14.12.21a12.15 12.15 0 0 1-6.24 1.16c-.24-.01-.24-.4 0-.37.24.02 0 0 0 0zm-34.1 17.73a198.72 198.72 0 0 1 13.35-6.11c0-.05 0-.1.06-.14 6.29-3.4 12.52-6.99 19.6-8.41.25-.06.36.33.1.38-1.04.2-2.07.47-3.08.76.07.04.1.15 0 .2-9.71 5.07-20.14 8.55-29.88 13.56-.16.08-.3-.15-.14-.24zm29.64-13.4c-5.06 1.52-9.76 4-14.43 6.5 4.86-2.06 9.71-4.12 14.43-6.5zm-5.95-2.19a14.32 14.32 0 0 1 5.2-2.1c.26-.05.37.33.11.39a13.97 13.97 0 0 0-5.1 2.08c-.23.15-.45-.22-.21-.37.23-.15 0 0 0 0zm14.47.9c4.29-1.21.13-.03 0 0 .22-.05.3.27.1.33-4.33 1.21-8.57 2.7-12.35 5.18-.15.1-.29-.14-.14-.24 3.8-2.52 8.04-4.02 12.4-5.26zm24.87 37.33c-.6.13-1.19.28-1.78.45.07.21.12.42.15.63a7.44 7.44 0 0 1 1.63-1.08z"/></defs><g><g opacity=".5" transform="translate(28 -427)"><use fill="#fff" xlink:href="#fiuza"/></g></g></svg>