<svg xmlns="http://www.w3.org/2000/svg" xmlns:xlink="http://www.w3.org/1999/xlink" width="167" height="113" viewBox="0 0 167 113"><defs><path id="a" d="M229.71 664.04c.7-.12.92 1.01.25 1.2-2.62.74-5.52.27-7.85-1.15-.34-.2-.11-.7.26-.53.22.1.17.07.1.04 2.39 1.01 4.75.85 7.24.44zm24.38-70.87l.18-.13c.23-.18.13-.1 0 0 2.7-2.02 4.81-4.4 6.63-7.22.32-.49 1.2-.3 1.05.35-.07.33-.17.65-.26.97l1.26-1.16c.72-.69 1.89.26 1.22 1.04a29.36 29.36 0 0 1-3.9 3.72c-.12.28-.25.55-.4.83-.13.26-.48.1-.44-.17a38.72 38.72 0 0 1-4.55 2.93c-.78.42-1.52-.62-.8-1.16zm-22.56-6.69c.72-2.6 1.83-4.97 3.44-7.14.4-.54 1.18.15.8.68a23.15 23.15 0 0 0-3.36 6.64c-.16.53-1.03.38-.88-.18.15-.55 0 0 0 0zm2.66-1.64c.32-.4.65-.76 1-1.13-.34-.15-.6-.52-.36-.86 1.67-2.57 3.67-4.98 6.29-6.63.75-.48 1.4.57.77 1.12a45 45 0 0 0-4.16 3.98 51.54 51.54 0 0 1 6.63-4.55l.23-.13 1.03-.61c.32-.19.63.26.33.48-.8.58-1.6 1.14-2.42 1.68-2.04 1.49-4 3.04-5.9 4.75-.09.08-.24-.03-.15-.13.47-.5.94-1.02 1.43-1.52a25.39 25.39 0 0 0-4.36 3.85c-.2.22-.55-.08-.36-.3.18-.23 0 0 0 0zm17.5-8.42a51.8 51.8 0 0 1-2.35 1.75 41.8 41.8 0 0 1 1.58-.98c1.16-.68 2.61-1.66 4.04-1.5.36.05.36.57.05.67l-.03.01c-.2.07-.07.03 0 0-3.62 1.2-6.96 3.25-10.15 5.28-.1.06-.18-.08-.1-.14.99-.77 1.98-1.53 3-2.25a61.5 61.5 0 0 1-4.88 2.88c-.43.23-.8-.32-.42-.62a57.93 57.93 0 0 1 8.71-5.9c.54-.29 1.02.42.54.8-.48.37 0 0 0 0zm-.27 2.96c2.8-1.2 5.79-2.12 8.84-2.4.2-.02.2.26.03.28a35.09 35.09 0 0 0-8.8 2.31c-.12.05-.18-.14-.07-.19zm4.22.32c.57-.25 1.15-.47 1.73-.7 1.13-.43 2.25-.86 3.4-1.26.22-.08.34.27.11.35-1.22.5-2.49.87-3.74 1.3l-.86.31c.07 0 .11.1.03.13-.2.06-.92.41-1.15.25a.078.078 0 0 1-.02-.1c.08-.15.36-.22.5-.28.14-.06 0 0 0 0zm23.25 51.6c-1.16 1.05-2.52 1.75-3.82 2.61-.32.22-.6-.13-.5-.43l-1.72.78c-.4.18-.7-.46-.35-.7.17-.11.34-.24.5-.36l.08-.08a69.46 69.46 0 0 1 5.62-3.92c.66-.4 1.34.6.68 1-.63.45-1.3.88-1.97 1.3l.05.06c.35-.23.7-.45 1.04-.69.26-.18.63.2.39.43-.24.22 0 0 0 0zm-13.33-5.23c.3.71-.76 1.16-1.18.57-.53-.74-1.07-1.4-1.68-1.97a.3.3 0 0 1-.18.07 6.42 6.42 0 0 1-5.37-2.6c-.2-.27.22-.55.43-.29a5.7 5.7 0 0 0 4.41 2.22 7.6 7.6 0 0 0-2.13-1.13c-.5-.17-.21-.93.28-.84 2.32.46 4.44 1.75 5.42 3.97zm7.98-1.73h-.02c-2.9-1.37-5.94-2.22-9.16-1.97-.45.03-.49-.63-.05-.69 1.73-.2 3.49-.14 5.2.2a8.7 8.7 0 0 1 6.73 1.37c.53.34-.05 1.22-.59.9-.88-.53-1.81-.92-2.77-1.2.36.17.72.35 1.07.54.54.3.16 1.12-.4.85zm6.82-1.4c.27.25-.08.65-.37.42-2.42-1.84-5.33-3.15-8.38-2.5-.18.04-.28-.22-.1-.27 3.15-.91 6.5.09 8.85 2.34zm-19.54-4.21c-.22 0-.26-.33-.02-.34 3.06-.13 6.12.72 8.77 2.27.4.24.09.89-.3.64l-.1-.05a16.5 16.5 0 0 0-8.35-2.52zm-35.58 51.82c-11.66 1.58-22.1-9.66-22.42-20.7a.53.53 0 0 1-.04-.15c-.08-2.89.58-13.23 5.2-12.95-1.74-4.05-3.17-8.29-4.81-12.33-.38-.6-.76-1.18-1.15-1.76-.11-.16.12-.3.23-.16l.25.33-.24-.56c-.32-.72.58-1.1 1.1-.72-1.4-3.27-3.07-6.42-4.3-9.75-.17-.27-.33-.53-.48-.8a.22.22 0 0 1 .08-.31l-.04-.14c-.48.36-1.27-.08-.98-.75.12-.28.27-.56.41-.83h-.89c-.64.02-.7-.9-.07-.97.53-.07 1.06-.1 1.6-.13l.05-.08c.15-.23.33-.45.5-.67a21.5 21.5 0 0 0-4.14 1.41c.19.11.18.45-.1.47l-1.05.08c-3.09 1.57-5.93 3.68-8.85 5.64-2.82 3.09-5.24 6.64-7.9 10.06-.25.3-.62.27-.88.08a45.31 45.31 0 0 1-4.86 5.02c.2.07.36.3.18.49-2.93 3.21-5.02 7.07-8.25 10-.22.2-.57-.1-.36-.3 2.96-2.75 4.94-6.27 7.48-9.35-.61.5-1.24 1.01-1.88 1.5a.3.3 0 0 1-.05.24 52.52 52.52 0 0 1-4.75 6.58c-.88.98-2.06 2.42-3.57 2.04-.08-.02-.08-.13 0-.14 1.61-.17 3.14-2.8 3.99-3.92.88-1.15 1.71-2.35 2.56-3.53a35.72 35.72 0 0 1-6.15 3.27c-.68.28-1-.76-.37-1.06a50.23 50.23 0 0 0 16.42-12.9 37.72 37.72 0 0 1 7.54-9.9c-6.3-.76-12.9 2.98-18.86 4.77-7.58 5.46-13.56 13.53-19.85 20.07-.7.72-1.9-.3-1.2-1.02 6.04-6.22 11.94-13.98 19.28-19.2.03-.1.1-.2.25-.24l.13-.04a30.4 30.4 0 0 1 11.4-5.05c.24-.05.38.3.12.38-2.45.71-4.72 1.73-6.87 2.97 5.2-2.1 10.9-4.6 16.1-3.08 1.17-1.05 2.41-2 3.7-2.84-4.62.5-9.21.96-13.9.18-.44-.08-.31-.74.13-.68 5.07.72 10.05.16 15.07-.28 1.99-1.12 4.09-1.95 6.26-2.34.44-.08.56.62.15.75a22.1 22.1 0 0 0-3.27 1.35l.5-.03a23.88 23.88 0 0 1 4.55-1.54c-.22-.12-.37-.37-.2-.62a13.18 13.18 0 0 1 4.77-4.34c2.31-1.67 4.8-3.16 7.25-4.66a.6.6 0 0 1 .26-.57c2.7-1.85 6.08-2.59 9.48-2.72-.08-.1-.16-.19-.23-.3-.13-.2.16-.5.34-.3.21.23.45.42.7.58 1.25-.02 2.5.04 3.7.15l1.01-.54c-.15-.18-.2-.44-.01-.62.39-.35.82-.65 1.26-.94-3.8-7.68 2.07-15.27 9.7-18.88 10.18-4.8 23.29-5.58 31.27 3.73 7.34 8.57.76 18.48-7.41 22.96-9.28 5.09-21.81 4.26-29.54-3.35-2.8 1.73-6 3.51-6.53 3.18.15.1.22.26.22.41 1.24-.26 2.52-.65 3.93-1.24.58-.25 1.15.6.7 1.04-4.62 4.65-12 .54-17.86 1.67-2.1 1.28-4.28 2.27-6.32 3.48a25.25 25.25 0 0 1 14.02 5.74c5.35 2.13 10.55 4.4 13.04 9.46 5.48 1.08 10.74 2.82 16.2 3.03.66-6.46 14.13-11.68 19.33-11.67 11.13.04 26.37 12.74 16.75 23.34-.26.28-.72-.1-.46-.4 8.68-10.22-5.91-20.2-15.43-21.64-5.13-.77-18.02 4.2-19.18 10.37 1.34 0 2.7-.06 4.08-.29.84-.14 1.12 1.26.3 1.46-1.47.35-2.92.52-4.38.55.05.3.13.61.25.92l.35-.04c.48-.14.97-.28 1.46-.4.25-.06.46 0 .61.14.57-.09 1.15-.17 1.72-.27.66-.12.73.92.07 1.03-.56.1-1.12.16-1.7.23a.63.63 0 0 1-.26.15.97.97 0 0 1-.12.04c.38.06.76.12 1.13.22.77.2.78 1.42-.08 1.42-.76-.01-1.52 0-2.27.02 2.06 4.62 5.4 7.5 10.87 9.23 6.14 1.95 13.5 1.59 18.88-1.92.37-.24.72.3.39.58-5.8 4.82-13.79 5.18-20.87 2.87-4.83-1.57-10.16-5.54-11.18-10.69-4.4.2-8.73.68-13.17.84-.18 0-.42-.08-.5-.25-1.5-2.79-3.77-4.56-6.46-6.15-.16-.09-.05-.34.12-.25 1.85.87 3.49 1.83 5.07 3.13l.13.12c.57.14 1.14.3 1.72.4a4.62 4.62 0 0 1-2.5-1.85c-.07-.13.1-.24.2-.13 1.93 2.38 7.43 1.9 10.05 1.9 1.73-.01 3.46-.1 5.19-.26.01-.18.01-.36.04-.54a.42.42 0 0 1 .08-.19l-.07-.3c-5.34-.1-10.62-1.97-15.8-3.42.21.58.4 1.2.55 1.86.2.88-1.13 1.35-1.37.44l-.04-.13a.82.82 0 0 1-.4-.23 47.3 47.3 0 0 0-9.24-7.41c-.1.38-.42.7-.87.56-2.98-.94-5.8-2.22-8.65-3.48-1.73-.76-3.48-1.48-5.24-2.14-.72-.28-4.21-1.8-5.8-1.93-.3.06-.62.13-.93.16a.52.52 0 0 1-.43-.18l-.35.46a78.6 78.6 0 0 0 1.64 3.52c4.72 5.88 9.23 12.06 11.64 19.07a.9.9 0 0 1 .3 0c10.67 2.06 22.42 4.87 24.17 17.42 1.23 8.8-1.38 19.47-11.79 20.88 0 0 11.67-1.58 0 0zm-7.74-58.68c-4.37-3.13-9.35-5.48-14.68-5.68-.68.49-1.33 1.03-1.95 1.63 5.7.1 11.26 1.97 16.63 4.05zm39.77-12.34c8.44-3.39 15.28-12.15 9.58-20.97-10.09-15.6-46.49-4.48-39.75 13.04.31-.2.62-.42.9-.67.48-.4 1.02.41.56.82l-.2.15.22-.12c.4-.21.8.22.65.55.28-.14.55-.26.8-.36.3-.12.5.09.55.34.44-.18.87-.38 1.3-.57.7-.34 1.08.8.4 1.14-.73.35-1.31.84-1.85 1.36 1.33-.64 2.55-1.19 3.37-1.6.8-.41 1.54.61.8 1.17a67.9 67.9 0 0 1-3.09 2.04c7.45 6.24 16.67 7.33 25.76 3.68zm-27.93-5.79l-.28.05c-.88-.74-1.36-1.14 0 0l-.1.02h-.1l-.55.3.29.5.03.08s-.24.32 0 0a27.07 27.07 0 0 1 .71-.95zm-21.79 6.02c5.3-1.9 12.14-2.6 15.55.55-.15-.14-.17-.31-.1-.49.42-1.17 1.7-2.3 3.28-3.3a20.9 20.9 0 0 1-4.05.9c-.56.06-.75-.85-.2-.96.58-.12 1.15-.27 1.7-.43-.22 0-.44-.03-.64-.09-.08-.02-.08-.11-.01-.14.04-.02.11-.02.16-.03.03 0 .04.03.05.05l.28-.14a7.11 7.11 0 0 1 .81-.22c-.5.09-1 .15-1.48.15l-1.71.74c-.28.12-.52-.35-.25-.48l.74-.38h-.04c-3.77.23-7.2 1.23-11.03 2.5a.6.6 0 0 1-.5-.04l-2.56 1.8s-5.29 1.9 0 0zm33 27.75c-2.45-.2-4.9-.64-7.26-1.3.48.46.9.96 1.32 1.47.25.3.62.44 1.04.5-.12-.27.04-.65.41-.55.63.16 1.23.26 1.84.33.43-.1.83-.19 1.14-.23l1.51-.22s2.46.19 0 0zm-11.25-7.83c-2.12-3.14-5.34-5.02-8.85-6.77.02.04 0 .08 0 .12l.4.16c.43.16.51.6.39.96a39.62 39.62 0 0 1 8.06 5.53s2.13 3.15 0 0zm-18.97 18.28c.52 1.6 1 3.21 1.4 4.81.19-.09.37-.17.55-.27-.64-1.53-1.28-3.04-1.95-4.54 0 0-.53-1.61 0 0zm-6.78 12.15c1 8.77 8.55 17.25 17.32 18.94 10.77 2.07 16.48-8.48 15.63-17.68-1.18-12.8-13.05-15.3-23.44-17.56.51 1.78.9 3.62 1.12 5.52.06.62-.95.82-1.1.2-1.8-7.05-4.99-12.96-8.55-18.84.7 1.67 1.32 3.37 1.74 5.16.08.37-.14.65-.41.77.45 1 .9 2 1.32 3a58.9 58.9 0 0 1 5.97 12.38c1.14-.67 2.25-1.38 3.52-1.8.66-.23.99.75.35 1-1.25.5-2.37 1.23-3.53 1.87l.3.94c.14.5-.57.74-.77.25l-.32-.77c-.39.18-.78.35-1.19.48 1.09 1.06 2.33 1.17 3.58.85.92-2.44 4.13-3.84 6.57-4.1.34-.03.36.47.04.52-2.03.35-4.7 1.45-5.87 3.34l.42-.16c.97-.68 2.04-1.24 3.07-1.69.92-.4 1.64 1.07.8 1.58l-.38.19c2.4-.21 4.67-.76 7.01-1.25.18-.03.27.21.1.28-2.27.86-4.84 1.15-7.26 1.34-.13 0-.18-.1-.17-.2-.54.26-1.09.51-1.68.7-.69.36-1.36.77-2.02 1.18-.47.3-.96.57-1.43.86-.24.15-.55.1-.78.26-.09.06-.2-.04-.16-.12.3-.61.72-1.17 1.2-1.68a5.82 5.82 0 0 1-4.18-1.78c-.24-.26-.21-.68.15-.8l.64-.26a49.09 49.09 0 0 1-3-5.9 2.6 2.6 0 0 0-1.1.66c.1.07.18.2.1.34a21.73 21.73 0 0 0-3 7.94c-.19 1.23-.3 2.48-.38 3.7 0 .18-.1.28-.23.34 0 0-.99-8.76 0 0zm17.56 11.67c.68 0 1.44 0 2.2.05 1.34-.36 2.67-.75 4-1.14 1-.3 1.53 1.28.52 1.53-.35.09-.7.15-1.04.23.51.18 1 .41 1.44.71.5.36.03 1.03-.47.97-1.03-.12-2.03-.55-3.05-.8-.32-.08-.66-.14-1-.21-1.36.25-2.73.46-4.13.62-.52.07-.7-.76-.19-.9.47-.1.93-.23 1.39-.35-.17-.26-.04-.7.33-.7.38-.01 0 0 0 0zm6.55-15.55c1.9.5.04.01 0 0 .1.03.07.2-.03.17a9.48 9.48 0 0 0-5.59.24c-.1.04-.16-.13-.05-.16a9.68 9.68 0 0 1 5.67-.25zm-94.72 11.74c2.05-1.46 3.74-3.36 5.39-5.23 2.56-2.89 4.66-6.26 6.75-9.5 3.22-5 6.28-9.93 10.35-14.32.15-.16.4.06.26.23-5.9 7.61-10.16 19.15-17.33 26.67 1.58-.62 3.14-1.2 4.5-1.8 5.28-2.3 10.65-4.16 16.4-5 .5-.07.8.4.78.83 5.61-2.2 11.4-4.34 17.4-4.87.13-.01.25.02.36.06a49.14 49.14 0 0 0 5.76-10.42c.12-.3.56-.07.45.21a43.63 43.63 0 0 1-5.86 10.48c.34.44.28 1.2-.37 1.38a305.1 305.1 0 0 0-23.02 7.3c-6.53 2.4-13.18 4.68-20.17 5.3l-.35.11c-1.2.84-2.45 1.57-3.81 2.16-.6.26-1.18-.61-.72-1.05.44-.43.95-.83 1.5-1.2.1-.38.22-.73.4-1.09.1-.2.42-.25.55-.03l.08.15c.2-.11.43-.24.7-.37 0 0-2.05 1.46 0 0zm12.1-2.62c3.69-1.17 7.33-2.5 10.98-3.92l.63-.24c-4 1.08-7.82 2.6-11.61 4.16 0 0-3.7 1.18 0 0zm24-16.74c3.66-4.28 6.1-9.27 8.8-14.18.2-.36.75-.1.6.29a73 73 0 0 0-2.57 6.72c-1.12 3.52-.67 3.01.82.13 2.08-4.03 4.1-8.27 7.43-11.43.34-.32.88.11.57.5-3.86 4.7-6.38 10.04-9.68 15.1-.12.18-.41.11-.38-.12.39-2.4.9-4.7 1.63-7.03.09-.25.23-.58.4-.92-2.28 3.85-4.54 7.66-7.51 11.03-.06.07-.17-.03-.12-.1.06-.06 0 0 0 0zm15.82-17.51a52.35 52.35 0 0 0 4.73-6.58c.07-.13.29-.04.21.1a43.93 43.93 0 0 1-4.75 6.65c-.1.13-.3-.04-.2-.17.11-.13 0 0 0 0zm-9.28 18.71l.02-.02-.02.02zm4.84-5.8c3.03-8.27 7.77-15.6 12.56-22.96.12-.19.43-.04.32.15-4.06 6.6-8.11 13.2-11.12 20.32a56.41 56.41 0 0 0 3.89-6.75c.06-.13.19-.16.3-.13a57.6 57.6 0 0 1 4.62-7.97c.33-.47 1.01.12.69.58-3.56 5.18-6.49 10.66-8.21 16.72-.08.28-.53.2-.46-.09.43-1.66.94-3.28 1.53-4.88a56.17 56.17 0 0 1-3.48 5.3c-.23.63-.48 1.25-.7 1.9-.11.33-.64.18-.66-.13a55.43 55.43 0 0 1-3.66 4.13c-.27.28-.73-.1-.46-.39l.02-.02a70.23 70.23 0 0 0 4.82-5.79z"/></defs><use fill="#fff" xlink:href="#a" opacity=".5" transform="translate(-128 -561)"/></svg>