<svg xmlns="http://www.w3.org/2000/svg" xmlns:xlink="http://www.w3.org/1999/xlink" width="49" height="49" viewBox="0 0 49 49"><defs><path id="v4yia" d="M542.5 3852a23.5 23.5 0 1 1 0 47 23.5 23.5 0 0 1 0-47z"/><path id="v4yib" d="M532.57 3887.47c-2.02-2.78-3.04-6.67-3.04-11.56 0-4.95 1.02-8.86 3.04-11.6a1.56 1.56 0 0 1 1.9-.5l24.3 10.75c.51.23.84.73.84 1.3a1.4 1.4 0 0 1-.84 1.3l-24.32 10.83c-.67.3-1.44.08-1.88-.52zm25.9-12.22l-10.91-4.83a2.45 2.45 0 1 1-3.03-1.34l-7.08-3.13c-.85 1.18-1.5 2.6-1.92 4.27a3.53 3.53 0 1 1-.61 4.32c-.02.45-.03.91-.03 1.38 0 6.23 1.86 8.96 2.56 9.91l4.78-2.13a2.57 2.57 0 0 1 3.33-3.24c.57.22 1.04.63 1.33 1.16l7.11-3.17-.78-1.87a.94.94 0 0 1 .5-1.22l.79-.34a.93.93 0 0 1 1.22.5l.77 1.82 1.96-.88c.25-.1.4-.33.4-.6 0-.27-.15-.5-.4-.6zm-11.36.83a2.51 2.51 0 1 1 5.02 0 2.51 2.51 0 0 1-5.02 0zm-6.9 5.94a.94.94 0 0 1-.5 1.23l-.8.34a.93.93 0 0 1-1.22-.5l-1.23-2.9a.93.93 0 0 1 .5-1.23l.79-.34a.93.93 0 0 1 1.22.5zm5.5-5.1a.94.94 0 0 1-.49 1.22l-2.9 1.24c-.23.1-.48.1-.71 0a.93.93 0 0 1-.51-.5l-.34-.8a.93.93 0 0 1 .5-1.22l2.9-1.23a.93.93 0 0 1 1.22.49z"/></defs><g><g transform="translate(-518 -3851)"><use fill="#ff5000" xlink:href="#v4yia"/></g><g transform="translate(-518 -3851)"><use fill="#fff" xlink:href="#v4yib"/></g></g></svg>